<?xml version="1.0" encoding="utf-8" standalone="no"?>
<!DOCTYPE svg PUBLIC "-//W3C//DTD SVG 1.1//EN"
  "http://www.w3.org/Graphics/SVG/1.1/DTD/svg11.dtd">
<svg xmlns:xlink="http://www.w3.org/1999/xlink" width="460.8pt" height="345.6pt" viewBox="0 0 460.8 345.6" xmlns="http://www.w3.org/2000/svg" version="1.1">
 <metadata>
  <rdf:RDF xmlns:dc="http://purl.org/dc/elements/1.1/" xmlns:cc="http://creativecommons.org/ns#" xmlns:rdf="http://www.w3.org/1999/02/22-rdf-syntax-ns#">
   <cc:Work>
    <dc:type rdf:resource="http://purl.org/dc/dcmitype/StillImage"/>
    <dc:date>2026-05-06T18:38:44.909244</dc:date>
    <dc:format>image/svg+xml</dc:format>
    <dc:creator>
     <cc:Agent>
      <dc:title>Matplotlib v3.10.8, https://matplotlib.org/</dc:title>
     </cc:Agent>
    </dc:creator>
   </cc:Work>
  </rdf:RDF>
 </metadata>
 <defs>
  <style type="text/css">*{stroke-linejoin: round; stroke-linecap: butt}</style>
 </defs>
 <g id="figure_1">
  <g id="patch_1">
   <path d="M 0 345.6
L 460.8 345.6
L 460.8 0
L 0 0
z
" style="fill: #ffffff"/>
  </g>
  <g id="axes_1">
   <g id="patch_2">
    <path d="M 34.062 330.48
L 393.7092 330.48
L 393.7092 145.503
L 34.062 145.503
z
" style="fill: #ffffff"/>
   </g>
   <g id="matplotlib.axis_1">
    <g id="xtick_1">
     <g id="line2d_1"/>
     <g id="text_1">
      <!-- Month 1 -->
      <g transform="translate(45.372444 136.903) scale(0.1 -0.1)">
       <defs>
        <path id="Poppins-Regular-4d" d="M 5018 4429
L 5018 0
L 4435 0
L 4435 3302
L 2963 0
L 2554 0
L 1075 3309
L 1075 0
L 493 0
L 493 4429
L 1120 4429
L 2758 768
L 4397 4429
L 5018 4429
z
" transform="scale(0.015625)"/>
        <path id="Poppins-Regular-6f" d="M 2022 -58
Q 1530 -58 1130 166
Q 730 390 502 803
Q 275 1216 275 1760
Q 275 2298 508 2710
Q 742 3123 1145 3344
Q 1549 3565 2048 3565
Q 2547 3565 2950 3344
Q 3354 3123 3587 2713
Q 3821 2304 3821 1760
Q 3821 1216 3581 803
Q 3341 390 2931 166
Q 2522 -58 2022 -58
z
M 2022 454
Q 2336 454 2611 601
Q 2886 749 3056 1043
Q 3226 1338 3226 1760
Q 3226 2182 3059 2476
Q 2893 2771 2624 2915
Q 2355 3059 2042 3059
Q 1722 3059 1456 2915
Q 1190 2771 1030 2476
Q 870 2182 870 1760
Q 870 1331 1027 1036
Q 1184 742 1446 598
Q 1709 454 2022 454
z
" transform="scale(0.015625)"/>
        <path id="Poppins-Regular-6e" d="M 2202 3571
Q 2842 3571 3238 3184
Q 3635 2797 3635 2067
L 3635 0
L 3059 0
L 3059 1984
Q 3059 2509 2796 2787
Q 2534 3066 2080 3066
Q 1619 3066 1347 2778
Q 1075 2490 1075 1939
L 1075 0
L 493 0
L 493 3507
L 1075 3507
L 1075 3008
Q 1248 3277 1545 3424
Q 1843 3571 2202 3571
z
" transform="scale(0.015625)"/>
        <path id="Poppins-Regular-74" d="M 1203 3027
L 1203 960
Q 1203 704 1312 598
Q 1421 493 1690 493
L 2118 493
L 2118 0
L 1594 0
Q 1107 0 864 224
Q 621 448 621 960
L 621 3027
L 166 3027
L 166 3507
L 621 3507
L 621 4390
L 1203 4390
L 1203 3507
L 2118 3507
L 2118 3027
L 1203 3027
z
" transform="scale(0.015625)"/>
        <path id="Poppins-Regular-68" d="M 2234 3571
Q 2630 3571 2950 3401
Q 3270 3232 3452 2893
Q 3635 2554 3635 2067
L 3635 0
L 3059 0
L 3059 1984
Q 3059 2509 2796 2787
Q 2534 3066 2080 3066
Q 1619 3066 1347 2778
Q 1075 2490 1075 1939
L 1075 0
L 493 0
L 493 4736
L 1075 4736
L 1075 3008
Q 1248 3277 1552 3424
Q 1856 3571 2234 3571
z
" transform="scale(0.015625)"/>
        <path id="Poppins-Regular-20" transform="scale(0.015625)"/>
        <path id="Poppins-Regular-31" d="M 243 4096
L 243 4627
L 1446 4627
L 1446 0
L 858 0
L 858 4096
L 243 4096
z
" transform="scale(0.015625)"/>
       </defs>
       <use xlink:href="#Poppins-Regular-4d"/>
       <use xlink:href="#Poppins-Regular-6f" transform="translate(86.099991 0)"/>
       <use xlink:href="#Poppins-Regular-6e" transform="translate(150.099976 0)"/>
       <use xlink:href="#Poppins-Regular-74" transform="translate(214.09996 0)"/>
       <use xlink:href="#Poppins-Regular-68" transform="translate(250.499954 0)"/>
       <use xlink:href="#Poppins-Regular-20" transform="translate(314.499939 0)"/>
       <use xlink:href="#Poppins-Regular-31" transform="translate(341.199936 0)"/>
      </g>
     </g>
    </g>
    <g id="xtick_2">
     <g id="line2d_2"/>
     <g id="text_2">
      <!-- Month 2 -->
      <g transform="translate(104.038644 136.903) scale(0.1 -0.1)">
       <defs>
        <path id="Poppins-Regular-32" d="M 326 467
Q 1139 1120 1600 1539
Q 2061 1958 2377 2416
Q 2694 2874 2694 3315
Q 2694 3731 2492 3971
Q 2291 4211 1843 4211
Q 1408 4211 1168 3939
Q 928 3667 909 3213
L 346 3213
Q 371 3930 780 4320
Q 1190 4710 1837 4710
Q 2496 4710 2883 4345
Q 3270 3981 3270 3341
Q 3270 2810 2953 2307
Q 2637 1805 2233 1424
Q 1830 1043 1203 538
L 3405 538
L 3405 51
L 326 51
L 326 467
z
" transform="scale(0.015625)"/>
       </defs>
       <use xlink:href="#Poppins-Regular-4d"/>
       <use xlink:href="#Poppins-Regular-6f" transform="translate(86.099991 0)"/>
       <use xlink:href="#Poppins-Regular-6e" transform="translate(150.099976 0)"/>
       <use xlink:href="#Poppins-Regular-74" transform="translate(214.09996 0)"/>
       <use xlink:href="#Poppins-Regular-68" transform="translate(250.499954 0)"/>
       <use xlink:href="#Poppins-Regular-20" transform="translate(314.499939 0)"/>
       <use xlink:href="#Poppins-Regular-32" transform="translate(341.199936 0)"/>
      </g>
     </g>
    </g>
    <g id="xtick_3">
     <g id="line2d_3"/>
     <g id="text_3">
      <!-- Month 3 -->
      <g transform="translate(163.909531 136.903) scale(0.1 -0.1)">
       <defs>
        <path id="Poppins-Regular-33" d="M 384 3462
Q 429 4051 838 4384
Q 1248 4717 1901 4717
Q 2336 4717 2653 4560
Q 2970 4403 3133 4134
Q 3296 3866 3296 3526
Q 3296 3130 3069 2842
Q 2842 2554 2477 2470
L 2477 2438
Q 2893 2336 3136 2035
Q 3379 1734 3379 1248
Q 3379 883 3212 592
Q 3046 301 2713 134
Q 2381 -32 1914 -32
Q 1235 -32 800 323
Q 365 678 314 1331
L 877 1331
Q 922 947 1190 704
Q 1459 461 1907 461
Q 2355 461 2588 694
Q 2822 928 2822 1299
Q 2822 1779 2502 1990
Q 2182 2202 1536 2202
L 1389 2202
L 1389 2688
L 1542 2688
Q 2131 2694 2432 2883
Q 2733 3072 2733 3469
Q 2733 3808 2512 4013
Q 2291 4218 1882 4218
Q 1485 4218 1241 4013
Q 998 3808 954 3462
L 384 3462
z
" transform="scale(0.015625)"/>
       </defs>
       <use xlink:href="#Poppins-Regular-4d"/>
       <use xlink:href="#Poppins-Regular-6f" transform="translate(86.099991 0)"/>
       <use xlink:href="#Poppins-Regular-6e" transform="translate(150.099976 0)"/>
       <use xlink:href="#Poppins-Regular-74" transform="translate(214.09996 0)"/>
       <use xlink:href="#Poppins-Regular-68" transform="translate(250.499954 0)"/>
       <use xlink:href="#Poppins-Regular-20" transform="translate(314.499939 0)"/>
       <use xlink:href="#Poppins-Regular-33" transform="translate(341.199936 0)"/>
      </g>
     </g>
    </g>
    <g id="xtick_4">
     <g id="line2d_4"/>
     <g id="text_4">
      <!-- Month 4 -->
      <g transform="translate(223.650731 136.903) scale(0.1 -0.1)">
       <defs>
        <path id="Poppins-Regular-34" d="M 256 1030
L 256 1472
L 2502 4582
L 3200 4582
L 3200 1536
L 3840 1536
L 3840 1030
L 3200 1030
L 3200 0
L 2624 0
L 2624 1030
L 256 1030
z
M 2650 3974
L 928 1536
L 2650 1536
L 2650 3974
z
" transform="scale(0.015625)"/>
       </defs>
       <use xlink:href="#Poppins-Regular-4d"/>
       <use xlink:href="#Poppins-Regular-6f" transform="translate(86.099991 0)"/>
       <use xlink:href="#Poppins-Regular-6e" transform="translate(150.099976 0)"/>
       <use xlink:href="#Poppins-Regular-74" transform="translate(214.09996 0)"/>
       <use xlink:href="#Poppins-Regular-68" transform="translate(250.499954 0)"/>
       <use xlink:href="#Poppins-Regular-20" transform="translate(314.499939 0)"/>
       <use xlink:href="#Poppins-Regular-34" transform="translate(341.199936 0)"/>
      </g>
     </g>
    </g>
    <g id="xtick_5">
     <g id="line2d_5"/>
     <g id="text_5">
      <!-- Month 5 -->
      <g transform="translate(283.5974 136.903) scale(0.1 -0.1)">
       <defs>
        <path id="Poppins-Regular-35" d="M 3347 4122
L 1101 4122
L 1101 2662
Q 1248 2867 1536 2998
Q 1824 3130 2157 3130
Q 2688 3130 3021 2909
Q 3354 2688 3498 2339
Q 3642 1990 3642 1600
Q 3642 1139 3469 774
Q 3296 410 2941 198
Q 2586 -13 2061 -13
Q 1389 -13 973 332
Q 557 678 467 1254
L 1037 1254
Q 1120 890 1389 685
Q 1658 480 2067 480
Q 2573 480 2829 784
Q 3085 1088 3085 1587
Q 3085 2086 2829 2358
Q 2573 2630 2074 2630
Q 1734 2630 1481 2467
Q 1229 2304 1114 2022
L 563 2022
L 563 4634
L 3347 4634
L 3347 4122
z
" transform="scale(0.015625)"/>
       </defs>
       <use xlink:href="#Poppins-Regular-4d"/>
       <use xlink:href="#Poppins-Regular-6f" transform="translate(86.099991 0)"/>
       <use xlink:href="#Poppins-Regular-6e" transform="translate(150.099976 0)"/>
       <use xlink:href="#Poppins-Regular-74" transform="translate(214.09996 0)"/>
       <use xlink:href="#Poppins-Regular-68" transform="translate(250.499954 0)"/>
       <use xlink:href="#Poppins-Regular-20" transform="translate(314.499939 0)"/>
       <use xlink:href="#Poppins-Regular-35" transform="translate(341.199936 0)"/>
      </g>
     </g>
    </g>
    <g id="xtick_6">
     <g id="line2d_6"/>
     <g id="text_6">
      <!-- Month 6 -->
      <g transform="translate(343.503444 136.903) scale(0.1 -0.1)">
       <defs>
        <path id="Poppins-Regular-36" d="M 2976 3526
Q 2835 4237 2099 4237
Q 1530 4237 1248 3798
Q 966 3360 973 2355
Q 1120 2688 1462 2877
Q 1805 3066 2227 3066
Q 2886 3066 3280 2656
Q 3674 2246 3674 1523
Q 3674 1088 3504 742
Q 3334 397 2992 192
Q 2650 -13 2163 -13
Q 1504 -13 1133 281
Q 762 576 614 1094
Q 467 1613 467 2374
Q 467 4723 2106 4723
Q 2733 4723 3091 4384
Q 3450 4045 3514 3526
L 2976 3526
z
M 2106 2573
Q 1830 2573 1587 2461
Q 1344 2349 1193 2121
Q 1043 1894 1043 1568
Q 1043 1082 1324 778
Q 1606 474 2131 474
Q 2579 474 2844 752
Q 3110 1030 3110 1504
Q 3110 2003 2854 2288
Q 2598 2573 2106 2573
z
" transform="scale(0.015625)"/>
       </defs>
       <use xlink:href="#Poppins-Regular-4d"/>
       <use xlink:href="#Poppins-Regular-6f" transform="translate(86.099991 0)"/>
       <use xlink:href="#Poppins-Regular-6e" transform="translate(150.099976 0)"/>
       <use xlink:href="#Poppins-Regular-74" transform="translate(214.09996 0)"/>
       <use xlink:href="#Poppins-Regular-68" transform="translate(250.499954 0)"/>
       <use xlink:href="#Poppins-Regular-20" transform="translate(314.499939 0)"/>
       <use xlink:href="#Poppins-Regular-36" transform="translate(341.199936 0)"/>
      </g>
     </g>
    </g>
   </g>
   <g id="matplotlib.axis_2">
    <g id="ytick_1">
     <g id="line2d_7"/>
     <g id="text_7">
      <!-- Jan -->
      <g transform="translate(9.602625 167.7007) scale(0.1 -0.1)">
       <defs>
        <path id="Poppins-Regular-4a" d="M 2739 4461
L 2739 1165
Q 2739 614 2400 284
Q 2061 -45 1504 -45
Q 941 -45 601 291
Q 262 627 262 1210
L 845 1210
Q 851 883 1014 678
Q 1178 474 1504 474
Q 1830 474 1990 669
Q 2150 864 2150 1165
L 2150 4461
L 2739 4461
z
" transform="scale(0.015625)"/>
        <path id="Poppins-Regular-61" d="M 275 1766
Q 275 2304 492 2710
Q 710 3117 1091 3341
Q 1472 3565 1939 3565
Q 2400 3565 2739 3366
Q 3078 3168 3245 2867
L 3245 3507
L 3834 3507
L 3834 0
L 3245 0
L 3245 653
Q 3072 346 2729 144
Q 2387 -58 1933 -58
Q 1466 -58 1088 172
Q 710 403 492 819
Q 275 1235 275 1766
z
M 3245 1760
Q 3245 2157 3085 2451
Q 2925 2746 2653 2902
Q 2381 3059 2054 3059
Q 1728 3059 1459 2905
Q 1190 2752 1030 2457
Q 870 2163 870 1766
Q 870 1363 1030 1065
Q 1190 768 1459 611
Q 1728 454 2054 454
Q 2381 454 2653 611
Q 2925 768 3085 1065
Q 3245 1363 3245 1760
z
" transform="scale(0.015625)"/>
       </defs>
       <use xlink:href="#Poppins-Regular-4a"/>
       <use xlink:href="#Poppins-Regular-61" transform="translate(52.999985 0)"/>
       <use xlink:href="#Poppins-Regular-6e" transform="translate(120.599976 0)"/>
      </g>
     </g>
    </g>
    <g id="ytick_2">
     <g id="line2d_8"/>
     <g id="text_8">
      <!-- Feb -->
      <g transform="translate(10.062 204.6961) scale(0.1 -0.1)">
       <defs>
        <path id="Poppins-Regular-46" d="M 3014 4461
L 3014 3987
L 1075 3987
L 1075 2483
L 2650 2483
L 2650 2010
L 1075 2010
L 1075 0
L 493 0
L 493 4461
L 3014 4461
z
" transform="scale(0.015625)"/>
        <path id="Poppins-Regular-65" d="M 3693 1888
Q 3693 1722 3674 1536
L 870 1536
Q 902 1018 1225 726
Q 1549 435 2010 435
Q 2387 435 2640 611
Q 2893 787 2995 1082
L 3622 1082
Q 3482 576 3059 259
Q 2637 -58 2010 -58
Q 1510 -58 1116 166
Q 723 390 499 803
Q 275 1216 275 1760
Q 275 2304 492 2713
Q 710 3123 1104 3344
Q 1498 3565 2010 3565
Q 2509 3565 2893 3347
Q 3277 3130 3485 2749
Q 3693 2368 3693 1888
z
M 3091 2010
Q 3091 2342 2944 2582
Q 2797 2822 2544 2947
Q 2291 3072 1984 3072
Q 1542 3072 1232 2790
Q 922 2509 877 2010
L 3091 2010
z
" transform="scale(0.015625)"/>
        <path id="Poppins-Regular-62" d="M 1075 2854
Q 1254 3168 1600 3366
Q 1946 3565 2387 3565
Q 2861 3565 3238 3341
Q 3616 3117 3833 2710
Q 4051 2304 4051 1766
Q 4051 1235 3833 819
Q 3616 403 3235 172
Q 2854 -58 2387 -58
Q 1933 -58 1590 140
Q 1248 339 1075 646
L 1075 0
L 493 0
L 493 4736
L 1075 4736
L 1075 2854
z
M 3456 1766
Q 3456 2163 3296 2457
Q 3136 2752 2864 2905
Q 2592 3059 2266 3059
Q 1946 3059 1674 2902
Q 1402 2746 1238 2448
Q 1075 2150 1075 1760
Q 1075 1363 1238 1065
Q 1402 768 1674 611
Q 1946 454 2266 454
Q 2592 454 2864 611
Q 3136 768 3296 1065
Q 3456 1363 3456 1766
z
" transform="scale(0.015625)"/>
       </defs>
       <use xlink:href="#Poppins-Regular-46"/>
       <use xlink:href="#Poppins-Regular-65" transform="translate(50.399994 0)"/>
       <use xlink:href="#Poppins-Regular-62" transform="translate(112.399979 0)"/>
      </g>
     </g>
    </g>
    <g id="ytick_3">
     <g id="line2d_9"/>
     <g id="text_9">
      <!-- Mar -->
      <g transform="translate(8.963562 241.6915) scale(0.1 -0.1)">
       <defs>
        <path id="Poppins-Regular-72" d="M 1075 2938
Q 1229 3238 1513 3404
Q 1798 3571 2208 3571
L 2208 2970
L 2054 2970
Q 1075 2970 1075 1907
L 1075 0
L 493 0
L 493 3507
L 1075 3507
L 1075 2938
z
" transform="scale(0.015625)"/>
       </defs>
       <use xlink:href="#Poppins-Regular-4d"/>
       <use xlink:href="#Poppins-Regular-61" transform="translate(86.099991 0)"/>
       <use xlink:href="#Poppins-Regular-72" transform="translate(153.699982 0)"/>
      </g>
     </g>
    </g>
    <g id="ytick_4">
     <g id="line2d_10"/>
     <g id="text_10">
      <!-- Apr -->
      <g transform="translate(10.832312 278.6869) scale(0.1 -0.1)">
       <defs>
        <path id="Poppins-Regular-41" d="M 3130 992
L 1184 992
L 826 0
L 211 0
L 1824 4435
L 2496 4435
L 4102 0
L 3488 0
L 3130 992
z
M 2963 1466
L 2157 3718
L 1350 1466
L 2963 1466
z
" transform="scale(0.015625)"/>
        <path id="Poppins-Regular-70" d="M 1075 2861
Q 1248 3162 1590 3363
Q 1933 3565 2387 3565
Q 2854 3565 3235 3341
Q 3616 3117 3833 2710
Q 4051 2304 4051 1766
Q 4051 1235 3833 819
Q 3616 403 3235 172
Q 2854 -58 2387 -58
Q 1939 -58 1596 144
Q 1254 346 1075 646
L 1075 -1664
L 493 -1664
L 493 3507
L 1075 3507
L 1075 2861
z
M 3456 1766
Q 3456 2163 3296 2457
Q 3136 2752 2864 2905
Q 2592 3059 2266 3059
Q 1946 3059 1674 2902
Q 1402 2746 1238 2448
Q 1075 2150 1075 1760
Q 1075 1363 1238 1065
Q 1402 768 1674 611
Q 1946 454 2266 454
Q 2592 454 2864 611
Q 3136 768 3296 1065
Q 3456 1363 3456 1766
z
" transform="scale(0.015625)"/>
       </defs>
       <use xlink:href="#Poppins-Regular-41"/>
       <use xlink:href="#Poppins-Regular-70" transform="translate(67.399994 0)"/>
       <use xlink:href="#Poppins-Regular-72" transform="translate(134.999985 0)"/>
      </g>
     </g>
    </g>
    <g id="ytick_5">
     <g id="line2d_11"/>
     <g id="text_11">
      <!-- May -->
      <g transform="translate(7.063562 315.6823) scale(0.1 -0.1)">
       <defs>
        <path id="Poppins-Regular-79" d="M 3514 3507
L 1402 -1651
L 800 -1651
L 1491 38
L 77 3507
L 723 3507
L 1824 666
L 2912 3507
L 3514 3507
z
" transform="scale(0.015625)"/>
       </defs>
       <use xlink:href="#Poppins-Regular-4d"/>
       <use xlink:href="#Poppins-Regular-61" transform="translate(86.099991 0)"/>
       <use xlink:href="#Poppins-Regular-79" transform="translate(153.699982 0)"/>
      </g>
     </g>
    </g>
   </g>
   <g id="patch_3">
    <path d="M 34.062 147.35277
L 34.107532 147.031561
L 34.242745 146.720111
L 34.46353 146.427885
L 34.763179 146.163761
L 35.132587 145.935764
L 35.56053 145.750822
L 36.034005 145.614555
L 36.538626 145.531102
L 37.05906 145.503
L 91.00614 145.503
L 91.526574 145.531102
L 92.031195 145.614555
L 92.50467 145.750822
L 92.932613 145.935764
L 93.302021 146.163761
L 93.60167 146.427885
L 93.822455 146.720111
L 93.957668 147.031561
L 94.0032 147.35277
L 94.0032 180.64863
L 93.957668 180.969839
L 93.822455 181.281289
L 93.60167 181.573515
L 93.302021 181.837639
L 92.932613 182.065636
L 92.50467 182.250578
L 92.031195 182.386845
L 91.526574 182.470298
L 91.00614 182.4984
L 37.05906 182.4984
L 36.538626 182.470298
L 36.034005 182.386845
L 35.56053 182.250578
L 35.132587 182.065636
L 34.763179 181.837639
L 34.46353 181.573515
L 34.242745 181.281289
L 34.107532 180.969839
L 34.062 180.64863
z
" clip-path="url(#p9cbc1f8236)" style="fill: #052e16; stroke: #ffffff; stroke-width: 3; stroke-linejoin: miter"/>
   </g>
   <g id="patch_4">
    <path d="M 94.0032 147.35277
L 94.048732 147.031561
L 94.183945 146.720111
L 94.40473 146.427885
L 94.704379 146.163761
L 95.073787 145.935764
L 95.50173 145.750822
L 95.975205 145.614555
L 96.479826 145.531102
L 97.00026 145.503
L 150.94734 145.503
L 151.467774 145.531102
L 151.972395 145.614555
L 152.44587 145.750822
L 152.873813 145.935764
L 153.243221 146.163761
L 153.54287 146.427885
L 153.763655 146.720111
L 153.898868 147.031561
L 153.9444 147.35277
L 153.9444 180.64863
L 153.898868 180.969839
L 153.763655 181.281289
L 153.54287 181.573515
L 153.243221 181.837639
L 152.873813 182.065636
L 152.44587 182.250578
L 151.972395 182.386845
L 151.467774 182.470298
L 150.94734 182.4984
L 97.00026 182.4984
L 96.479826 182.470298
L 95.975205 182.386845
L 95.50173 182.250578
L 95.073787 182.065636
L 94.704379 181.837639
L 94.40473 181.573515
L 94.183945 181.281289
L 94.048732 180.969839
L 94.0032 180.64863
z
" clip-path="url(#p9cbc1f8236)" style="fill: #22c55e; stroke: #ffffff; stroke-width: 3; stroke-linejoin: miter"/>
   </g>
   <g id="patch_5">
    <path d="M 153.9444 147.35277
L 153.989932 147.031561
L 154.125145 146.720111
L 154.34593 146.427885
L 154.645579 146.163761
L 155.014987 145.935764
L 155.44293 145.750822
L 155.916405 145.614555
L 156.421026 145.531102
L 156.94146 145.503
L 210.88854 145.503
L 211.408974 145.531102
L 211.913595 145.614555
L 212.38707 145.750822
L 212.815013 145.935764
L 213.184421 146.163761
L 213.48407 146.427885
L 213.704855 146.720111
L 213.840068 147.031561
L 213.8856 147.35277
L 213.8856 180.64863
L 213.840068 180.969839
L 213.704855 181.281289
L 213.48407 181.573515
L 213.184421 181.837639
L 212.815013 182.065636
L 212.38707 182.250578
L 211.913595 182.386845
L 211.408974 182.470298
L 210.88854 182.4984
L 156.94146 182.4984
L 156.421026 182.470298
L 155.916405 182.386845
L 155.44293 182.250578
L 155.014987 182.065636
L 154.645579 181.837639
L 154.34593 181.573515
L 154.125145 181.281289
L 153.989932 180.969839
L 153.9444 180.64863
z
" clip-path="url(#p9cbc1f8236)" style="fill: #86efac; stroke: #ffffff; stroke-width: 3; stroke-linejoin: miter"/>
   </g>
   <g id="patch_6">
    <path d="M 213.8856 147.35277
L 213.931132 147.031561
L 214.066345 146.720111
L 214.28713 146.427885
L 214.586779 146.163761
L 214.956187 145.935764
L 215.38413 145.750822
L 215.857605 145.614555
L 216.362226 145.531102
L 216.88266 145.503
L 270.82974 145.503
L 271.350174 145.531102
L 271.854795 145.614555
L 272.32827 145.750822
L 272.756213 145.935764
L 273.125621 146.163761
L 273.42527 146.427885
L 273.646055 146.720111
L 273.781268 147.031561
L 273.8268 147.35277
L 273.8268 180.64863
L 273.781268 180.969839
L 273.646055 181.281289
L 273.42527 181.573515
L 273.125621 181.837639
L 272.756213 182.065636
L 272.32827 182.250578
L 271.854795 182.386845
L 271.350174 182.470298
L 270.82974 182.4984
L 216.88266 182.4984
L 216.362226 182.470298
L 215.857605 182.386845
L 215.38413 182.250578
L 214.956187 182.065636
L 214.586779 181.837639
L 214.28713 181.573515
L 214.066345 181.281289
L 213.931132 180.969839
L 213.8856 180.64863
z
" clip-path="url(#p9cbc1f8236)" style="fill: #f0fdf4; stroke: #ffffff; stroke-width: 3; stroke-linejoin: miter"/>
   </g>
   <g id="patch_7">
    <path d="M 273.8268 147.35277
L 273.872332 147.031561
L 274.007545 146.720111
L 274.22833 146.427885
L 274.527979 146.163761
L 274.897387 145.935764
L 275.32533 145.750822
L 275.798805 145.614555
L 276.303426 145.531102
L 276.82386 145.503
L 330.77094 145.503
L 331.291374 145.531102
L 331.795995 145.614555
L 332.26947 145.750822
L 332.697413 145.935764
L 333.066821 146.163761
L 333.36647 146.427885
L 333.587255 146.720111
L 333.722468 147.031561
L 333.768 147.35277
L 333.768 180.64863
L 333.722468 180.969839
L 333.587255 181.281289
L 333.36647 181.573515
L 333.066821 181.837639
L 332.697413 182.065636
L 332.26947 182.250578
L 331.795995 182.386845
L 331.291374 182.470298
L 330.77094 182.4984
L 276.82386 182.4984
L 276.303426 182.470298
L 275.798805 182.386845
L 275.32533 182.250578
L 274.897387 182.065636
L 274.527979 181.837639
L 274.22833 181.573515
L 274.007545 181.281289
L 273.872332 180.969839
L 273.8268 180.64863
z
" clip-path="url(#p9cbc1f8236)" style="fill: #f0fdf4; stroke: #ffffff; stroke-width: 3; stroke-linejoin: miter"/>
   </g>
   <g id="patch_8">
    <path d="M 333.768 147.35277
L 333.813532 147.031561
L 333.948745 146.720111
L 334.16953 146.427885
L 334.469179 146.163761
L 334.838587 145.935764
L 335.26653 145.750822
L 335.740005 145.614555
L 336.244626 145.531102
L 336.76506 145.503
L 390.71214 145.503
L 391.232574 145.531102
L 391.737195 145.614555
L 392.21067 145.750822
L 392.638613 145.935764
L 393.008021 146.163761
L 393.30767 146.427885
L 393.528455 146.720111
L 393.663668 147.031561
L 393.7092 147.35277
L 393.7092 180.64863
L 393.663668 180.969839
L 393.528455 181.281289
L 393.30767 181.573515
L 393.008021 181.837639
L 392.638613 182.065636
L 392.21067 182.250578
L 391.737195 182.386845
L 391.232574 182.470298
L 390.71214 182.4984
L 336.76506 182.4984
L 336.244626 182.470298
L 335.740005 182.386845
L 335.26653 182.250578
L 334.838587 182.065636
L 334.469179 181.837639
L 334.16953 181.573515
L 333.948745 181.281289
L 333.813532 180.969839
L 333.768 180.64863
z
" clip-path="url(#p9cbc1f8236)" style="fill: #f0fdf4; stroke: #ffffff; stroke-width: 3; stroke-linejoin: miter"/>
   </g>
   <g id="patch_9">
    <path d="M 34.062 184.34817
L 34.107532 184.026961
L 34.242745 183.715511
L 34.46353 183.423285
L 34.763179 183.159161
L 35.132587 182.931164
L 35.56053 182.746222
L 36.034005 182.609955
L 36.538626 182.526502
L 37.05906 182.4984
L 91.00614 182.4984
L 91.526574 182.526502
L 92.031195 182.609955
L 92.50467 182.746222
L 92.932613 182.931164
L 93.302021 183.159161
L 93.60167 183.423285
L 93.822455 183.715511
L 93.957668 184.026961
L 94.0032 184.34817
L 94.0032 217.64403
L 93.957668 217.965239
L 93.822455 218.276689
L 93.60167 218.568915
L 93.302021 218.833039
L 92.932613 219.061036
L 92.50467 219.245978
L 92.031195 219.382245
L 91.526574 219.465698
L 91.00614 219.4938
L 37.05906 219.4938
L 36.538626 219.465698
L 36.034005 219.382245
L 35.56053 219.245978
L 35.132587 219.061036
L 34.763179 218.833039
L 34.46353 218.568915
L 34.242745 218.276689
L 34.107532 217.965239
L 34.062 217.64403
z
" clip-path="url(#p9cbc1f8236)" style="fill: #052e16; stroke: #ffffff; stroke-width: 3; stroke-linejoin: miter"/>
   </g>
   <g id="patch_10">
    <path d="M 94.0032 184.34817
L 94.048732 184.026961
L 94.183945 183.715511
L 94.40473 183.423285
L 94.704379 183.159161
L 95.073787 182.931164
L 95.50173 182.746222
L 95.975205 182.609955
L 96.479826 182.526502
L 97.00026 182.4984
L 150.94734 182.4984
L 151.467774 182.526502
L 151.972395 182.609955
L 152.44587 182.746222
L 152.873813 182.931164
L 153.243221 183.159161
L 153.54287 183.423285
L 153.763655 183.715511
L 153.898868 184.026961
L 153.9444 184.34817
L 153.9444 217.64403
L 153.898868 217.965239
L 153.763655 218.276689
L 153.54287 218.568915
L 153.243221 218.833039
L 152.873813 219.061036
L 152.44587 219.245978
L 151.972395 219.382245
L 151.467774 219.465698
L 150.94734 219.4938
L 97.00026 219.4938
L 96.479826 219.465698
L 95.975205 219.382245
L 95.50173 219.245978
L 95.073787 219.061036
L 94.704379 218.833039
L 94.40473 218.568915
L 94.183945 218.276689
L 94.048732 217.965239
L 94.0032 217.64403
z
" clip-path="url(#p9cbc1f8236)" style="fill: #15803d; stroke: #ffffff; stroke-width: 3; stroke-linejoin: miter"/>
   </g>
   <g id="patch_11">
    <path d="M 153.9444 184.34817
L 153.989932 184.026961
L 154.125145 183.715511
L 154.34593 183.423285
L 154.645579 183.159161
L 155.014987 182.931164
L 155.44293 182.746222
L 155.916405 182.609955
L 156.421026 182.526502
L 156.94146 182.4984
L 210.88854 182.4984
L 211.408974 182.526502
L 211.913595 182.609955
L 212.38707 182.746222
L 212.815013 182.931164
L 213.184421 183.159161
L 213.48407 183.423285
L 213.704855 183.715511
L 213.840068 184.026961
L 213.8856 184.34817
L 213.8856 217.64403
L 213.840068 217.965239
L 213.704855 218.276689
L 213.48407 218.568915
L 213.184421 218.833039
L 212.815013 219.061036
L 212.38707 219.245978
L 211.913595 219.382245
L 211.408974 219.465698
L 210.88854 219.4938
L 156.94146 219.4938
L 156.421026 219.465698
L 155.916405 219.382245
L 155.44293 219.245978
L 155.014987 219.061036
L 154.645579 218.833039
L 154.34593 218.568915
L 154.125145 218.276689
L 153.989932 217.965239
L 153.9444 217.64403
z
" clip-path="url(#p9cbc1f8236)" style="fill: #22c55e; stroke: #ffffff; stroke-width: 3; stroke-linejoin: miter"/>
   </g>
   <g id="patch_12">
    <path d="M 213.8856 184.34817
L 213.931132 184.026961
L 214.066345 183.715511
L 214.28713 183.423285
L 214.586779 183.159161
L 214.956187 182.931164
L 215.38413 182.746222
L 215.857605 182.609955
L 216.362226 182.526502
L 216.88266 182.4984
L 270.82974 182.4984
L 271.350174 182.526502
L 271.854795 182.609955
L 272.32827 182.746222
L 272.756213 182.931164
L 273.125621 183.159161
L 273.42527 183.423285
L 273.646055 183.715511
L 273.781268 184.026961
L 273.8268 184.34817
L 273.8268 217.64403
L 273.781268 217.965239
L 273.646055 218.276689
L 273.42527 218.568915
L 273.125621 218.833039
L 272.756213 219.061036
L 272.32827 219.245978
L 271.854795 219.382245
L 271.350174 219.465698
L 270.82974 219.4938
L 216.88266 219.4938
L 216.362226 219.465698
L 215.857605 219.382245
L 215.38413 219.245978
L 214.956187 219.061036
L 214.586779 218.833039
L 214.28713 218.568915
L 214.066345 218.276689
L 213.931132 217.965239
L 213.8856 217.64403
z
" clip-path="url(#p9cbc1f8236)" style="fill: #86efac; stroke: #ffffff; stroke-width: 3; stroke-linejoin: miter"/>
   </g>
   <g id="patch_13">
    <path d="M 273.8268 184.34817
L 273.872332 184.026961
L 274.007545 183.715511
L 274.22833 183.423285
L 274.527979 183.159161
L 274.897387 182.931164
L 275.32533 182.746222
L 275.798805 182.609955
L 276.303426 182.526502
L 276.82386 182.4984
L 330.77094 182.4984
L 331.291374 182.526502
L 331.795995 182.609955
L 332.26947 182.746222
L 332.697413 182.931164
L 333.066821 183.159161
L 333.36647 183.423285
L 333.587255 183.715511
L 333.722468 184.026961
L 333.768 184.34817
L 333.768 217.64403
L 333.722468 217.965239
L 333.587255 218.276689
L 333.36647 218.568915
L 333.066821 218.833039
L 332.697413 219.061036
L 332.26947 219.245978
L 331.795995 219.382245
L 331.291374 219.465698
L 330.77094 219.4938
L 276.82386 219.4938
L 276.303426 219.465698
L 275.798805 219.382245
L 275.32533 219.245978
L 274.897387 219.061036
L 274.527979 218.833039
L 274.22833 218.568915
L 274.007545 218.276689
L 273.872332 217.965239
L 273.8268 217.64403
z
" clip-path="url(#p9cbc1f8236)" style="fill: #f0fdf4; stroke: #ffffff; stroke-width: 3; stroke-linejoin: miter"/>
   </g>
   <g id="patch_14">
    <path d="M 34.062 221.34357
L 34.107532 221.022361
L 34.242745 220.710911
L 34.46353 220.418685
L 34.763179 220.154561
L 35.132587 219.926564
L 35.56053 219.741622
L 36.034005 219.605355
L 36.538626 219.521902
L 37.05906 219.4938
L 91.00614 219.4938
L 91.526574 219.521902
L 92.031195 219.605355
L 92.50467 219.741622
L 92.932613 219.926564
L 93.302021 220.154561
L 93.60167 220.418685
L 93.822455 220.710911
L 93.957668 221.022361
L 94.0032 221.34357
L 94.0032 254.63943
L 93.957668 254.960639
L 93.822455 255.272089
L 93.60167 255.564315
L 93.302021 255.828439
L 92.932613 256.056436
L 92.50467 256.241378
L 92.031195 256.377645
L 91.526574 256.461098
L 91.00614 256.4892
L 37.05906 256.4892
L 36.538626 256.461098
L 36.034005 256.377645
L 35.56053 256.241378
L 35.132587 256.056436
L 34.763179 255.828439
L 34.46353 255.564315
L 34.242745 255.272089
L 34.107532 254.960639
L 34.062 254.63943
z
" clip-path="url(#p9cbc1f8236)" style="fill: #052e16; stroke: #ffffff; stroke-width: 3; stroke-linejoin: miter"/>
   </g>
   <g id="patch_15">
    <path d="M 94.0032 221.34357
L 94.048732 221.022361
L 94.183945 220.710911
L 94.40473 220.418685
L 94.704379 220.154561
L 95.073787 219.926564
L 95.50173 219.741622
L 95.975205 219.605355
L 96.479826 219.521902
L 97.00026 219.4938
L 150.94734 219.4938
L 151.467774 219.521902
L 151.972395 219.605355
L 152.44587 219.741622
L 152.873813 219.926564
L 153.243221 220.154561
L 153.54287 220.418685
L 153.763655 220.710911
L 153.898868 221.022361
L 153.9444 221.34357
L 153.9444 254.63943
L 153.898868 254.960639
L 153.763655 255.272089
L 153.54287 255.564315
L 153.243221 255.828439
L 152.873813 256.056436
L 152.44587 256.241378
L 151.972395 256.377645
L 151.467774 256.461098
L 150.94734 256.4892
L 97.00026 256.4892
L 96.479826 256.461098
L 95.975205 256.377645
L 95.50173 256.241378
L 95.073787 256.056436
L 94.704379 255.828439
L 94.40473 255.564315
L 94.183945 255.272089
L 94.048732 254.960639
L 94.0032 254.63943
z
" clip-path="url(#p9cbc1f8236)" style="fill: #15803d; stroke: #ffffff; stroke-width: 3; stroke-linejoin: miter"/>
   </g>
   <g id="patch_16">
    <path d="M 153.9444 221.34357
L 153.989932 221.022361
L 154.125145 220.710911
L 154.34593 220.418685
L 154.645579 220.154561
L 155.014987 219.926564
L 155.44293 219.741622
L 155.916405 219.605355
L 156.421026 219.521902
L 156.94146 219.4938
L 210.88854 219.4938
L 211.408974 219.521902
L 211.913595 219.605355
L 212.38707 219.741622
L 212.815013 219.926564
L 213.184421 220.154561
L 213.48407 220.418685
L 213.704855 220.710911
L 213.840068 221.022361
L 213.8856 221.34357
L 213.8856 254.63943
L 213.840068 254.960639
L 213.704855 255.272089
L 213.48407 255.564315
L 213.184421 255.828439
L 212.815013 256.056436
L 212.38707 256.241378
L 211.913595 256.377645
L 211.408974 256.461098
L 210.88854 256.4892
L 156.94146 256.4892
L 156.421026 256.461098
L 155.916405 256.377645
L 155.44293 256.241378
L 155.014987 256.056436
L 154.645579 255.828439
L 154.34593 255.564315
L 154.125145 255.272089
L 153.989932 254.960639
L 153.9444 254.63943
z
" clip-path="url(#p9cbc1f8236)" style="fill: #22c55e; stroke: #ffffff; stroke-width: 3; stroke-linejoin: miter"/>
   </g>
   <g id="patch_17">
    <path d="M 213.8856 221.34357
L 213.931132 221.022361
L 214.066345 220.710911
L 214.28713 220.418685
L 214.586779 220.154561
L 214.956187 219.926564
L 215.38413 219.741622
L 215.857605 219.605355
L 216.362226 219.521902
L 216.88266 219.4938
L 270.82974 219.4938
L 271.350174 219.521902
L 271.854795 219.605355
L 272.32827 219.741622
L 272.756213 219.926564
L 273.125621 220.154561
L 273.42527 220.418685
L 273.646055 220.710911
L 273.781268 221.022361
L 273.8268 221.34357
L 273.8268 254.63943
L 273.781268 254.960639
L 273.646055 255.272089
L 273.42527 255.564315
L 273.125621 255.828439
L 272.756213 256.056436
L 272.32827 256.241378
L 271.854795 256.377645
L 271.350174 256.461098
L 270.82974 256.4892
L 216.88266 256.4892
L 216.362226 256.461098
L 215.857605 256.377645
L 215.38413 256.241378
L 214.956187 256.056436
L 214.586779 255.828439
L 214.28713 255.564315
L 214.066345 255.272089
L 213.931132 254.960639
L 213.8856 254.63943
z
" clip-path="url(#p9cbc1f8236)" style="fill: #86efac; stroke: #ffffff; stroke-width: 3; stroke-linejoin: miter"/>
   </g>
   <g id="patch_18">
    <path d="M 34.062 258.33897
L 34.107532 258.017761
L 34.242745 257.706311
L 34.46353 257.414085
L 34.763179 257.149961
L 35.132587 256.921964
L 35.56053 256.737022
L 36.034005 256.600755
L 36.538626 256.517302
L 37.05906 256.4892
L 91.00614 256.4892
L 91.526574 256.517302
L 92.031195 256.600755
L 92.50467 256.737022
L 92.932613 256.921964
L 93.302021 257.149961
L 93.60167 257.414085
L 93.822455 257.706311
L 93.957668 258.017761
L 94.0032 258.33897
L 94.0032 291.63483
L 93.957668 291.956039
L 93.822455 292.267489
L 93.60167 292.559715
L 93.302021 292.823839
L 92.932613 293.051836
L 92.50467 293.236778
L 92.031195 293.373045
L 91.526574 293.456498
L 91.00614 293.4846
L 37.05906 293.4846
L 36.538626 293.456498
L 36.034005 293.373045
L 35.56053 293.236778
L 35.132587 293.051836
L 34.763179 292.823839
L 34.46353 292.559715
L 34.242745 292.267489
L 34.107532 291.956039
L 34.062 291.63483
z
" clip-path="url(#p9cbc1f8236)" style="fill: #052e16; stroke: #ffffff; stroke-width: 3; stroke-linejoin: miter"/>
   </g>
   <g id="patch_19">
    <path d="M 94.0032 258.33897
L 94.048732 258.017761
L 94.183945 257.706311
L 94.40473 257.414085
L 94.704379 257.149961
L 95.073787 256.921964
L 95.50173 256.737022
L 95.975205 256.600755
L 96.479826 256.517302
L 97.00026 256.4892
L 150.94734 256.4892
L 151.467774 256.517302
L 151.972395 256.600755
L 152.44587 256.737022
L 152.873813 256.921964
L 153.243221 257.149961
L 153.54287 257.414085
L 153.763655 257.706311
L 153.898868 258.017761
L 153.9444 258.33897
L 153.9444 291.63483
L 153.898868 291.956039
L 153.763655 292.267489
L 153.54287 292.559715
L 153.243221 292.823839
L 152.873813 293.051836
L 152.44587 293.236778
L 151.972395 293.373045
L 151.467774 293.456498
L 150.94734 293.4846
L 97.00026 293.4846
L 96.479826 293.456498
L 95.975205 293.373045
L 95.50173 293.236778
L 95.073787 293.051836
L 94.704379 292.823839
L 94.40473 292.559715
L 94.183945 292.267489
L 94.048732 291.956039
L 94.0032 291.63483
z
" clip-path="url(#p9cbc1f8236)" style="fill: #22c55e; stroke: #ffffff; stroke-width: 3; stroke-linejoin: miter"/>
   </g>
   <g id="patch_20">
    <path d="M 153.9444 258.33897
L 153.989932 258.017761
L 154.125145 257.706311
L 154.34593 257.414085
L 154.645579 257.149961
L 155.014987 256.921964
L 155.44293 256.737022
L 155.916405 256.600755
L 156.421026 256.517302
L 156.94146 256.4892
L 210.88854 256.4892
L 211.408974 256.517302
L 211.913595 256.600755
L 212.38707 256.737022
L 212.815013 256.921964
L 213.184421 257.149961
L 213.48407 257.414085
L 213.704855 257.706311
L 213.840068 258.017761
L 213.8856 258.33897
L 213.8856 291.63483
L 213.840068 291.956039
L 213.704855 292.267489
L 213.48407 292.559715
L 213.184421 292.823839
L 212.815013 293.051836
L 212.38707 293.236778
L 211.913595 293.373045
L 211.408974 293.456498
L 210.88854 293.4846
L 156.94146 293.4846
L 156.421026 293.456498
L 155.916405 293.373045
L 155.44293 293.236778
L 155.014987 293.051836
L 154.645579 292.823839
L 154.34593 292.559715
L 154.125145 292.267489
L 153.989932 291.956039
L 153.9444 291.63483
z
" clip-path="url(#p9cbc1f8236)" style="fill: #86efac; stroke: #ffffff; stroke-width: 3; stroke-linejoin: miter"/>
   </g>
   <g id="patch_21">
    <path d="M 34.062 295.33437
L 34.107532 295.013161
L 34.242745 294.701711
L 34.46353 294.409485
L 34.763179 294.145361
L 35.132587 293.917364
L 35.56053 293.732422
L 36.034005 293.596155
L 36.538626 293.512702
L 37.05906 293.4846
L 91.00614 293.4846
L 91.526574 293.512702
L 92.031195 293.596155
L 92.50467 293.732422
L 92.932613 293.917364
L 93.302021 294.145361
L 93.60167 294.409485
L 93.822455 294.701711
L 93.957668 295.013161
L 94.0032 295.33437
L 94.0032 328.63023
L 93.957668 328.951439
L 93.822455 329.262889
L 93.60167 329.555115
L 93.302021 329.819239
L 92.932613 330.047236
L 92.50467 330.232178
L 92.031195 330.368445
L 91.526574 330.451898
L 91.00614 330.48
L 37.05906 330.48
L 36.538626 330.451898
L 36.034005 330.368445
L 35.56053 330.232178
L 35.132587 330.047236
L 34.763179 329.819239
L 34.46353 329.555115
L 34.242745 329.262889
L 34.107532 328.951439
L 34.062 328.63023
z
" clip-path="url(#p9cbc1f8236)" style="fill: #052e16; stroke: #ffffff; stroke-width: 3; stroke-linejoin: miter"/>
   </g>
   <g id="patch_22">
    <path d="M 94.0032 295.33437
L 94.048732 295.013161
L 94.183945 294.701711
L 94.40473 294.409485
L 94.704379 294.145361
L 95.073787 293.917364
L 95.50173 293.732422
L 95.975205 293.596155
L 96.479826 293.512702
L 97.00026 293.4846
L 150.94734 293.4846
L 151.467774 293.512702
L 151.972395 293.596155
L 152.44587 293.732422
L 152.873813 293.917364
L 153.243221 294.145361
L 153.54287 294.409485
L 153.763655 294.701711
L 153.898868 295.013161
L 153.9444 295.33437
L 153.9444 328.63023
L 153.898868 328.951439
L 153.763655 329.262889
L 153.54287 329.555115
L 153.243221 329.819239
L 152.873813 330.047236
L 152.44587 330.232178
L 151.972395 330.368445
L 151.467774 330.451898
L 150.94734 330.48
L 97.00026 330.48
L 96.479826 330.451898
L 95.975205 330.368445
L 95.50173 330.232178
L 95.073787 330.047236
L 94.704379 329.819239
L 94.40473 329.555115
L 94.183945 329.262889
L 94.048732 328.951439
L 94.0032 328.63023
z
" clip-path="url(#p9cbc1f8236)" style="fill: #22c55e; stroke: #ffffff; stroke-width: 3; stroke-linejoin: miter"/>
   </g>
   <g id="text_12">
    <!-- 100% -->
    <g style="fill: #ffffff" transform="translate(51.902912 167.7007) scale(0.1 -0.1)">
     <defs>
      <path id="Poppins-Medium-31" d="M 288 4000
L 288 4666
L 1619 4666
L 1619 0
L 883 0
L 883 4000
L 288 4000
z
" transform="scale(0.015625)"/>
      <path id="Poppins-Medium-30" d="M 384 2394
Q 384 3501 758 4125
Q 1133 4749 2048 4749
Q 2963 4749 3337 4125
Q 3712 3501 3712 2394
Q 3712 1274 3337 643
Q 2963 13 2048 13
Q 1133 13 758 643
Q 384 1274 384 2394
z
M 2995 2394
Q 2995 2912 2928 3270
Q 2861 3629 2656 3856
Q 2451 4083 2048 4083
Q 1645 4083 1440 3856
Q 1235 3629 1168 3270
Q 1101 2912 1101 2394
Q 1101 1856 1165 1491
Q 1229 1126 1437 902
Q 1645 678 2048 678
Q 2451 678 2659 902
Q 2867 1126 2931 1491
Q 2995 1856 2995 2394
z
" transform="scale(0.015625)"/>
      <path id="Poppins-Medium-25" d="M 269 3539
Q 269 4006 541 4272
Q 813 4538 1242 4538
Q 1670 4538 1942 4272
Q 2214 4006 2214 3539
Q 2214 3072 1942 2803
Q 1670 2534 1242 2534
Q 813 2534 541 2803
Q 269 3072 269 3539
z
M 4173 4454
L 1619 0
L 902 0
L 3456 4454
L 4173 4454
z
M 1242 4096
Q 838 4096 838 3539
Q 838 2976 1242 2976
Q 1434 2976 1539 3113
Q 1645 3251 1645 3539
Q 1645 4096 1242 4096
z
M 2874 922
Q 2874 1389 3146 1654
Q 3418 1920 3846 1920
Q 4269 1920 4541 1654
Q 4813 1389 4813 922
Q 4813 454 4541 185
Q 4269 -83 3846 -83
Q 3418 -83 3146 185
Q 2874 454 2874 922
z
M 3840 1478
Q 3437 1478 3437 922
Q 3437 365 3840 365
Q 4243 365 4243 922
Q 4243 1478 3840 1478
z
" transform="scale(0.015625)"/>
     </defs>
     <use xlink:href="#Poppins-Medium-31"/>
     <use xlink:href="#Poppins-Medium-30" transform="translate(34.999985 0)"/>
     <use xlink:href="#Poppins-Medium-30" transform="translate(99.099976 0)"/>
     <use xlink:href="#Poppins-Medium-25" transform="translate(163.199966 0)"/>
    </g>
   </g>
   <g id="text_13">
    <!-- 68% -->
    <g style="fill: #ffffff" transform="translate(113.603488 167.7007) scale(0.1 -0.1)">
     <defs>
      <path id="Poppins-Medium-36" d="M 2893 3584
Q 2822 3878 2636 4025
Q 2451 4173 2118 4173
Q 1613 4173 1363 3785
Q 1114 3398 1101 2502
Q 1267 2784 1587 2937
Q 1907 3091 2278 3091
Q 2701 3091 3024 2908
Q 3347 2726 3529 2380
Q 3712 2035 3712 1555
Q 3712 1107 3536 755
Q 3360 403 3014 201
Q 2669 0 2182 0
Q 1523 0 1148 291
Q 774 582 624 1113
Q 474 1645 474 2438
Q 474 4781 2125 4781
Q 2765 4781 3133 4435
Q 3501 4090 3565 3584
L 2893 3584
z
M 2118 2477
Q 1728 2477 1456 2243
Q 1184 2010 1184 1568
Q 1184 1126 1437 867
Q 1690 608 2144 608
Q 2547 608 2780 857
Q 3014 1107 3014 1523
Q 3014 1958 2787 2217
Q 2560 2477 2118 2477
z
" transform="scale(0.015625)"/>
      <path id="Poppins-Medium-38" d="M 1171 2438
Q 506 2771 506 3488
Q 506 3834 678 4122
Q 851 4410 1196 4579
Q 1542 4749 2042 4749
Q 2534 4749 2883 4579
Q 3232 4410 3405 4122
Q 3578 3834 3578 3488
Q 3578 3130 3395 2858
Q 3213 2586 2912 2438
Q 3277 2304 3488 2000
Q 3699 1696 3699 1286
Q 3699 870 3488 550
Q 3277 230 2899 57
Q 2522 -115 2042 -115
Q 1562 -115 1187 57
Q 813 230 601 550
Q 390 870 390 1286
Q 390 1702 601 2003
Q 813 2304 1171 2438
z
M 2880 3398
Q 2880 3757 2656 3949
Q 2432 4141 2042 4141
Q 1658 4141 1434 3949
Q 1210 3757 1210 3392
Q 1210 3072 1443 2870
Q 1677 2669 2042 2669
Q 2406 2669 2643 2873
Q 2880 3078 2880 3398
z
M 2042 2118
Q 1619 2118 1353 1910
Q 1088 1702 1088 1312
Q 1088 947 1344 720
Q 1600 493 2042 493
Q 2477 493 2729 723
Q 2982 954 2982 1312
Q 2982 1696 2723 1907
Q 2464 2118 2042 2118
z
" transform="scale(0.015625)"/>
     </defs>
     <use xlink:href="#Poppins-Medium-36"/>
     <use xlink:href="#Poppins-Medium-38" transform="translate(64.199997 0)"/>
     <use xlink:href="#Poppins-Medium-25" transform="translate(127.999985 0)"/>
    </g>
   </g>
   <g id="text_14">
    <!-- 52% -->
    <g transform="translate(173.864219 167.7007) scale(0.1 -0.1)">
     <defs>
      <path id="Poppins-Medium-35" d="M 3392 4038
L 1248 4038
L 1248 2765
Q 1382 2944 1648 3065
Q 1914 3187 2214 3187
Q 2752 3187 3088 2956
Q 3424 2726 3568 2374
Q 3712 2022 3712 1632
Q 3712 1158 3529 790
Q 3347 422 2985 211
Q 2624 0 2099 0
Q 1402 0 979 345
Q 557 691 474 1261
L 1184 1261
Q 1254 960 1497 784
Q 1741 608 2106 608
Q 2560 608 2787 883
Q 3014 1158 3014 1613
Q 3014 2074 2784 2320
Q 2554 2566 2106 2566
Q 1792 2566 1577 2409
Q 1363 2253 1267 1984
L 576 1984
L 576 4678
L 3392 4678
L 3392 4038
z
" transform="scale(0.015625)"/>
      <path id="Poppins-Medium-32" d="M 787 992
Q 1402 1523 1757 1865
Q 2112 2208 2349 2579
Q 2586 2950 2586 3322
Q 2586 3706 2403 3923
Q 2221 4141 1830 4141
Q 1453 4141 1245 3901
Q 1037 3661 1024 3258
L 320 3258
Q 339 3987 758 4374
Q 1178 4762 1824 4762
Q 2522 4762 2915 4378
Q 3309 3994 3309 3354
Q 3309 2893 3075 2467
Q 2842 2042 2518 1706
Q 2195 1370 1696 928
L 1408 672
L 3437 672
L 3437 64
L 326 64
L 326 595
L 787 992
z
" transform="scale(0.015625)"/>
     </defs>
     <use xlink:href="#Poppins-Medium-35"/>
     <use xlink:href="#Poppins-Medium-32" transform="translate(63.899994 0)"/>
     <use xlink:href="#Poppins-Medium-25" transform="translate(121.599991 0)"/>
    </g>
   </g>
   <g id="text_15">
    <!-- 41% -->
    <g transform="translate(234.900731 167.7007) scale(0.1 -0.1)">
     <defs>
      <path id="Poppins-Medium-34" d="M 294 973
L 294 1523
L 2445 4608
L 3328 4608
L 3328 1606
L 3923 1606
L 3923 973
L 3328 973
L 3328 0
L 2611 0
L 2611 973
L 294 973
z
M 2643 3866
L 1133 1606
L 2643 1606
L 2643 3866
z
" transform="scale(0.015625)"/>
     </defs>
     <use xlink:href="#Poppins-Medium-34"/>
     <use xlink:href="#Poppins-Medium-31" transform="translate(64.699997 0)"/>
     <use xlink:href="#Poppins-Medium-25" transform="translate(99.699982 0)"/>
    </g>
   </g>
   <g id="text_16">
    <!-- 34% -->
    <g transform="translate(293.621619 167.7007) scale(0.1 -0.1)">
     <defs>
      <path id="Poppins-Medium-33" d="M 371 3514
Q 410 4109 829 4441
Q 1248 4774 1901 4774
Q 2349 4774 2675 4614
Q 3002 4454 3168 4179
Q 3334 3904 3334 3558
Q 3334 3162 3123 2880
Q 2912 2598 2618 2502
L 2618 2477
Q 2995 2362 3206 2058
Q 3418 1754 3418 1280
Q 3418 902 3245 608
Q 3072 314 2733 144
Q 2394 -26 1920 -26
Q 1229 -26 784 329
Q 339 685 307 1350
L 1011 1350
Q 1037 1011 1273 796
Q 1510 582 1914 582
Q 2304 582 2515 796
Q 2726 1011 2726 1350
Q 2726 1798 2441 1987
Q 2157 2176 1568 2176
L 1402 2176
L 1402 2778
L 1574 2778
Q 2093 2784 2365 2950
Q 2637 3117 2637 3475
Q 2637 3782 2438 3964
Q 2240 4147 1875 4147
Q 1517 4147 1318 3964
Q 1120 3782 1082 3514
L 371 3514
z
" transform="scale(0.015625)"/>
     </defs>
     <use xlink:href="#Poppins-Medium-33"/>
     <use xlink:href="#Poppins-Medium-34" transform="translate(59.399994 0)"/>
     <use xlink:href="#Poppins-Medium-25" transform="translate(124.099991 0)"/>
    </g>
   </g>
   <g id="text_17">
    <!-- 29% -->
    <g transform="translate(353.708131 167.7007) scale(0.1 -0.1)">
     <defs>
      <path id="Poppins-Medium-39" d="M 1293 1267
Q 1357 947 1568 780
Q 1779 614 2138 614
Q 2592 614 2803 972
Q 3014 1331 3014 2195
Q 2861 1978 2582 1859
Q 2304 1741 1978 1741
Q 1562 1741 1222 1910
Q 883 2080 688 2416
Q 493 2752 493 3232
Q 493 3936 905 4355
Q 1318 4774 2042 4774
Q 2912 4774 3280 4195
Q 3648 3616 3648 2419
Q 3648 1594 3510 1069
Q 3373 544 3033 275
Q 2694 6 2093 6
Q 1408 6 1037 364
Q 666 723 621 1267
L 1293 1267
z
M 2106 2355
Q 2490 2355 2710 2595
Q 2931 2835 2931 3232
Q 2931 3674 2697 3920
Q 2464 4166 2061 4166
Q 1658 4166 1424 3913
Q 1190 3661 1190 3251
Q 1190 2861 1417 2608
Q 1645 2355 2106 2355
z
" transform="scale(0.015625)"/>
     </defs>
     <use xlink:href="#Poppins-Medium-32"/>
     <use xlink:href="#Poppins-Medium-39" transform="translate(57.699997 0)"/>
     <use xlink:href="#Poppins-Medium-25" transform="translate(121.199982 0)"/>
    </g>
   </g>
   <g id="text_18">
    <!-- 100% -->
    <g style="fill: #ffffff" transform="translate(51.902912 204.6961) scale(0.1 -0.1)">
     <use xlink:href="#Poppins-Medium-31"/>
     <use xlink:href="#Poppins-Medium-30" transform="translate(34.999985 0)"/>
     <use xlink:href="#Poppins-Medium-30" transform="translate(99.099976 0)"/>
     <use xlink:href="#Poppins-Medium-25" transform="translate(163.199966 0)"/>
    </g>
   </g>
   <g id="text_19">
    <!-- 72% -->
    <g style="fill: #ffffff" transform="translate(114.318331 204.6961) scale(0.1 -0.1)">
     <defs>
      <path id="Poppins-Medium-37" d="M 3341 4102
L 1562 0
L 826 0
L 2624 4026
L 256 4026
L 256 4646
L 3341 4646
L 3341 4102
z
" transform="scale(0.015625)"/>
     </defs>
     <use xlink:href="#Poppins-Medium-37"/>
     <use xlink:href="#Poppins-Medium-32" transform="translate(55.999985 0)"/>
     <use xlink:href="#Poppins-Medium-25" transform="translate(113.699982 0)"/>
    </g>
   </g>
   <g id="text_20">
    <!-- 58% -->
    <g transform="translate(173.559531 204.6961) scale(0.1 -0.1)">
     <use xlink:href="#Poppins-Medium-35"/>
     <use xlink:href="#Poppins-Medium-38" transform="translate(63.899994 0)"/>
     <use xlink:href="#Poppins-Medium-25" transform="translate(127.699982 0)"/>
    </g>
   </g>
   <g id="text_21">
    <!-- 47% -->
    <g transform="translate(233.850731 204.6961) scale(0.1 -0.1)">
     <use xlink:href="#Poppins-Medium-34"/>
     <use xlink:href="#Poppins-Medium-37" transform="translate(64.699997 0)"/>
     <use xlink:href="#Poppins-Medium-25" transform="translate(120.699982 0)"/>
    </g>
   </g>
   <g id="text_22">
    <!-- 40% -->
    <g transform="translate(293.387244 204.6961) scale(0.1 -0.1)">
     <use xlink:href="#Poppins-Medium-34"/>
     <use xlink:href="#Poppins-Medium-30" transform="translate(64.699997 0)"/>
     <use xlink:href="#Poppins-Medium-25" transform="translate(128.799988 0)"/>
    </g>
   </g>
   <g id="text_23">
    <!-- 100% -->
    <g style="fill: #ffffff" transform="translate(51.902912 241.6915) scale(0.1 -0.1)">
     <use xlink:href="#Poppins-Medium-31"/>
     <use xlink:href="#Poppins-Medium-30" transform="translate(34.999985 0)"/>
     <use xlink:href="#Poppins-Medium-30" transform="translate(99.099976 0)"/>
     <use xlink:href="#Poppins-Medium-25" transform="translate(163.199966 0)"/>
    </g>
   </g>
   <g id="text_24">
    <!-- 75% -->
    <g style="fill: #ffffff" transform="translate(114.008175 241.6915) scale(0.1 -0.1)">
     <use xlink:href="#Poppins-Medium-37"/>
     <use xlink:href="#Poppins-Medium-35" transform="translate(55.999985 0)"/>
     <use xlink:href="#Poppins-Medium-25" transform="translate(119.899979 0)"/>
    </g>
   </g>
   <g id="text_25">
    <!-- 61% -->
    <g transform="translate(174.984531 241.6915) scale(0.1 -0.1)">
     <use xlink:href="#Poppins-Medium-36"/>
     <use xlink:href="#Poppins-Medium-31" transform="translate(64.199997 0)"/>
     <use xlink:href="#Poppins-Medium-25" transform="translate(99.199982 0)"/>
    </g>
   </g>
   <g id="text_26">
    <!-- 52% -->
    <g transform="translate(233.805419 241.6915) scale(0.1 -0.1)">
     <use xlink:href="#Poppins-Medium-35"/>
     <use xlink:href="#Poppins-Medium-32" transform="translate(63.899994 0)"/>
     <use xlink:href="#Poppins-Medium-25" transform="translate(121.599991 0)"/>
    </g>
   </g>
   <g id="text_27">
    <!-- 100% -->
    <g style="fill: #ffffff" transform="translate(51.902912 278.6869) scale(0.1 -0.1)">
     <use xlink:href="#Poppins-Medium-31"/>
     <use xlink:href="#Poppins-Medium-30" transform="translate(34.999985 0)"/>
     <use xlink:href="#Poppins-Medium-30" transform="translate(99.099976 0)"/>
     <use xlink:href="#Poppins-Medium-25" transform="translate(163.199966 0)"/>
    </g>
   </g>
   <g id="text_28">
    <!-- 71% -->
    <g style="fill: #ffffff" transform="translate(115.453488 278.6869) scale(0.1 -0.1)">
     <use xlink:href="#Poppins-Medium-37"/>
     <use xlink:href="#Poppins-Medium-31" transform="translate(55.999985 0)"/>
     <use xlink:href="#Poppins-Medium-25" transform="translate(90.999969 0)"/>
    </g>
   </g>
   <g id="text_29">
    <!-- 56% -->
    <g transform="translate(173.539219 278.6869) scale(0.1 -0.1)">
     <use xlink:href="#Poppins-Medium-35"/>
     <use xlink:href="#Poppins-Medium-36" transform="translate(63.899994 0)"/>
     <use xlink:href="#Poppins-Medium-25" transform="translate(128.099991 0)"/>
    </g>
   </g>
   <g id="text_30">
    <!-- 100% -->
    <g style="fill: #ffffff" transform="translate(51.902912 315.6823) scale(0.1 -0.1)">
     <use xlink:href="#Poppins-Medium-31"/>
     <use xlink:href="#Poppins-Medium-30" transform="translate(34.999985 0)"/>
     <use xlink:href="#Poppins-Medium-30" transform="translate(99.099976 0)"/>
     <use xlink:href="#Poppins-Medium-25" transform="translate(163.199966 0)"/>
    </g>
   </g>
   <g id="text_31">
    <!-- 69% -->
    <g style="fill: #ffffff" transform="translate(113.618331 315.6823) scale(0.1 -0.1)">
     <use xlink:href="#Poppins-Medium-36"/>
     <use xlink:href="#Poppins-Medium-39" transform="translate(64.199997 0)"/>
     <use xlink:href="#Poppins-Medium-25" transform="translate(127.699982 0)"/>
    </g>
   </g>
  </g>
  <g id="axes_2">
   <g id="patch_23">
    <path d="M 401.28072 202.2894
L 412.638 202.2894
L 412.638 145.503
L 401.28072 145.503
z
" style="fill: #ffffff"/>
   </g>
   <g id="QuadMesh_1">
    <path d="M 401.28072 202.2894
L 412.638 202.2894
L 412.638 190.93212
L 401.28072 190.93212
L 401.28072 202.2894
" clip-path="url(#p04d42bb2b8)" style="fill: #f0fdf4; stroke: #ffffff; stroke-width: 3"/>
    <path d="M 401.28072 190.93212
L 412.638 190.93212
L 412.638 179.57484
L 401.28072 179.57484
L 401.28072 190.93212
" clip-path="url(#p04d42bb2b8)" style="fill: #86efac; stroke: #ffffff; stroke-width: 3"/>
    <path d="M 401.28072 179.57484
L 412.638 179.57484
L 412.638 168.21756
L 401.28072 168.21756
L 401.28072 179.57484
" clip-path="url(#p04d42bb2b8)" style="fill: #22c55e; stroke: #ffffff; stroke-width: 3"/>
    <path d="M 401.28072 168.21756
L 412.638 168.21756
L 412.638 156.86028
L 401.28072 156.86028
L 401.28072 168.21756
" clip-path="url(#p04d42bb2b8)" style="fill: #15803d; stroke: #ffffff; stroke-width: 3"/>
    <path d="M 401.28072 156.86028
L 412.638 156.86028
L 412.638 145.503
L 401.28072 145.503
L 401.28072 156.86028
" clip-path="url(#p04d42bb2b8)" style="fill: #052e16; stroke: #ffffff; stroke-width: 3"/>
   </g>
   <g id="matplotlib.axis_3"/>
   <g id="matplotlib.axis_4">
    <g id="ytick_6">
     <g id="line2d_12"/>
     <g id="text_32">
      <!-- 29% -->
      <g transform="translate(416.138 206.088619) scale(0.1 -0.1)">
       <defs>
        <path id="DejaVuSans-32" d="M 1228 531
L 3431 531
L 3431 0
L 469 0
L 469 531
Q 828 903 1448 1529
Q 2069 2156 2228 2338
Q 2531 2678 2651 2914
Q 2772 3150 2772 3378
Q 2772 3750 2511 3984
Q 2250 4219 1831 4219
Q 1534 4219 1204 4116
Q 875 4013 500 3803
L 500 4441
Q 881 4594 1212 4672
Q 1544 4750 1819 4750
Q 2544 4750 2975 4387
Q 3406 4025 3406 3419
Q 3406 3131 3298 2873
Q 3191 2616 2906 2266
Q 2828 2175 2409 1742
Q 1991 1309 1228 531
z
" transform="scale(0.015625)"/>
        <path id="DejaVuSans-39" d="M 703 97
L 703 672
Q 941 559 1184 500
Q 1428 441 1663 441
Q 2288 441 2617 861
Q 2947 1281 2994 2138
Q 2813 1869 2534 1725
Q 2256 1581 1919 1581
Q 1219 1581 811 2004
Q 403 2428 403 3163
Q 403 3881 828 4315
Q 1253 4750 1959 4750
Q 2769 4750 3195 4129
Q 3622 3509 3622 2328
Q 3622 1225 3098 567
Q 2575 -91 1691 -91
Q 1453 -91 1209 -44
Q 966 3 703 97
z
M 1959 2075
Q 2384 2075 2632 2365
Q 2881 2656 2881 3163
Q 2881 3666 2632 3958
Q 2384 4250 1959 4250
Q 1534 4250 1286 3958
Q 1038 3666 1038 3163
Q 1038 2656 1286 2365
Q 1534 2075 1959 2075
z
" transform="scale(0.015625)"/>
        <path id="DejaVuSans-25" d="M 4653 2053
Q 4381 2053 4226 1822
Q 4072 1591 4072 1178
Q 4072 772 4226 539
Q 4381 306 4653 306
Q 4919 306 5073 539
Q 5228 772 5228 1178
Q 5228 1588 5073 1820
Q 4919 2053 4653 2053
z
M 4653 2450
Q 5147 2450 5437 2106
Q 5728 1763 5728 1178
Q 5728 594 5436 251
Q 5144 -91 4653 -91
Q 4153 -91 3862 251
Q 3572 594 3572 1178
Q 3572 1766 3864 2108
Q 4156 2450 4653 2450
z
M 1428 4353
Q 1159 4353 1004 4120
Q 850 3888 850 3481
Q 850 3069 1003 2837
Q 1156 2606 1428 2606
Q 1700 2606 1854 2837
Q 2009 3069 2009 3481
Q 2009 3884 1853 4118
Q 1697 4353 1428 4353
z
M 4250 4750
L 4750 4750
L 1831 -91
L 1331 -91
L 4250 4750
z
M 1428 4750
Q 1922 4750 2215 4408
Q 2509 4066 2509 3481
Q 2509 2891 2217 2550
Q 1925 2209 1428 2209
Q 931 2209 642 2551
Q 353 2894 353 3481
Q 353 4063 643 4406
Q 934 4750 1428 4750
z
" transform="scale(0.015625)"/>
       </defs>
       <use xlink:href="#DejaVuSans-32"/>
       <use xlink:href="#DejaVuSans-39" transform="translate(63.623047 0)"/>
       <use xlink:href="#DejaVuSans-25" transform="translate(127.246094 0)"/>
      </g>
     </g>
    </g>
    <g id="ytick_7">
     <g id="line2d_13"/>
     <g id="text_33">
      <!-- 100% -->
      <g transform="translate(416.138 149.302219) scale(0.1 -0.1)">
       <defs>
        <path id="DejaVuSans-31" d="M 794 531
L 1825 531
L 1825 4091
L 703 3866
L 703 4441
L 1819 4666
L 2450 4666
L 2450 531
L 3481 531
L 3481 0
L 794 0
L 794 531
z
" transform="scale(0.015625)"/>
        <path id="DejaVuSans-30" d="M 2034 4250
Q 1547 4250 1301 3770
Q 1056 3291 1056 2328
Q 1056 1369 1301 889
Q 1547 409 2034 409
Q 2525 409 2770 889
Q 3016 1369 3016 2328
Q 3016 3291 2770 3770
Q 2525 4250 2034 4250
z
M 2034 4750
Q 2819 4750 3233 4129
Q 3647 3509 3647 2328
Q 3647 1150 3233 529
Q 2819 -91 2034 -91
Q 1250 -91 836 529
Q 422 1150 422 2328
Q 422 3509 836 4129
Q 1250 4750 2034 4750
z
" transform="scale(0.015625)"/>
       </defs>
       <use xlink:href="#DejaVuSans-31"/>
       <use xlink:href="#DejaVuSans-30" transform="translate(63.623047 0)"/>
       <use xlink:href="#DejaVuSans-30" transform="translate(127.246094 0)"/>
       <use xlink:href="#DejaVuSans-25" transform="translate(190.869141 0)"/>
      </g>
     </g>
    </g>
    <g id="text_34">
     <!-- Retention Rate -->
     <g transform="translate(451.014719 133.020028) rotate(-270) scale(0.11 -0.11)">
      <defs>
       <path id="DejaVuSans-52" d="M 2841 2188
Q 3044 2119 3236 1894
Q 3428 1669 3622 1275
L 4263 0
L 3584 0
L 2988 1197
Q 2756 1666 2539 1819
Q 2322 1972 1947 1972
L 1259 1972
L 1259 0
L 628 0
L 628 4666
L 2053 4666
Q 2853 4666 3247 4331
Q 3641 3997 3641 3322
Q 3641 2881 3436 2590
Q 3231 2300 2841 2188
z
M 1259 4147
L 1259 2491
L 2053 2491
Q 2509 2491 2742 2702
Q 2975 2913 2975 3322
Q 2975 3731 2742 3939
Q 2509 4147 2053 4147
L 1259 4147
z
" transform="scale(0.015625)"/>
       <path id="DejaVuSans-65" d="M 3597 1894
L 3597 1613
L 953 1613
Q 991 1019 1311 708
Q 1631 397 2203 397
Q 2534 397 2845 478
Q 3156 559 3463 722
L 3463 178
Q 3153 47 2828 -22
Q 2503 -91 2169 -91
Q 1331 -91 842 396
Q 353 884 353 1716
Q 353 2575 817 3079
Q 1281 3584 2069 3584
Q 2775 3584 3186 3129
Q 3597 2675 3597 1894
z
M 3022 2063
Q 3016 2534 2758 2815
Q 2500 3097 2075 3097
Q 1594 3097 1305 2825
Q 1016 2553 972 2059
L 3022 2063
z
" transform="scale(0.015625)"/>
       <path id="DejaVuSans-74" d="M 1172 4494
L 1172 3500
L 2356 3500
L 2356 3053
L 1172 3053
L 1172 1153
Q 1172 725 1289 603
Q 1406 481 1766 481
L 2356 481
L 2356 0
L 1766 0
Q 1100 0 847 248
Q 594 497 594 1153
L 594 3053
L 172 3053
L 172 3500
L 594 3500
L 594 4494
L 1172 4494
z
" transform="scale(0.015625)"/>
       <path id="DejaVuSans-6e" d="M 3513 2113
L 3513 0
L 2938 0
L 2938 2094
Q 2938 2591 2744 2837
Q 2550 3084 2163 3084
Q 1697 3084 1428 2787
Q 1159 2491 1159 1978
L 1159 0
L 581 0
L 581 3500
L 1159 3500
L 1159 2956
Q 1366 3272 1645 3428
Q 1925 3584 2291 3584
Q 2894 3584 3203 3211
Q 3513 2838 3513 2113
z
" transform="scale(0.015625)"/>
       <path id="DejaVuSans-69" d="M 603 3500
L 1178 3500
L 1178 0
L 603 0
L 603 3500
z
M 603 4863
L 1178 4863
L 1178 4134
L 603 4134
L 603 4863
z
" transform="scale(0.015625)"/>
       <path id="DejaVuSans-6f" d="M 1959 3097
Q 1497 3097 1228 2736
Q 959 2375 959 1747
Q 959 1119 1226 758
Q 1494 397 1959 397
Q 2419 397 2687 759
Q 2956 1122 2956 1747
Q 2956 2369 2687 2733
Q 2419 3097 1959 3097
z
M 1959 3584
Q 2709 3584 3137 3096
Q 3566 2609 3566 1747
Q 3566 888 3137 398
Q 2709 -91 1959 -91
Q 1206 -91 779 398
Q 353 888 353 1747
Q 353 2609 779 3096
Q 1206 3584 1959 3584
z
" transform="scale(0.015625)"/>
       <path id="DejaVuSans-20" transform="scale(0.015625)"/>
       <path id="DejaVuSans-61" d="M 2194 1759
Q 1497 1759 1228 1600
Q 959 1441 959 1056
Q 959 750 1161 570
Q 1363 391 1709 391
Q 2188 391 2477 730
Q 2766 1069 2766 1631
L 2766 1759
L 2194 1759
z
M 3341 1997
L 3341 0
L 2766 0
L 2766 531
Q 2569 213 2275 61
Q 1981 -91 1556 -91
Q 1019 -91 701 211
Q 384 513 384 1019
Q 384 1609 779 1909
Q 1175 2209 1959 2209
L 2766 2209
L 2766 2266
Q 2766 2663 2505 2880
Q 2244 3097 1772 3097
Q 1472 3097 1187 3025
Q 903 2953 641 2809
L 641 3341
Q 956 3463 1253 3523
Q 1550 3584 1831 3584
Q 2591 3584 2966 3190
Q 3341 2797 3341 1997
z
" transform="scale(0.015625)"/>
      </defs>
      <use xlink:href="#DejaVuSans-52"/>
      <use xlink:href="#DejaVuSans-65" transform="translate(64.982422 0)"/>
      <use xlink:href="#DejaVuSans-74" transform="translate(126.505859 0)"/>
      <use xlink:href="#DejaVuSans-65" transform="translate(165.714844 0)"/>
      <use xlink:href="#DejaVuSans-6e" transform="translate(227.238281 0)"/>
      <use xlink:href="#DejaVuSans-74" transform="translate(290.617188 0)"/>
      <use xlink:href="#DejaVuSans-69" transform="translate(329.826172 0)"/>
      <use xlink:href="#DejaVuSans-6f" transform="translate(357.609375 0)"/>
      <use xlink:href="#DejaVuSans-6e" transform="translate(418.791016 0)"/>
      <use xlink:href="#DejaVuSans-20" transform="translate(482.169922 0)"/>
      <use xlink:href="#DejaVuSans-52" transform="translate(513.957031 0)"/>
      <use xlink:href="#DejaVuSans-61" transform="translate(581.189453 0)"/>
      <use xlink:href="#DejaVuSans-74" transform="translate(642.46875 0)"/>
      <use xlink:href="#DejaVuSans-65" transform="translate(681.677734 0)"/>
     </g>
    </g>
   </g>
   <g id="LineCollection_1"/>
  </g>
  <g id="patch_24">
   <path d="M 34.062 20.16
L 67.902 20.16
L 67.902 17.28
L 34.062 17.28
z
" style="fill: #22c55e"/>
  </g>
  <g id="text_35">
   <!-- RETENTION -->
   <g style="fill: #737373" transform="translate(34.062 36.92) scale(0.1 -0.1)">
    <defs>
     <path id="Poppins-SemiBold-52" d="M 2746 0
L 1760 1741
L 1338 1741
L 1338 0
L 442 0
L 442 4467
L 2118 4467
Q 2637 4467 3001 4284
Q 3366 4102 3548 3792
Q 3731 3482 3731 3098
Q 3731 2656 3475 2301
Q 3219 1946 2714 1811
L 3782 0
L 2746 0
z
M 1338 2413
L 2086 2413
Q 2451 2413 2630 2589
Q 2810 2765 2810 3078
Q 2810 3386 2630 3555
Q 2451 3725 2086 3725
L 1338 3725
L 1338 2413
z
" transform="scale(0.015625)"/>
     <path id="Poppins-SemiBold-45" d="M 1338 3744
L 1338 2624
L 2842 2624
L 2842 1914
L 1338 1914
L 1338 730
L 3034 730
L 3034 0
L 442 0
L 442 4474
L 3034 4474
L 3034 3744
L 1338 3744
z
" transform="scale(0.015625)"/>
     <path id="Poppins-SemiBold-54" d="M 3482 4467
L 3482 3744
L 2291 3744
L 2291 0
L 1395 0
L 1395 3744
L 205 3744
L 205 4467
L 3482 4467
z
" transform="scale(0.015625)"/>
     <path id="Poppins-SemiBold-4e" d="M 4262 0
L 3366 0
L 1338 3066
L 1338 0
L 442 0
L 442 4474
L 1338 4474
L 3366 1402
L 3366 4474
L 4262 4474
L 4262 0
z
" transform="scale(0.015625)"/>
     <path id="Poppins-SemiBold-49" d="M 1338 4467
L 1338 0
L 442 0
L 442 4467
L 1338 4467
z
" transform="scale(0.015625)"/>
     <path id="Poppins-SemiBold-4f" d="M 2515 -45
Q 1888 -45 1363 249
Q 838 544 531 1065
Q 224 1587 224 2246
Q 224 2899 531 3420
Q 838 3942 1363 4236
Q 1888 4531 2515 4531
Q 3149 4531 3670 4236
Q 4192 3942 4496 3420
Q 4800 2899 4800 2246
Q 4800 1587 4496 1065
Q 4192 544 3667 249
Q 3142 -45 2515 -45
z
M 2515 755
Q 2918 755 3225 937
Q 3533 1120 3705 1459
Q 3878 1798 3878 2246
Q 3878 2694 3705 3030
Q 3533 3366 3225 3545
Q 2918 3725 2515 3725
Q 2112 3725 1801 3545
Q 1491 3366 1318 3030
Q 1146 2694 1146 2246
Q 1146 1798 1318 1459
Q 1491 1120 1801 937
Q 2112 755 2515 755
z
" transform="scale(0.015625)"/>
    </defs>
    <use xlink:href="#Poppins-SemiBold-52"/>
    <use xlink:href="#Poppins-SemiBold-45" transform="translate(64.099991 0)"/>
    <use xlink:href="#Poppins-SemiBold-54" transform="translate(117.299988 0)"/>
    <use xlink:href="#Poppins-SemiBold-45" transform="translate(174.999985 0)"/>
    <use xlink:href="#Poppins-SemiBold-4e" transform="translate(228.199982 0)"/>
    <use xlink:href="#Poppins-SemiBold-54" transform="translate(301.699966 0)"/>
    <use xlink:href="#Poppins-SemiBold-49" transform="translate(359.399963 0)"/>
    <use xlink:href="#Poppins-SemiBold-4f" transform="translate(387.199951 0)"/>
    <use xlink:href="#Poppins-SemiBold-4e" transform="translate(465.699936 0)"/>
   </g>
  </g>
  <g id="text_36">
   <!-- The March cohort holds 52% of buyers -->
   <g style="fill: #0a0a0a" transform="translate(34.062 61.755313) scale(0.22 -0.22)">
    <defs>
     <path id="Poppins-SemiBold-68" d="M 2438 3597
Q 2842 3597 3155 3421
Q 3469 3245 3645 2902
Q 3821 2560 3821 2080
L 3821 0
L 2925 0
L 2925 1958
Q 2925 2381 2713 2608
Q 2502 2835 2138 2835
Q 1766 2835 1552 2608
Q 1338 2381 1338 1958
L 1338 0
L 442 0
L 442 4736
L 1338 4736
L 1338 3104
Q 1510 3334 1798 3465
Q 2086 3597 2438 3597
z
" transform="scale(0.015625)"/>
     <path id="Poppins-SemiBold-65" d="M 3738 1850
Q 3738 1658 3712 1504
L 1120 1504
Q 1152 1120 1389 902
Q 1626 685 1971 685
Q 2470 685 2682 1114
L 3648 1114
Q 3494 602 3059 272
Q 2624 -58 1990 -58
Q 1478 -58 1072 169
Q 666 397 438 813
Q 211 1229 211 1773
Q 211 2323 435 2739
Q 659 3155 1062 3379
Q 1466 3603 1990 3603
Q 2496 3603 2896 3385
Q 3296 3168 3517 2768
Q 3738 2368 3738 1850
z
M 2810 2106
Q 2803 2451 2560 2659
Q 2317 2867 1965 2867
Q 1632 2867 1405 2665
Q 1178 2464 1126 2106
L 2810 2106
z
" transform="scale(0.015625)"/>
     <path id="Poppins-SemiBold-20" transform="scale(0.015625)"/>
     <path id="Poppins-SemiBold-4d" d="M 5312 4467
L 5312 0
L 4416 0
L 4416 2906
L 3219 0
L 2541 0
L 1338 2906
L 1338 0
L 442 0
L 442 4467
L 1459 4467
L 2880 1146
L 4301 4467
L 5312 4467
z
" transform="scale(0.015625)"/>
     <path id="Poppins-SemiBold-61" d="M 211 1786
Q 211 2323 425 2739
Q 640 3155 1008 3379
Q 1376 3603 1830 3603
Q 2227 3603 2524 3443
Q 2822 3283 3002 3040
L 3002 3546
L 3904 3546
L 3904 0
L 3002 0
L 3002 518
Q 2829 269 2525 105
Q 2221 -58 1824 -58
Q 1376 -58 1008 172
Q 640 403 425 822
Q 211 1242 211 1786
z
M 3002 1773
Q 3002 2099 2874 2332
Q 2746 2566 2528 2691
Q 2310 2816 2061 2816
Q 1811 2816 1600 2694
Q 1389 2573 1257 2339
Q 1126 2106 1126 1786
Q 1126 1466 1257 1226
Q 1389 986 1603 858
Q 1818 730 2061 730
Q 2310 730 2528 854
Q 2746 979 2874 1212
Q 3002 1446 3002 1773
z
" transform="scale(0.015625)"/>
     <path id="Poppins-SemiBold-72" d="M 1338 2995
Q 1510 3277 1788 3437
Q 2067 3597 2426 3597
L 2426 2656
L 2189 2656
Q 1766 2656 1552 2457
Q 1338 2259 1338 1766
L 1338 0
L 442 0
L 442 3546
L 1338 3546
L 1338 2995
z
" transform="scale(0.015625)"/>
     <path id="Poppins-SemiBold-63" d="M 211 1773
Q 211 2323 435 2736
Q 659 3149 1056 3376
Q 1453 3603 1965 3603
Q 2624 3603 3056 3273
Q 3488 2944 3635 2349
L 2669 2349
Q 2592 2579 2409 2710
Q 2227 2842 1958 2842
Q 1574 2842 1350 2563
Q 1126 2285 1126 1773
Q 1126 1267 1350 988
Q 1574 710 1958 710
Q 2502 710 2669 1197
L 3635 1197
Q 3488 621 3053 281
Q 2618 -58 1965 -58
Q 1453 -58 1056 169
Q 659 397 435 809
Q 211 1222 211 1773
z
" transform="scale(0.015625)"/>
     <path id="Poppins-SemiBold-6f" d="M 2016 -58
Q 1504 -58 1094 169
Q 685 397 451 813
Q 218 1229 218 1773
Q 218 2317 458 2733
Q 698 3149 1114 3376
Q 1530 3603 2042 3603
Q 2554 3603 2970 3376
Q 3386 3149 3626 2733
Q 3866 2317 3866 1773
Q 3866 1229 3619 813
Q 3373 397 2953 169
Q 2534 -58 2016 -58
z
M 2016 723
Q 2259 723 2473 841
Q 2688 960 2816 1197
Q 2944 1434 2944 1773
Q 2944 2278 2678 2550
Q 2413 2822 2029 2822
Q 1645 2822 1385 2550
Q 1126 2278 1126 1773
Q 1126 1267 1379 995
Q 1632 723 2016 723
z
" transform="scale(0.015625)"/>
     <path id="Poppins-SemiBold-74" d="M 1485 2810
L 1485 1094
Q 1485 915 1571 835
Q 1658 755 1862 755
L 2278 755
L 2278 0
L 1715 0
Q 582 0 582 1101
L 582 2810
L 160 2810
L 160 3546
L 582 3546
L 582 4422
L 1485 4422
L 1485 3546
L 2278 3546
L 2278 2810
L 1485 2810
z
" transform="scale(0.015625)"/>
     <path id="Poppins-SemiBold-6c" d="M 1338 4736
L 1338 0
L 442 0
L 442 4736
L 1338 4736
z
" transform="scale(0.015625)"/>
     <path id="Poppins-SemiBold-64" d="M 211 1786
Q 211 2323 425 2739
Q 640 3155 1011 3379
Q 1382 3603 1837 3603
Q 2182 3603 2496 3452
Q 2810 3302 2995 3053
L 2995 4736
L 3904 4736
L 3904 0
L 2995 0
L 2995 525
Q 2829 262 2528 102
Q 2227 -58 1830 -58
Q 1382 -58 1011 172
Q 640 403 425 822
Q 211 1242 211 1786
z
M 3002 1773
Q 3002 2099 2874 2332
Q 2746 2566 2528 2691
Q 2310 2816 2061 2816
Q 1811 2816 1600 2694
Q 1389 2573 1257 2339
Q 1126 2106 1126 1786
Q 1126 1466 1257 1226
Q 1389 986 1603 858
Q 1818 730 2061 730
Q 2310 730 2528 854
Q 2746 979 2874 1212
Q 3002 1446 3002 1773
z
" transform="scale(0.015625)"/>
     <path id="Poppins-SemiBold-73" d="M 1798 -58
Q 1363 -58 1017 99
Q 672 256 470 525
Q 269 794 250 1120
L 1152 1120
Q 1178 915 1354 780
Q 1530 646 1792 646
Q 2048 646 2192 748
Q 2336 851 2336 1011
Q 2336 1184 2160 1270
Q 1984 1357 1600 1459
Q 1203 1555 950 1657
Q 698 1760 515 1971
Q 333 2182 333 2541
Q 333 2835 502 3078
Q 672 3322 989 3462
Q 1306 3603 1734 3603
Q 2368 3603 2745 3286
Q 3123 2970 3162 2432
L 2304 2432
Q 2285 2643 2128 2768
Q 1971 2893 1709 2893
Q 1466 2893 1334 2803
Q 1203 2714 1203 2554
Q 1203 2374 1382 2281
Q 1562 2189 1939 2093
Q 2323 1997 2572 1894
Q 2822 1792 3004 1577
Q 3187 1363 3194 1011
Q 3194 704 3024 461
Q 2854 218 2537 80
Q 2221 -58 1798 -58
z
" transform="scale(0.015625)"/>
     <path id="Poppins-SemiBold-35" d="M 3475 3891
L 1402 3891
L 1402 2797
Q 1536 2963 1785 3068
Q 2035 3174 2317 3174
Q 2829 3174 3155 2950
Q 3482 2726 3629 2377
Q 3776 2029 3776 1632
Q 3776 896 3357 448
Q 2938 0 2163 0
Q 1434 0 998 365
Q 563 730 506 1318
L 1376 1318
Q 1434 1062 1635 908
Q 1837 755 2150 755
Q 2528 755 2720 992
Q 2912 1229 2912 1619
Q 2912 2016 2717 2224
Q 2522 2432 2144 2432
Q 1875 2432 1696 2297
Q 1517 2163 1440 1939
L 582 1939
L 582 4678
L 3475 4678
L 3475 3891
z
" transform="scale(0.015625)"/>
     <path id="Poppins-SemiBold-32" d="M 621 1011
Q 1235 1523 1600 1865
Q 1965 2208 2208 2579
Q 2451 2950 2451 3309
Q 2451 3635 2297 3820
Q 2144 4006 1824 4006
Q 1504 4006 1331 3792
Q 1158 3578 1152 3206
L 282 3206
Q 307 3974 739 4371
Q 1171 4768 1837 4768
Q 2566 4768 2956 4381
Q 3347 3994 3347 3360
Q 3347 2861 3078 2406
Q 2810 1952 2464 1616
Q 2118 1280 1562 806
L 3450 806
L 3450 64
L 288 64
L 288 730
L 621 1011
z
" transform="scale(0.015625)"/>
     <path id="Poppins-SemiBold-25" d="M 237 3520
Q 237 4006 521 4281
Q 806 4557 1254 4557
Q 1702 4557 1987 4281
Q 2272 4006 2272 3520
Q 2272 3027 1987 2752
Q 1702 2477 1254 2477
Q 806 2477 521 2752
Q 237 3027 237 3520
z
M 4346 4480
L 1830 0
L 960 0
L 3469 4480
L 4346 4480
z
M 1248 4019
Q 896 4019 896 3520
Q 896 3014 1248 3014
Q 1421 3014 1517 3139
Q 1613 3264 1613 3520
Q 1613 4019 1248 4019
z
M 3046 966
Q 3046 1459 3331 1731
Q 3616 2003 4064 2003
Q 4512 2003 4790 1731
Q 5069 1459 5069 966
Q 5069 474 4790 198
Q 4512 -77 4064 -77
Q 3610 -77 3328 198
Q 3046 474 3046 966
z
M 4058 1466
Q 3693 1466 3693 966
Q 3693 461 4058 461
Q 4416 461 4416 966
Q 4416 1466 4058 1466
z
" transform="scale(0.015625)"/>
     <path id="Poppins-SemiBold-66" d="M 2067 2810
L 1446 2810
L 1446 0
L 538 0
L 538 2810
L 134 2810
L 134 3546
L 538 3546
L 538 3725
Q 538 4378 909 4685
Q 1280 4992 2029 4973
L 2029 4218
Q 1702 4224 1574 4109
Q 1446 3994 1446 3693
L 1446 3546
L 2067 3546
L 2067 2810
z
" transform="scale(0.015625)"/>
     <path id="Poppins-SemiBold-62" d="M 1338 3027
Q 1510 3283 1814 3443
Q 2118 3603 2509 3603
Q 2963 3603 3331 3379
Q 3699 3155 3913 2742
Q 4128 2330 4128 1786
Q 4128 1242 3913 822
Q 3699 403 3331 172
Q 2963 -58 2509 -58
Q 2112 -58 1814 99
Q 1517 256 1338 506
L 1338 0
L 442 0
L 442 4736
L 1338 4736
L 1338 3027
z
M 3213 1786
Q 3213 2106 3081 2339
Q 2950 2573 2736 2694
Q 2522 2816 2272 2816
Q 2029 2816 1814 2691
Q 1600 2566 1469 2329
Q 1338 2093 1338 1773
Q 1338 1453 1469 1216
Q 1600 979 1814 854
Q 2029 730 2272 730
Q 2522 730 2736 858
Q 2950 986 3081 1222
Q 3213 1459 3213 1786
z
" transform="scale(0.015625)"/>
     <path id="Poppins-SemiBold-75" d="M 3789 3546
L 3789 0
L 2886 0
L 2886 448
Q 2714 218 2435 86
Q 2157 -45 1830 -45
Q 1414 -45 1094 131
Q 774 307 592 649
Q 410 992 410 1466
L 410 3546
L 1306 3546
L 1306 1594
Q 1306 1171 1517 944
Q 1728 717 2093 717
Q 2464 717 2675 944
Q 2886 1171 2886 1594
L 2886 3546
L 3789 3546
z
" transform="scale(0.015625)"/>
     <path id="Poppins-SemiBold-79" d="M 3834 3546
L 1638 -1677
L 685 -1677
L 1453 90
L 32 3546
L 1037 3546
L 1952 1069
L 2880 3546
L 3834 3546
z
" transform="scale(0.015625)"/>
    </defs>
    <use xlink:href="#Poppins-SemiBold-54"/>
    <use xlink:href="#Poppins-SemiBold-68" transform="translate(57.699997 0)"/>
    <use xlink:href="#Poppins-SemiBold-65" transform="translate(123.799988 0)"/>
    <use xlink:href="#Poppins-SemiBold-20" transform="translate(185.499985 0)"/>
    <use xlink:href="#Poppins-SemiBold-4d" transform="translate(209.299973 0)"/>
    <use xlink:href="#Poppins-SemiBold-61" transform="translate(299.199966 0)"/>
    <use xlink:href="#Poppins-SemiBold-72" transform="translate(366.999954 0)"/>
    <use xlink:href="#Poppins-SemiBold-63" transform="translate(407.399948 0)"/>
    <use xlink:href="#Poppins-SemiBold-68" transform="translate(467.599945 0)"/>
    <use xlink:href="#Poppins-SemiBold-20" transform="translate(533.699936 0)"/>
    <use xlink:href="#Poppins-SemiBold-63" transform="translate(557.499924 0)"/>
    <use xlink:href="#Poppins-SemiBold-6f" transform="translate(617.699921 0)"/>
    <use xlink:href="#Poppins-SemiBold-68" transform="translate(681.499908 0)"/>
    <use xlink:href="#Poppins-SemiBold-6f" transform="translate(747.599899 0)"/>
    <use xlink:href="#Poppins-SemiBold-72" transform="translate(811.399887 0)"/>
    <use xlink:href="#Poppins-SemiBold-74" transform="translate(851.799881 0)"/>
    <use xlink:href="#Poppins-SemiBold-20" transform="translate(890.599869 0)"/>
    <use xlink:href="#Poppins-SemiBold-68" transform="translate(914.399857 0)"/>
    <use xlink:href="#Poppins-SemiBold-6f" transform="translate(980.499847 0)"/>
    <use xlink:href="#Poppins-SemiBold-6c" transform="translate(1044.299835 0)"/>
    <use xlink:href="#Poppins-SemiBold-64" transform="translate(1072.099823 0)"/>
    <use xlink:href="#Poppins-SemiBold-73" transform="translate(1139.899811 0)"/>
    <use xlink:href="#Poppins-SemiBold-20" transform="translate(1194.399796 0)"/>
    <use xlink:href="#Poppins-SemiBold-35" transform="translate(1218.199783 0)"/>
    <use xlink:href="#Poppins-SemiBold-32" transform="translate(1282.599777 0)"/>
    <use xlink:href="#Poppins-SemiBold-25" transform="translate(1339.999771 0)"/>
    <use xlink:href="#Poppins-SemiBold-20" transform="translate(1422.899765 0)"/>
    <use xlink:href="#Poppins-SemiBold-6f" transform="translate(1446.699753 0)"/>
    <use xlink:href="#Poppins-SemiBold-66" transform="translate(1510.499741 0)"/>
    <use xlink:href="#Poppins-SemiBold-20" transform="translate(1544.999725 0)"/>
    <use xlink:href="#Poppins-SemiBold-62" transform="translate(1568.799713 0)"/>
    <use xlink:href="#Poppins-SemiBold-75" transform="translate(1636.599701 0)"/>
    <use xlink:href="#Poppins-SemiBold-79" transform="translate(1702.699692 0)"/>
    <use xlink:href="#Poppins-SemiBold-65" transform="translate(1763.199677 0)"/>
    <use xlink:href="#Poppins-SemiBold-72" transform="translate(1824.899673 0)"/>
    <use xlink:href="#Poppins-SemiBold-73" transform="translate(1865.299667 0)"/>
   </g>
   <!-- four months in -->
   <g style="fill: #0a0a0a" transform="translate(34.062 87.100687) scale(0.22 -0.22)">
    <defs>
     <path id="Poppins-SemiBold-6d" d="M 4845 3597
Q 5498 3597 5898 3197
Q 6298 2797 6298 2080
L 6298 0
L 5402 0
L 5402 1958
Q 5402 2374 5190 2595
Q 4979 2816 4614 2816
Q 4250 2816 4035 2595
Q 3821 2374 3821 1958
L 3821 0
L 2925 0
L 2925 1958
Q 2925 2374 2713 2595
Q 2502 2816 2138 2816
Q 1766 2816 1552 2595
Q 1338 2374 1338 1958
L 1338 0
L 442 0
L 442 3546
L 1338 3546
L 1338 3117
Q 1510 3341 1782 3469
Q 2054 3597 2381 3597
Q 2797 3597 3123 3421
Q 3450 3245 3629 2918
Q 3802 3226 4131 3411
Q 4461 3597 4845 3597
z
" transform="scale(0.015625)"/>
     <path id="Poppins-SemiBold-6e" d="M 2406 3597
Q 3040 3597 3430 3197
Q 3821 2797 3821 2080
L 3821 0
L 2925 0
L 2925 1958
Q 2925 2381 2713 2608
Q 2502 2835 2138 2835
Q 1766 2835 1552 2608
Q 1338 2381 1338 1958
L 1338 0
L 442 0
L 442 3546
L 1338 3546
L 1338 3104
Q 1517 3334 1795 3465
Q 2074 3597 2406 3597
z
" transform="scale(0.015625)"/>
     <path id="Poppins-SemiBold-69" d="M 896 3968
Q 659 3968 502 4118
Q 346 4269 346 4493
Q 346 4717 502 4867
Q 659 5018 896 5018
Q 1133 5018 1289 4867
Q 1446 4717 1446 4493
Q 1446 4269 1289 4118
Q 1133 3968 896 3968
z
M 1338 3546
L 1338 0
L 442 0
L 442 3546
L 1338 3546
z
" transform="scale(0.015625)"/>
    </defs>
    <use xlink:href="#Poppins-SemiBold-66"/>
    <use xlink:href="#Poppins-SemiBold-6f" transform="translate(34.499985 0)"/>
    <use xlink:href="#Poppins-SemiBold-75" transform="translate(98.299973 0)"/>
    <use xlink:href="#Poppins-SemiBold-72" transform="translate(164.399963 0)"/>
    <use xlink:href="#Poppins-SemiBold-20" transform="translate(204.799957 0)"/>
    <use xlink:href="#Poppins-SemiBold-6d" transform="translate(228.599945 0)"/>
    <use xlink:href="#Poppins-SemiBold-6f" transform="translate(333.399933 0)"/>
    <use xlink:href="#Poppins-SemiBold-6e" transform="translate(397.199921 0)"/>
    <use xlink:href="#Poppins-SemiBold-74" transform="translate(463.299911 0)"/>
    <use xlink:href="#Poppins-SemiBold-68" transform="translate(502.099899 0)"/>
    <use xlink:href="#Poppins-SemiBold-73" transform="translate(568.19989 0)"/>
    <use xlink:href="#Poppins-SemiBold-20" transform="translate(622.699875 0)"/>
    <use xlink:href="#Poppins-SemiBold-69" transform="translate(646.499863 0)"/>
    <use xlink:href="#Poppins-SemiBold-6e" transform="translate(674.29985 0)"/>
   </g>
  </g>
  <g id="text_37">
   <!-- % of original cohort still purchasing, by months since first purchase -->
   <g style="fill: #525252" transform="translate(34.062 106.57575) scale(0.12 -0.12)">
    <defs>
     <path id="Poppins-Regular-25" d="M 269 3584
Q 269 4019 531 4278
Q 794 4538 1203 4538
Q 1613 4538 1875 4278
Q 2138 4019 2138 3584
Q 2138 3142 1875 2883
Q 1613 2624 1203 2624
Q 794 2624 531 2883
Q 269 3142 269 3584
z
M 4006 4467
L 1414 0
L 838 0
L 3430 4467
L 4006 4467
z
M 1203 4179
Q 986 4179 861 4028
Q 736 3878 736 3584
Q 736 3290 861 3136
Q 986 2982 1203 2982
Q 1421 2982 1549 3139
Q 1677 3296 1677 3584
Q 1677 3878 1549 4028
Q 1421 4179 1203 4179
z
M 2720 883
Q 2720 1325 2982 1584
Q 3245 1843 3654 1843
Q 4064 1843 4323 1584
Q 4582 1325 4582 883
Q 4582 448 4323 185
Q 4064 -77 3654 -77
Q 3245 -77 2982 182
Q 2720 442 2720 883
z
M 3648 1478
Q 3430 1478 3302 1328
Q 3174 1178 3174 883
Q 3174 595 3302 444
Q 3430 294 3648 294
Q 3866 294 3994 444
Q 4122 595 4122 883
Q 4122 1178 3994 1328
Q 3866 1478 3648 1478
z
" transform="scale(0.015625)"/>
     <path id="Poppins-Regular-66" d="M 1920 3027
L 1184 3027
L 1184 0
L 602 0
L 602 3027
L 147 3027
L 147 3507
L 602 3507
L 602 3757
Q 602 4346 906 4618
Q 1210 4890 1882 4890
L 1882 4403
Q 1498 4403 1341 4252
Q 1184 4102 1184 3757
L 1184 3507
L 1920 3507
L 1920 3027
z
" transform="scale(0.015625)"/>
     <path id="Poppins-Regular-69" d="M 794 4077
Q 627 4077 512 4192
Q 397 4307 397 4474
Q 397 4640 512 4755
Q 627 4870 794 4870
Q 954 4870 1066 4755
Q 1178 4640 1178 4474
Q 1178 4307 1066 4192
Q 954 4077 794 4077
z
M 1075 3507
L 1075 0
L 493 0
L 493 3507
L 1075 3507
z
" transform="scale(0.015625)"/>
     <path id="Poppins-Regular-67" d="M 1939 3565
Q 2394 3565 2736 3366
Q 3078 3168 3245 2867
L 3245 3507
L 3834 3507
L 3834 -77
Q 3834 -557 3629 -931
Q 3424 -1306 3043 -1517
Q 2662 -1728 2157 -1728
Q 1466 -1728 1005 -1401
Q 544 -1075 461 -512
L 1037 -512
Q 1133 -832 1433 -1027
Q 1734 -1222 2157 -1222
Q 2637 -1222 2941 -921
Q 3245 -621 3245 -77
L 3245 659
Q 3072 352 2733 147
Q 2394 -58 1939 -58
Q 1472 -58 1091 172
Q 710 403 492 819
Q 275 1235 275 1766
Q 275 2304 492 2710
Q 710 3117 1091 3341
Q 1472 3565 1939 3565
z
M 3245 1760
Q 3245 2157 3085 2451
Q 2925 2746 2653 2902
Q 2381 3059 2054 3059
Q 1728 3059 1459 2905
Q 1190 2752 1030 2457
Q 870 2163 870 1766
Q 870 1363 1030 1065
Q 1190 768 1459 611
Q 1728 454 2054 454
Q 2381 454 2653 611
Q 2925 768 3085 1065
Q 3245 1363 3245 1760
z
" transform="scale(0.015625)"/>
     <path id="Poppins-Regular-6c" d="M 1075 4736
L 1075 0
L 493 0
L 493 4736
L 1075 4736
z
" transform="scale(0.015625)"/>
     <path id="Poppins-Regular-63" d="M 275 1760
Q 275 2304 492 2710
Q 710 3117 1097 3341
Q 1485 3565 1984 3565
Q 2630 3565 3049 3251
Q 3469 2938 3603 2381
L 2976 2381
Q 2886 2701 2627 2886
Q 2368 3072 1984 3072
Q 1485 3072 1177 2729
Q 870 2387 870 1760
Q 870 1126 1177 780
Q 1485 435 1984 435
Q 2368 435 2624 614
Q 2880 794 2976 1126
L 3603 1126
Q 3462 589 3040 265
Q 2618 -58 1984 -58
Q 1485 -58 1097 166
Q 710 390 492 800
Q 275 1210 275 1760
z
" transform="scale(0.015625)"/>
     <path id="Poppins-Regular-73" d="M 1734 -58
Q 1331 -58 1011 80
Q 691 218 505 464
Q 320 710 301 1030
L 902 1030
Q 928 768 1149 601
Q 1370 435 1728 435
Q 2061 435 2253 582
Q 2445 730 2445 954
Q 2445 1184 2240 1296
Q 2035 1408 1606 1517
Q 1216 1619 969 1724
Q 723 1830 547 2038
Q 371 2246 371 2586
Q 371 2854 531 3078
Q 691 3302 985 3433
Q 1280 3565 1658 3565
Q 2240 3565 2598 3270
Q 2957 2976 2982 2464
L 2400 2464
Q 2381 2739 2179 2905
Q 1978 3072 1638 3072
Q 1325 3072 1139 2937
Q 954 2803 954 2586
Q 954 2413 1066 2301
Q 1178 2189 1347 2121
Q 1517 2054 1818 1971
Q 2195 1869 2432 1769
Q 2669 1670 2838 1472
Q 3008 1274 3014 954
Q 3014 666 2854 435
Q 2694 205 2403 73
Q 2112 -58 1734 -58
z
" transform="scale(0.015625)"/>
     <path id="Poppins-Regular-75" d="M 3603 3507
L 3603 0
L 3021 0
L 3021 518
Q 2854 250 2556 99
Q 2259 -51 1901 -51
Q 1491 -51 1164 118
Q 838 288 649 627
Q 461 966 461 1453
L 461 3507
L 1037 3507
L 1037 1530
Q 1037 1011 1299 732
Q 1562 454 2016 454
Q 2483 454 2752 742
Q 3021 1030 3021 1581
L 3021 3507
L 3603 3507
z
" transform="scale(0.015625)"/>
     <path id="Poppins-Regular-2c" d="M 1094 806
L 378 -915
L -13 -915
L 454 806
L 1094 806
z
" transform="scale(0.015625)"/>
     <path id="Poppins-Regular-6d" d="M 4710 3571
Q 5120 3571 5440 3401
Q 5760 3232 5945 2893
Q 6131 2554 6131 2067
L 6131 0
L 5555 0
L 5555 1984
Q 5555 2509 5296 2787
Q 5037 3066 4595 3066
Q 4141 3066 3872 2774
Q 3603 2483 3603 1933
L 3603 0
L 3027 0
L 3027 1984
Q 3027 2509 2768 2787
Q 2509 3066 2067 3066
Q 1613 3066 1344 2774
Q 1075 2483 1075 1933
L 1075 0
L 493 0
L 493 3507
L 1075 3507
L 1075 3002
Q 1248 3277 1539 3424
Q 1830 3571 2182 3571
Q 2624 3571 2963 3372
Q 3302 3174 3469 2790
Q 3616 3162 3955 3366
Q 4294 3571 4710 3571
z
" transform="scale(0.015625)"/>
    </defs>
    <use xlink:href="#Poppins-Regular-25"/>
    <use xlink:href="#Poppins-Regular-20" transform="translate(75.899994 0)"/>
    <use xlink:href="#Poppins-Regular-6f" transform="translate(102.599991 0)"/>
    <use xlink:href="#Poppins-Regular-66" transform="translate(166.599976 0)"/>
    <use xlink:href="#Poppins-Regular-20" transform="translate(199.499969 0)"/>
    <use xlink:href="#Poppins-Regular-6f" transform="translate(226.199966 0)"/>
    <use xlink:href="#Poppins-Regular-72" transform="translate(290.199951 0)"/>
    <use xlink:href="#Poppins-Regular-69" transform="translate(327.499939 0)"/>
    <use xlink:href="#Poppins-Regular-67" transform="translate(352.09993 0)"/>
    <use xlink:href="#Poppins-Regular-69" transform="translate(419.699921 0)"/>
    <use xlink:href="#Poppins-Regular-6e" transform="translate(444.299911 0)"/>
    <use xlink:href="#Poppins-Regular-61" transform="translate(508.299896 0)"/>
    <use xlink:href="#Poppins-Regular-6c" transform="translate(575.899887 0)"/>
    <use xlink:href="#Poppins-Regular-20" transform="translate(600.499878 0)"/>
    <use xlink:href="#Poppins-Regular-63" transform="translate(627.199875 0)"/>
    <use xlink:href="#Poppins-Regular-6f" transform="translate(687.899872 0)"/>
    <use xlink:href="#Poppins-Regular-68" transform="translate(751.899857 0)"/>
    <use xlink:href="#Poppins-Regular-6f" transform="translate(815.899841 0)"/>
    <use xlink:href="#Poppins-Regular-72" transform="translate(879.899826 0)"/>
    <use xlink:href="#Poppins-Regular-74" transform="translate(917.199814 0)"/>
    <use xlink:href="#Poppins-Regular-20" transform="translate(953.599808 0)"/>
    <use xlink:href="#Poppins-Regular-73" transform="translate(980.299805 0)"/>
    <use xlink:href="#Poppins-Regular-74" transform="translate(1032.499802 0)"/>
    <use xlink:href="#Poppins-Regular-69" transform="translate(1068.899796 0)"/>
    <use xlink:href="#Poppins-Regular-6c" transform="translate(1093.499786 0)"/>
    <use xlink:href="#Poppins-Regular-6c" transform="translate(1118.099777 0)"/>
    <use xlink:href="#Poppins-Regular-20" transform="translate(1142.699768 0)"/>
    <use xlink:href="#Poppins-Regular-70" transform="translate(1169.399765 0)"/>
    <use xlink:href="#Poppins-Regular-75" transform="translate(1236.999756 0)"/>
    <use xlink:href="#Poppins-Regular-72" transform="translate(1300.999741 0)"/>
    <use xlink:href="#Poppins-Regular-63" transform="translate(1338.299728 0)"/>
    <use xlink:href="#Poppins-Regular-68" transform="translate(1398.999725 0)"/>
    <use xlink:href="#Poppins-Regular-61" transform="translate(1462.99971 0)"/>
    <use xlink:href="#Poppins-Regular-73" transform="translate(1530.599701 0)"/>
    <use xlink:href="#Poppins-Regular-69" transform="translate(1582.799698 0)"/>
    <use xlink:href="#Poppins-Regular-6e" transform="translate(1607.399689 0)"/>
    <use xlink:href="#Poppins-Regular-67" transform="translate(1671.399673 0)"/>
    <use xlink:href="#Poppins-Regular-2c" transform="translate(1738.999664 0)"/>
    <use xlink:href="#Poppins-Regular-20" transform="translate(1758.799652 0)"/>
    <use xlink:href="#Poppins-Regular-62" transform="translate(1785.499649 0)"/>
    <use xlink:href="#Poppins-Regular-79" transform="translate(1853.09964 0)"/>
    <use xlink:href="#Poppins-Regular-20" transform="translate(1909.399628 0)"/>
    <use xlink:href="#Poppins-Regular-6d" transform="translate(1936.099625 0)"/>
    <use xlink:href="#Poppins-Regular-6f" transform="translate(2039.099609 0)"/>
    <use xlink:href="#Poppins-Regular-6e" transform="translate(2103.099594 0)"/>
    <use xlink:href="#Poppins-Regular-74" transform="translate(2167.099579 0)"/>
    <use xlink:href="#Poppins-Regular-68" transform="translate(2203.499573 0)"/>
    <use xlink:href="#Poppins-Regular-73" transform="translate(2267.499557 0)"/>
    <use xlink:href="#Poppins-Regular-20" transform="translate(2319.699554 0)"/>
    <use xlink:href="#Poppins-Regular-73" transform="translate(2346.399551 0)"/>
    <use xlink:href="#Poppins-Regular-69" transform="translate(2398.599548 0)"/>
    <use xlink:href="#Poppins-Regular-6e" transform="translate(2423.199539 0)"/>
    <use xlink:href="#Poppins-Regular-63" transform="translate(2487.199524 0)"/>
    <use xlink:href="#Poppins-Regular-65" transform="translate(2547.899521 0)"/>
    <use xlink:href="#Poppins-Regular-20" transform="translate(2609.899506 0)"/>
    <use xlink:href="#Poppins-Regular-66" transform="translate(2636.599503 0)"/>
    <use xlink:href="#Poppins-Regular-69" transform="translate(2669.499496 0)"/>
    <use xlink:href="#Poppins-Regular-72" transform="translate(2694.099487 0)"/>
    <use xlink:href="#Poppins-Regular-73" transform="translate(2731.399475 0)"/>
    <use xlink:href="#Poppins-Regular-74" transform="translate(2783.599472 0)"/>
    <use xlink:href="#Poppins-Regular-20" transform="translate(2819.999466 0)"/>
    <use xlink:href="#Poppins-Regular-70" transform="translate(2846.699463 0)"/>
    <use xlink:href="#Poppins-Regular-75" transform="translate(2914.299454 0)"/>
    <use xlink:href="#Poppins-Regular-72" transform="translate(2978.299438 0)"/>
    <use xlink:href="#Poppins-Regular-63" transform="translate(3015.599426 0)"/>
    <use xlink:href="#Poppins-Regular-68" transform="translate(3076.299423 0)"/>
    <use xlink:href="#Poppins-Regular-61" transform="translate(3140.299408 0)"/>
    <use xlink:href="#Poppins-Regular-73" transform="translate(3207.899399 0)"/>
    <use xlink:href="#Poppins-Regular-65" transform="translate(3260.099396 0)"/>
   </g>
  </g>
 </g>
 <defs>
  <clipPath id="p9cbc1f8236">
   <rect x="34.062" y="145.503" width="359.6472" height="184.977"/>
  </clipPath>
  <clipPath id="p04d42bb2b8">
   <rect x="401.28072" y="145.503" width="11.35728" height="56.7864"/>
  </clipPath>
 </defs>
</svg>
