<?xml version="1.0" encoding="utf-8" standalone="no"?>
<!DOCTYPE svg PUBLIC "-//W3C//DTD SVG 1.1//EN"
  "http://www.w3.org/Graphics/SVG/1.1/DTD/svg11.dtd">
<svg xmlns:xlink="http://www.w3.org/1999/xlink" width="445.873877pt" height="327.6pt" viewBox="0 0 445.873877 327.6" xmlns="http://www.w3.org/2000/svg" version="1.1">
 <metadata>
  <rdf:RDF xmlns:dc="http://purl.org/dc/elements/1.1/" xmlns:cc="http://creativecommons.org/ns#" xmlns:rdf="http://www.w3.org/1999/02/22-rdf-syntax-ns#">
   <cc:Work>
    <dc:type rdf:resource="http://purl.org/dc/dcmitype/StillImage"/>
    <dc:date>2026-05-21T06:44:42.241590</dc:date>
    <dc:format>image/svg+xml</dc:format>
    <dc:creator>
     <cc:Agent>
      <dc:title>Matplotlib v3.10.8, https://matplotlib.org/</dc:title>
     </cc:Agent>
    </dc:creator>
   </cc:Work>
  </rdf:RDF>
 </metadata>
 <defs>
  <style type="text/css">*{stroke-linejoin: round; stroke-linecap: butt}</style>
 </defs>
 <g id="figure_1">
  <g id="patch_1">
   <path d="M 0 327.6
L 445.873877 327.6
L 445.873877 0
L 0 0
z
" style="fill: #ffffff"/>
  </g>
  <g id="axes_1">
   <g id="patch_2">
    <path d="M 228.403039 182.758912
L 227.620988 188.03107
L 226.325941 193.201187
L 224.53037 198.219472
L 222.251568 203.037595
L 221.308549 204.610926
L 219.626164 201.804037
L 216.451179 197.523065
L 212.871873 193.57391
L 208.922718 189.994604
L 204.641746 186.819619
L 200.070185 184.07953
L 195.252061 181.800728
L 190.233777 180.005157
L 185.06366 178.71011
L 179.791502 177.928059
L 174.468076 177.666536
L 173.998011 177.689629
L 172.085391 174.498615
L 168.910406 170.217643
L 165.3311 166.268488
L 161.381945 162.689182
L 157.100973 159.514197
L 152.529412 156.774109
L 147.711288 154.495306
L 142.693004 152.699735
L 137.522887 151.404688
L 132.250729 150.622637
L 127.325918 150.380697
L 129.195303 147.261817
L 132.370289 142.980844
L 135.949594 139.031689
L 139.898749 135.452384
L 144.179721 132.277398
L 148.751283 129.53731
L 153.569406 127.258507
L 158.587691 125.462936
L 163.757807 124.16789
L 169.029966 123.385839
L 174.353391 123.124316
L 179.676817 123.385839
L 184.948975 124.16789
L 190.119092 125.462936
L 195.137377 127.258507
L 199.9555 129.53731
L 204.527061 132.277398
L 208.808033 135.452384
L 212.757188 139.031689
L 216.336494 142.980844
L 219.511479 147.261817
L 222.251568 151.833378
L 224.53037 156.651501
L 226.325941 161.669786
L 227.620988 166.839903
L 228.403039 172.112061
L 228.664562 177.435486
z
" clip-path="url(#pfa4d5c9655)" style="fill: #f97316; opacity: 0.55; stroke: #f97316; stroke-linejoin: miter"/>
   </g>
   <g id="patch_3">
    <path d="M 228.517724 237.301132
L 227.735673 242.573291
L 226.440626 247.743407
L 224.645055 252.761692
L 222.366253 257.579815
L 219.626164 262.151377
L 216.451179 266.432349
L 212.871873 270.381504
L 208.922718 273.960809
L 204.641746 277.135795
L 200.070185 279.875883
L 195.252061 282.154686
L 190.233777 283.950257
L 185.06366 285.245304
L 179.791502 286.027354
L 174.468076 286.288877
L 169.144651 286.027354
L 163.872492 285.245304
L 158.702376 283.950257
L 153.684091 282.154686
L 148.865968 279.875883
L 144.294406 277.135795
L 140.013434 273.960809
L 136.064279 270.381504
L 132.484973 266.432349
L 129.309988 262.151377
L 127.397368 258.960363
L 132.250729 258.721933
L 137.522887 257.939882
L 142.693004 256.644835
L 147.711288 254.849264
L 152.529412 252.570461
L 157.100973 249.830373
L 161.381945 246.655388
L 165.3311 243.076082
L 168.910406 239.126927
L 172.085391 234.845955
L 173.954776 231.727074
L 174.353391 231.746657
L 179.676817 231.485134
L 184.948975 230.703083
L 190.119092 229.408036
L 195.137377 227.612465
L 199.9555 225.333663
L 204.527061 222.593575
L 208.808033 219.418589
L 212.757188 215.839284
L 216.336494 211.890128
L 219.511479 207.609156
L 221.308549 204.610926
L 222.366253 206.375598
L 224.645055 211.193721
L 226.440626 216.212006
L 227.735673 221.382123
L 228.517724 226.654281
L 228.779247 231.977707
z
" clip-path="url(#pfa4d5c9655)" style="fill: #3b82f6; opacity: 0.55; stroke: #3b82f6; stroke-linejoin: miter"/>
   </g>
   <g id="patch_4">
    <path d="M 174.468076 177.666536
L 179.791502 177.928059
L 185.06366 178.71011
L 190.233777 180.005157
L 195.252061 181.800728
L 200.070185 184.07953
L 204.641746 186.819619
L 208.922718 189.994604
L 212.871873 193.57391
L 216.451179 197.523065
L 219.626164 201.804037
L 221.308549 204.610926
L 219.511479 207.609156
L 216.336494 211.890128
L 212.757188 215.839284
L 208.808033 219.418589
L 204.527061 222.593575
L 199.9555 225.333663
L 195.137377 227.612465
L 190.119092 229.408036
L 184.948975 230.703083
L 179.676817 231.485134
L 174.353391 231.746657
L 173.954776 231.727074
L 174.825479 230.274394
L 177.104282 225.45627
L 178.899853 220.437986
L 180.1949 215.267869
L 180.976951 209.995711
L 181.238474 204.672285
L 180.976951 199.348859
L 180.1949 194.076701
L 178.899853 188.906584
L 177.104282 183.8883
L 174.825479 179.070176
L 173.998011 177.689629
z
" clip-path="url(#pfa4d5c9655)" style="fill: #b97bb4; opacity: 0.55; stroke: #b97bb4; stroke-linejoin: miter"/>
   </g>
   <g id="patch_5">
    <path d="M 126.927303 258.983456
L 121.603877 258.721933
L 116.331719 257.939882
L 111.161602 256.644835
L 106.143318 254.849264
L 101.325194 252.570461
L 96.753633 249.830373
L 92.472661 246.655388
L 88.523506 243.076082
L 84.9442 239.126927
L 81.769215 234.845955
L 79.029127 230.274394
L 76.750324 225.45627
L 74.954753 220.437986
L 73.659706 215.267869
L 72.877655 209.995711
L 72.616132 204.672285
L 72.877655 199.348859
L 73.659706 194.076701
L 74.954753 188.906584
L 76.750324 183.8883
L 79.029127 179.070176
L 81.769215 174.498615
L 84.9442 170.217643
L 88.523506 166.268488
L 92.472661 162.689182
L 96.753633 159.514197
L 101.325194 156.774109
L 106.143318 154.495306
L 111.161602 152.699735
L 116.331719 151.404688
L 121.603877 150.622637
L 126.927303 150.361114
L 127.325918 150.380697
L 126.455215 151.833378
L 124.176412 156.651501
L 122.380841 161.669786
L 121.085794 166.839903
L 120.303744 172.112061
L 120.042221 177.435486
L 120.303744 182.758912
L 121.085794 188.03107
L 122.380841 193.201187
L 124.176412 198.219472
L 126.455215 203.037595
L 127.512918 204.802267
L 126.5699 206.375598
L 124.291097 211.193721
L 122.495526 216.212006
L 121.200479 221.382123
L 120.418429 226.654281
L 120.156905 231.977707
L 120.418429 237.301132
L 121.200479 242.573291
L 122.495526 247.743407
L 124.291097 252.761692
L 126.5699 257.579815
L 127.397368 258.960363
z
" clip-path="url(#pfa4d5c9655)" style="fill: #22c55e; opacity: 0.55; stroke: #22c55e; stroke-linejoin: miter"/>
   </g>
   <g id="patch_6">
    <path d="M 126.455215 203.037595
L 124.176412 198.219472
L 122.380841 193.201187
L 121.085794 188.03107
L 120.303744 182.758912
L 120.042221 177.435486
L 120.303744 172.112061
L 121.085794 166.839903
L 122.380841 161.669786
L 124.176412 156.651501
L 126.455215 151.833378
L 127.325918 150.380697
L 132.250729 150.622637
L 137.522887 151.404688
L 142.693004 152.699735
L 147.711288 154.495306
L 152.529412 156.774109
L 157.100973 159.514197
L 161.381945 162.689182
L 165.3311 166.268488
L 168.910406 170.217643
L 172.085391 174.498615
L 173.998011 177.689629
L 169.144651 177.928059
L 163.872492 178.71011
L 158.702376 180.005157
L 153.684091 181.800728
L 148.865968 184.07953
L 144.294406 186.819619
L 140.013434 189.994604
L 136.064279 193.57391
L 132.484973 197.523065
L 129.309988 201.804037
L 127.512918 204.802267
z
" clip-path="url(#pfa4d5c9655)" style="fill: #b7a246; opacity: 0.55; stroke: #b7a246; stroke-linejoin: miter"/>
   </g>
   <g id="patch_7">
    <path d="M 172.085391 234.845955
L 168.910406 239.126927
L 165.3311 243.076082
L 161.381945 246.655388
L 157.100973 249.830373
L 152.529412 252.570461
L 147.711288 254.849264
L 142.693004 256.644835
L 137.522887 257.939882
L 132.250729 258.721933
L 127.397368 258.960363
L 126.5699 257.579815
L 124.291097 252.761692
L 122.495526 247.743407
L 121.200479 242.573291
L 120.418429 237.301132
L 120.156905 231.977707
L 120.418429 226.654281
L 121.200479 221.382123
L 122.495526 216.212006
L 124.291097 211.193721
L 126.5699 206.375598
L 127.512918 204.802267
L 129.195303 207.609156
L 132.370289 211.890128
L 135.949594 215.839284
L 139.898749 219.418589
L 144.179721 222.593575
L 148.751283 225.333663
L 153.569406 227.612465
L 158.587691 229.408036
L 163.757807 230.703083
L 169.029966 231.485134
L 173.954776 231.727074
z
" clip-path="url(#pfa4d5c9655)" style="fill: #30a8bd; opacity: 0.55; stroke: #30a8bd; stroke-linejoin: miter"/>
   </g>
   <g id="patch_8">
    <path d="M 178.899853 220.437986
L 177.104282 225.45627
L 174.825479 230.274394
L 173.954776 231.727074
L 169.029966 231.485134
L 163.757807 230.703083
L 158.587691 229.408036
L 153.569406 227.612465
L 148.751283 225.333663
L 144.179721 222.593575
L 139.898749 219.418589
L 135.949594 215.839284
L 132.370289 211.890128
L 129.195303 207.609156
L 127.512918 204.802267
L 129.309988 201.804037
L 132.484973 197.523065
L 136.064279 193.57391
L 140.013434 189.994604
L 144.294406 186.819619
L 148.865968 184.07953
L 153.684091 181.800728
L 158.702376 180.005157
L 163.872492 178.71011
L 169.144651 177.928059
L 173.998011 177.689629
L 174.825479 179.070176
L 177.104282 183.8883
L 178.899853 188.906584
L 180.1949 194.076701
L 180.976951 199.348859
L 181.238474 204.672285
L 180.976951 209.995711
L 180.1949 215.267869
z
" clip-path="url(#pfa4d5c9655)" style="fill: #9b989e; opacity: 0.55; stroke: #9b989e; stroke-linejoin: miter"/>
   </g>
   <g id="text_1">
    <!-- 6.6% -->
    <g transform="translate(176.29628 154.777697) scale(0.1 -0.1)">
     <defs>
      <path id="Poppins-Medium-36" d="M 2893 3584
Q 2822 3878 2636 4025
Q 2451 4173 2118 4173
Q 1613 4173 1363 3785
Q 1114 3398 1101 2502
Q 1267 2784 1587 2937
Q 1907 3091 2278 3091
Q 2701 3091 3024 2908
Q 3347 2726 3529 2380
Q 3712 2035 3712 1555
Q 3712 1107 3536 755
Q 3360 403 3014 201
Q 2669 0 2182 0
Q 1523 0 1148 291
Q 774 582 624 1113
Q 474 1645 474 2438
Q 474 4781 2125 4781
Q 2765 4781 3133 4435
Q 3501 4090 3565 3584
L 2893 3584
z
M 2118 2477
Q 1728 2477 1456 2243
Q 1184 2010 1184 1568
Q 1184 1126 1437 867
Q 1690 608 2144 608
Q 2547 608 2780 857
Q 3014 1107 3014 1523
Q 3014 1958 2787 2217
Q 2560 2477 2118 2477
z
" transform="scale(0.015625)"/>
      <path id="Poppins-Medium-2e" d="M 774 -45
Q 576 -45 441 89
Q 307 224 307 422
Q 307 621 441 755
Q 576 890 774 890
Q 966 890 1100 755
Q 1235 621 1235 422
Q 1235 224 1100 89
Q 966 -45 774 -45
z
" transform="scale(0.015625)"/>
      <path id="Poppins-Medium-25" d="M 269 3539
Q 269 4006 541 4272
Q 813 4538 1242 4538
Q 1670 4538 1942 4272
Q 2214 4006 2214 3539
Q 2214 3072 1942 2803
Q 1670 2534 1242 2534
Q 813 2534 541 2803
Q 269 3072 269 3539
z
M 4173 4454
L 1619 0
L 902 0
L 3456 4454
L 4173 4454
z
M 1242 4096
Q 838 4096 838 3539
Q 838 2976 1242 2976
Q 1434 2976 1539 3113
Q 1645 3251 1645 3539
Q 1645 4096 1242 4096
z
M 2874 922
Q 2874 1389 3146 1654
Q 3418 1920 3846 1920
Q 4269 1920 4541 1654
Q 4813 1389 4813 922
Q 4813 454 4541 185
Q 4269 -83 3846 -83
Q 3418 -83 3146 185
Q 2874 454 2874 922
z
M 3840 1478
Q 3437 1478 3437 922
Q 3437 365 3840 365
Q 4243 365 4243 922
Q 4243 1478 3840 1478
z
" transform="scale(0.015625)"/>
     </defs>
     <use xlink:href="#Poppins-Medium-36"/>
     <use xlink:href="#Poppins-Medium-2e" transform="translate(64.199997 0)"/>
     <use xlink:href="#Poppins-Medium-36" transform="translate(88.299988 0)"/>
     <use xlink:href="#Poppins-Medium-25" transform="translate(152.499985 0)"/>
    </g>
   </g>
   <g id="text_2">
    <!-- 6.1% -->
    <g style="fill: #ffffff" transform="translate(177.853725 259.324412) scale(0.1 -0.1)">
     <defs>
      <path id="Poppins-Medium-31" d="M 288 4000
L 288 4666
L 1619 4666
L 1619 0
L 883 0
L 883 4000
L 288 4000
z
" transform="scale(0.015625)"/>
     </defs>
     <use xlink:href="#Poppins-Medium-36"/>
     <use xlink:href="#Poppins-Medium-2e" transform="translate(64.199997 0)"/>
     <use xlink:href="#Poppins-Medium-31" transform="translate(88.299988 0)"/>
     <use xlink:href="#Poppins-Medium-25" transform="translate(123.299973 0)"/>
    </g>
   </g>
   <g id="text_3">
    <!-- 12.6% -->
    <g transform="translate(185.878853 206.673939) scale(0.1 -0.1)">
     <defs>
      <path id="Poppins-Medium-32" d="M 787 992
Q 1402 1523 1757 1865
Q 2112 2208 2349 2579
Q 2586 2950 2586 3322
Q 2586 3706 2403 3923
Q 2221 4141 1830 4141
Q 1453 4141 1245 3901
Q 1037 3661 1024 3258
L 320 3258
Q 339 3987 758 4374
Q 1178 4762 1824 4762
Q 2522 4762 2915 4378
Q 3309 3994 3309 3354
Q 3309 2893 3075 2467
Q 2842 2042 2518 1706
Q 2195 1370 1696 928
L 1408 672
L 3437 672
L 3437 64
L 326 64
L 326 595
L 787 992
z
" transform="scale(0.015625)"/>
     </defs>
     <use xlink:href="#Poppins-Medium-31"/>
     <use xlink:href="#Poppins-Medium-32" transform="translate(34.999985 0)"/>
     <use xlink:href="#Poppins-Medium-2e" transform="translate(92.699982 0)"/>
     <use xlink:href="#Poppins-Medium-36" transform="translate(116.799973 0)"/>
     <use xlink:href="#Poppins-Medium-25" transform="translate(180.999969 0)"/>
    </g>
   </g>
   <g id="text_4">
    <!-- 5.1% -->
    <g transform="translate(88.671295 207.486435) scale(0.1 -0.1)">
     <defs>
      <path id="Poppins-Medium-35" d="M 3392 4038
L 1248 4038
L 1248 2765
Q 1382 2944 1648 3065
Q 1914 3187 2214 3187
Q 2752 3187 3088 2956
Q 3424 2726 3568 2374
Q 3712 2022 3712 1632
Q 3712 1158 3529 790
Q 3347 422 2985 211
Q 2624 0 2099 0
Q 1402 0 979 345
Q 557 691 474 1261
L 1184 1261
Q 1254 960 1497 784
Q 1741 608 2106 608
Q 2560 608 2787 883
Q 3014 1158 3014 1613
Q 3014 2074 2784 2320
Q 2554 2566 2106 2566
Q 1792 2566 1577 2409
Q 1363 2253 1267 1984
L 576 1984
L 576 4678
L 3392 4678
L 3392 4038
z
" transform="scale(0.015625)"/>
     </defs>
     <use xlink:href="#Poppins-Medium-35"/>
     <use xlink:href="#Poppins-Medium-2e" transform="translate(63.899994 0)"/>
     <use xlink:href="#Poppins-Medium-31" transform="translate(87.999985 0)"/>
     <use xlink:href="#Poppins-Medium-25" transform="translate(122.999969 0)"/>
    </g>
   </g>
   <g id="text_5">
    <!-- 17.2% -->
    <g transform="translate(125.481421 172.753461) scale(0.1 -0.1)">
     <defs>
      <path id="Poppins-Medium-37" d="M 3341 4102
L 1562 0
L 826 0
L 2624 4026
L 256 4026
L 256 4646
L 3341 4646
L 3341 4102
z
" transform="scale(0.015625)"/>
     </defs>
     <use xlink:href="#Poppins-Medium-31"/>
     <use xlink:href="#Poppins-Medium-37" transform="translate(34.999985 0)"/>
     <use xlink:href="#Poppins-Medium-2e" transform="translate(90.999969 0)"/>
     <use xlink:href="#Poppins-Medium-32" transform="translate(115.09996 0)"/>
     <use xlink:href="#Poppins-Medium-25" transform="translate(172.799957 0)"/>
    </g>
   </g>
   <g id="text_6">
    <!-- 19.0% -->
    <g transform="translate(124.865841 241.464031) scale(0.1 -0.1)">
     <defs>
      <path id="Poppins-Medium-39" d="M 1293 1267
Q 1357 947 1568 780
Q 1779 614 2138 614
Q 2592 614 2803 972
Q 3014 1331 3014 2195
Q 2861 1978 2582 1859
Q 2304 1741 1978 1741
Q 1562 1741 1222 1910
Q 883 2080 688 2416
Q 493 2752 493 3232
Q 493 3936 905 4355
Q 1318 4774 2042 4774
Q 2912 4774 3280 4195
Q 3648 3616 3648 2419
Q 3648 1594 3510 1069
Q 3373 544 3033 275
Q 2694 6 2093 6
Q 1408 6 1037 364
Q 666 723 621 1267
L 1293 1267
z
M 2106 2355
Q 2490 2355 2710 2595
Q 2931 2835 2931 3232
Q 2931 3674 2697 3920
Q 2464 4166 2061 4166
Q 1658 4166 1424 3913
Q 1190 3661 1190 3251
Q 1190 2861 1417 2608
Q 1645 2355 2106 2355
z
" transform="scale(0.015625)"/>
      <path id="Poppins-Medium-30" d="M 384 2394
Q 384 3501 758 4125
Q 1133 4749 2048 4749
Q 2963 4749 3337 4125
Q 3712 3501 3712 2394
Q 3712 1274 3337 643
Q 2963 13 2048 13
Q 1133 13 758 643
Q 384 1274 384 2394
z
M 2995 2394
Q 2995 2912 2928 3270
Q 2861 3629 2656 3856
Q 2451 4083 2048 4083
Q 1645 4083 1440 3856
Q 1235 3629 1168 3270
Q 1101 2912 1101 2394
Q 1101 1856 1165 1491
Q 1229 1126 1437 902
Q 1645 678 2048 678
Q 2451 678 2659 902
Q 2867 1126 2931 1491
Q 2995 1856 2995 2394
z
" transform="scale(0.015625)"/>
     </defs>
     <use xlink:href="#Poppins-Medium-31"/>
     <use xlink:href="#Poppins-Medium-39" transform="translate(34.999985 0)"/>
     <use xlink:href="#Poppins-Medium-2e" transform="translate(98.499969 0)"/>
     <use xlink:href="#Poppins-Medium-30" transform="translate(122.59996 0)"/>
     <use xlink:href="#Poppins-Medium-25" transform="translate(186.699951 0)"/>
    </g>
   </g>
   <g id="text_7">
    <!-- 33.4% -->
    <g transform="translate(143.824423 207.520363) scale(0.1 -0.1)">
     <defs>
      <path id="Poppins-Medium-33" d="M 371 3514
Q 410 4109 829 4441
Q 1248 4774 1901 4774
Q 2349 4774 2675 4614
Q 3002 4454 3168 4179
Q 3334 3904 3334 3558
Q 3334 3162 3123 2880
Q 2912 2598 2618 2502
L 2618 2477
Q 2995 2362 3206 2058
Q 3418 1754 3418 1280
Q 3418 902 3245 608
Q 3072 314 2733 144
Q 2394 -26 1920 -26
Q 1229 -26 784 329
Q 339 685 307 1350
L 1011 1350
Q 1037 1011 1273 796
Q 1510 582 1914 582
Q 2304 582 2515 796
Q 2726 1011 2726 1350
Q 2726 1798 2441 1987
Q 2157 2176 1568 2176
L 1402 2176
L 1402 2778
L 1574 2778
Q 2093 2784 2365 2950
Q 2637 3117 2637 3475
Q 2637 3782 2438 3964
Q 2240 4147 1875 4147
Q 1517 4147 1318 3964
Q 1120 3782 1082 3514
L 371 3514
z
" transform="scale(0.015625)"/>
      <path id="Poppins-Medium-34" d="M 294 973
L 294 1523
L 2445 4608
L 3328 4608
L 3328 1606
L 3923 1606
L 3923 973
L 3328 973
L 3328 0
L 2611 0
L 2611 973
L 294 973
z
M 2643 3866
L 1133 1606
L 2643 1606
L 2643 3866
z
" transform="scale(0.015625)"/>
     </defs>
     <use xlink:href="#Poppins-Medium-33"/>
     <use xlink:href="#Poppins-Medium-33" transform="translate(59.399994 0)"/>
     <use xlink:href="#Poppins-Medium-2e" transform="translate(118.799988 0)"/>
     <use xlink:href="#Poppins-Medium-34" transform="translate(142.899979 0)"/>
     <use xlink:href="#Poppins-Medium-25" transform="translate(207.599976 0)"/>
    </g>
   </g>
   <g id="text_8">
    <!-- Electronics -->
    <g transform="translate(7.2 208.665985) scale(0.1 -0.1)">
     <defs>
      <path id="Poppins-Regular-45" d="M 1075 3987
L 1075 2496
L 2701 2496
L 2701 2016
L 1075 2016
L 1075 480
L 2893 480
L 2893 0
L 493 0
L 493 4467
L 2893 4467
L 2893 3987
L 1075 3987
z
" transform="scale(0.015625)"/>
      <path id="Poppins-Regular-6c" d="M 1075 4736
L 1075 0
L 493 0
L 493 4736
L 1075 4736
z
" transform="scale(0.015625)"/>
      <path id="Poppins-Regular-65" d="M 3693 1888
Q 3693 1722 3674 1536
L 870 1536
Q 902 1018 1225 726
Q 1549 435 2010 435
Q 2387 435 2640 611
Q 2893 787 2995 1082
L 3622 1082
Q 3482 576 3059 259
Q 2637 -58 2010 -58
Q 1510 -58 1116 166
Q 723 390 499 803
Q 275 1216 275 1760
Q 275 2304 492 2713
Q 710 3123 1104 3344
Q 1498 3565 2010 3565
Q 2509 3565 2893 3347
Q 3277 3130 3485 2749
Q 3693 2368 3693 1888
z
M 3091 2010
Q 3091 2342 2944 2582
Q 2797 2822 2544 2947
Q 2291 3072 1984 3072
Q 1542 3072 1232 2790
Q 922 2509 877 2010
L 3091 2010
z
" transform="scale(0.015625)"/>
      <path id="Poppins-Regular-63" d="M 275 1760
Q 275 2304 492 2710
Q 710 3117 1097 3341
Q 1485 3565 1984 3565
Q 2630 3565 3049 3251
Q 3469 2938 3603 2381
L 2976 2381
Q 2886 2701 2627 2886
Q 2368 3072 1984 3072
Q 1485 3072 1177 2729
Q 870 2387 870 1760
Q 870 1126 1177 780
Q 1485 435 1984 435
Q 2368 435 2624 614
Q 2880 794 2976 1126
L 3603 1126
Q 3462 589 3040 265
Q 2618 -58 1984 -58
Q 1485 -58 1097 166
Q 710 390 492 800
Q 275 1210 275 1760
z
" transform="scale(0.015625)"/>
      <path id="Poppins-Regular-74" d="M 1203 3027
L 1203 960
Q 1203 704 1312 598
Q 1421 493 1690 493
L 2118 493
L 2118 0
L 1594 0
Q 1107 0 864 224
Q 621 448 621 960
L 621 3027
L 166 3027
L 166 3507
L 621 3507
L 621 4390
L 1203 4390
L 1203 3507
L 2118 3507
L 2118 3027
L 1203 3027
z
" transform="scale(0.015625)"/>
      <path id="Poppins-Regular-72" d="M 1075 2938
Q 1229 3238 1513 3404
Q 1798 3571 2208 3571
L 2208 2970
L 2054 2970
Q 1075 2970 1075 1907
L 1075 0
L 493 0
L 493 3507
L 1075 3507
L 1075 2938
z
" transform="scale(0.015625)"/>
      <path id="Poppins-Regular-6f" d="M 2022 -58
Q 1530 -58 1130 166
Q 730 390 502 803
Q 275 1216 275 1760
Q 275 2298 508 2710
Q 742 3123 1145 3344
Q 1549 3565 2048 3565
Q 2547 3565 2950 3344
Q 3354 3123 3587 2713
Q 3821 2304 3821 1760
Q 3821 1216 3581 803
Q 3341 390 2931 166
Q 2522 -58 2022 -58
z
M 2022 454
Q 2336 454 2611 601
Q 2886 749 3056 1043
Q 3226 1338 3226 1760
Q 3226 2182 3059 2476
Q 2893 2771 2624 2915
Q 2355 3059 2042 3059
Q 1722 3059 1456 2915
Q 1190 2771 1030 2476
Q 870 2182 870 1760
Q 870 1331 1027 1036
Q 1184 742 1446 598
Q 1709 454 2022 454
z
" transform="scale(0.015625)"/>
      <path id="Poppins-Regular-6e" d="M 2202 3571
Q 2842 3571 3238 3184
Q 3635 2797 3635 2067
L 3635 0
L 3059 0
L 3059 1984
Q 3059 2509 2796 2787
Q 2534 3066 2080 3066
Q 1619 3066 1347 2778
Q 1075 2490 1075 1939
L 1075 0
L 493 0
L 493 3507
L 1075 3507
L 1075 3008
Q 1248 3277 1545 3424
Q 1843 3571 2202 3571
z
" transform="scale(0.015625)"/>
      <path id="Poppins-Regular-69" d="M 794 4077
Q 627 4077 512 4192
Q 397 4307 397 4474
Q 397 4640 512 4755
Q 627 4870 794 4870
Q 954 4870 1066 4755
Q 1178 4640 1178 4474
Q 1178 4307 1066 4192
Q 954 4077 794 4077
z
M 1075 3507
L 1075 0
L 493 0
L 493 3507
L 1075 3507
z
" transform="scale(0.015625)"/>
      <path id="Poppins-Regular-73" d="M 1734 -58
Q 1331 -58 1011 80
Q 691 218 505 464
Q 320 710 301 1030
L 902 1030
Q 928 768 1149 601
Q 1370 435 1728 435
Q 2061 435 2253 582
Q 2445 730 2445 954
Q 2445 1184 2240 1296
Q 2035 1408 1606 1517
Q 1216 1619 969 1724
Q 723 1830 547 2038
Q 371 2246 371 2586
Q 371 2854 531 3078
Q 691 3302 985 3433
Q 1280 3565 1658 3565
Q 2240 3565 2598 3270
Q 2957 2976 2982 2464
L 2400 2464
Q 2381 2739 2179 2905
Q 1978 3072 1638 3072
Q 1325 3072 1139 2937
Q 954 2803 954 2586
Q 954 2413 1066 2301
Q 1178 2189 1347 2121
Q 1517 2054 1818 1971
Q 2195 1869 2432 1769
Q 2669 1670 2838 1472
Q 3008 1274 3014 954
Q 3014 666 2854 435
Q 2694 205 2403 73
Q 2112 -58 1734 -58
z
" transform="scale(0.015625)"/>
     </defs>
     <use xlink:href="#Poppins-Regular-45"/>
     <use xlink:href="#Poppins-Regular-6c" transform="translate(51.299988 0)"/>
     <use xlink:href="#Poppins-Regular-65" transform="translate(75.899979 0)"/>
     <use xlink:href="#Poppins-Regular-63" transform="translate(137.899963 0)"/>
     <use xlink:href="#Poppins-Regular-74" transform="translate(198.59996 0)"/>
     <use xlink:href="#Poppins-Regular-72" transform="translate(234.999954 0)"/>
     <use xlink:href="#Poppins-Regular-6f" transform="translate(272.299942 0)"/>
     <use xlink:href="#Poppins-Regular-6e" transform="translate(336.299927 0)"/>
     <use xlink:href="#Poppins-Regular-69" transform="translate(400.299911 0)"/>
     <use xlink:href="#Poppins-Regular-63" transform="translate(424.899902 0)"/>
     <use xlink:href="#Poppins-Regular-73" transform="translate(485.599899 0)"/>
    </g>
   </g>
   <g id="text_9">
    <!-- Clothing -->
    <g transform="translate(184.189885 297.58555) scale(0.1 -0.1)">
     <defs>
      <path id="Poppins-Regular-43" d="M 275 2234
Q 275 2886 569 3408
Q 864 3930 1373 4224
Q 1882 4518 2502 4518
Q 3232 4518 3776 4166
Q 4320 3814 4570 3168
L 3872 3168
Q 3686 3571 3337 3788
Q 2989 4006 2502 4006
Q 2035 4006 1664 3788
Q 1293 3571 1081 3171
Q 870 2771 870 2234
Q 870 1702 1081 1302
Q 1293 902 1664 684
Q 2035 467 2502 467
Q 2989 467 3337 681
Q 3686 896 3872 1299
L 4570 1299
Q 4320 659 3776 310
Q 3232 -38 2502 -38
Q 1882 -38 1373 253
Q 864 544 569 1062
Q 275 1581 275 2234
z
" transform="scale(0.015625)"/>
      <path id="Poppins-Regular-68" d="M 2234 3571
Q 2630 3571 2950 3401
Q 3270 3232 3452 2893
Q 3635 2554 3635 2067
L 3635 0
L 3059 0
L 3059 1984
Q 3059 2509 2796 2787
Q 2534 3066 2080 3066
Q 1619 3066 1347 2778
Q 1075 2490 1075 1939
L 1075 0
L 493 0
L 493 4736
L 1075 4736
L 1075 3008
Q 1248 3277 1552 3424
Q 1856 3571 2234 3571
z
" transform="scale(0.015625)"/>
      <path id="Poppins-Regular-67" d="M 1939 3565
Q 2394 3565 2736 3366
Q 3078 3168 3245 2867
L 3245 3507
L 3834 3507
L 3834 -77
Q 3834 -557 3629 -931
Q 3424 -1306 3043 -1517
Q 2662 -1728 2157 -1728
Q 1466 -1728 1005 -1401
Q 544 -1075 461 -512
L 1037 -512
Q 1133 -832 1433 -1027
Q 1734 -1222 2157 -1222
Q 2637 -1222 2941 -921
Q 3245 -621 3245 -77
L 3245 659
Q 3072 352 2733 147
Q 2394 -58 1939 -58
Q 1472 -58 1091 172
Q 710 403 492 819
Q 275 1235 275 1766
Q 275 2304 492 2710
Q 710 3117 1091 3341
Q 1472 3565 1939 3565
z
M 3245 1760
Q 3245 2157 3085 2451
Q 2925 2746 2653 2902
Q 2381 3059 2054 3059
Q 1728 3059 1459 2905
Q 1190 2752 1030 2457
Q 870 2163 870 1766
Q 870 1363 1030 1065
Q 1190 768 1459 611
Q 1728 454 2054 454
Q 2381 454 2653 611
Q 2925 768 3085 1065
Q 3245 1363 3245 1760
z
" transform="scale(0.015625)"/>
     </defs>
     <use xlink:href="#Poppins-Regular-43"/>
     <use xlink:href="#Poppins-Regular-6c" transform="translate(77.199982 0)"/>
     <use xlink:href="#Poppins-Regular-6f" transform="translate(101.799973 0)"/>
     <use xlink:href="#Poppins-Regular-74" transform="translate(165.799957 0)"/>
     <use xlink:href="#Poppins-Regular-68" transform="translate(202.199951 0)"/>
     <use xlink:href="#Poppins-Regular-69" transform="translate(266.199936 0)"/>
     <use xlink:href="#Poppins-Regular-6e" transform="translate(290.799927 0)"/>
     <use xlink:href="#Poppins-Regular-67" transform="translate(354.799911 0)"/>
    </g>
   </g>
   <g id="text_10">
    <!-- Home -->
    <g transform="translate(191.147313 116.959825) scale(0.1 -0.1)">
     <defs>
      <path id="Poppins-Regular-48" d="M 3930 4461
L 3930 0
L 3347 0
L 3347 2022
L 1075 2022
L 1075 0
L 493 0
L 493 4461
L 1075 4461
L 1075 2502
L 3347 2502
L 3347 4461
L 3930 4461
z
" transform="scale(0.015625)"/>
      <path id="Poppins-Regular-6d" d="M 4710 3571
Q 5120 3571 5440 3401
Q 5760 3232 5945 2893
Q 6131 2554 6131 2067
L 6131 0
L 5555 0
L 5555 1984
Q 5555 2509 5296 2787
Q 5037 3066 4595 3066
Q 4141 3066 3872 2774
Q 3603 2483 3603 1933
L 3603 0
L 3027 0
L 3027 1984
Q 3027 2509 2768 2787
Q 2509 3066 2067 3066
Q 1613 3066 1344 2774
Q 1075 2483 1075 1933
L 1075 0
L 493 0
L 493 3507
L 1075 3507
L 1075 3002
Q 1248 3277 1539 3424
Q 1830 3571 2182 3571
Q 2624 3571 2963 3372
Q 3302 3174 3469 2790
Q 3616 3162 3955 3366
Q 4294 3571 4710 3571
z
" transform="scale(0.015625)"/>
     </defs>
     <use xlink:href="#Poppins-Regular-48"/>
     <use xlink:href="#Poppins-Regular-6f" transform="translate(69.199982 0)"/>
     <use xlink:href="#Poppins-Regular-6d" transform="translate(133.199966 0)"/>
     <use xlink:href="#Poppins-Regular-65" transform="translate(236.199951 0)"/>
    </g>
   </g>
  </g>
  <g id="_ors_chrome:139127949766992">
   <path d="M 20.288877 10.08
L 54.128877 10.08
L 54.128877 7.2
L 20.288877 7.2
z
" style="fill: #16a34a"/>
  </g>
  <g id="_ors_chrome:139127949766992">
   <!-- CROSS-SHOP -->
   <g style="fill: #737373" transform="translate(20.288877 26.84) scale(0.1 -0.1)">
    <defs>
     <path id="Poppins-SemiBold-43" d="M 224 2240
Q 224 2899 521 3420
Q 819 3942 1334 4233
Q 1850 4525 2490 4525
Q 3238 4525 3801 4141
Q 4365 3757 4589 3078
L 3558 3078
Q 3405 3398 3126 3558
Q 2848 3718 2483 3718
Q 2093 3718 1789 3536
Q 1485 3354 1315 3021
Q 1146 2688 1146 2240
Q 1146 1798 1315 1462
Q 1485 1126 1789 944
Q 2093 762 2483 762
Q 2848 762 3126 925
Q 3405 1088 3558 1408
L 4589 1408
Q 4365 723 3805 342
Q 3245 -38 2490 -38
Q 1850 -38 1334 253
Q 819 544 521 1062
Q 224 1581 224 2240
z
" transform="scale(0.015625)"/>
     <path id="Poppins-SemiBold-52" d="M 2746 0
L 1760 1741
L 1338 1741
L 1338 0
L 442 0
L 442 4467
L 2118 4467
Q 2637 4467 3001 4284
Q 3366 4102 3548 3792
Q 3731 3482 3731 3098
Q 3731 2656 3475 2301
Q 3219 1946 2714 1811
L 3782 0
L 2746 0
z
M 1338 2413
L 2086 2413
Q 2451 2413 2630 2589
Q 2810 2765 2810 3078
Q 2810 3386 2630 3555
Q 2451 3725 2086 3725
L 1338 3725
L 1338 2413
z
" transform="scale(0.015625)"/>
     <path id="Poppins-SemiBold-4f" d="M 2515 -45
Q 1888 -45 1363 249
Q 838 544 531 1065
Q 224 1587 224 2246
Q 224 2899 531 3420
Q 838 3942 1363 4236
Q 1888 4531 2515 4531
Q 3149 4531 3670 4236
Q 4192 3942 4496 3420
Q 4800 2899 4800 2246
Q 4800 1587 4496 1065
Q 4192 544 3667 249
Q 3142 -45 2515 -45
z
M 2515 755
Q 2918 755 3225 937
Q 3533 1120 3705 1459
Q 3878 1798 3878 2246
Q 3878 2694 3705 3030
Q 3533 3366 3225 3545
Q 2918 3725 2515 3725
Q 2112 3725 1801 3545
Q 1491 3366 1318 3030
Q 1146 2694 1146 2246
Q 1146 1798 1318 1459
Q 1491 1120 1801 937
Q 2112 755 2515 755
z
" transform="scale(0.015625)"/>
     <path id="Poppins-SemiBold-53" d="M 1984 -45
Q 1517 -45 1142 115
Q 768 275 550 576
Q 333 877 326 1286
L 1286 1286
Q 1306 1011 1482 851
Q 1658 691 1965 691
Q 2278 691 2457 841
Q 2637 992 2637 1235
Q 2637 1434 2515 1562
Q 2394 1690 2211 1763
Q 2029 1837 1709 1926
Q 1274 2054 1002 2179
Q 730 2304 534 2557
Q 339 2810 339 3232
Q 339 3629 537 3923
Q 736 4218 1094 4374
Q 1453 4531 1914 4531
Q 2605 4531 3037 4195
Q 3469 3859 3514 3258
L 2528 3258
Q 2515 3488 2332 3638
Q 2150 3789 1850 3789
Q 1587 3789 1430 3654
Q 1274 3520 1274 3264
Q 1274 3085 1392 2966
Q 1510 2848 1686 2774
Q 1862 2701 2182 2605
Q 2618 2477 2893 2349
Q 3168 2221 3366 1965
Q 3565 1709 3565 1293
Q 3565 934 3379 627
Q 3194 320 2835 137
Q 2477 -45 1984 -45
z
" transform="scale(0.015625)"/>
     <path id="Poppins-SemiBold-2d" d="M 3168 2662
L 3168 1907
L 454 1907
L 454 2662
L 3168 2662
z
" transform="scale(0.015625)"/>
     <path id="Poppins-SemiBold-48" d="M 4147 4467
L 4147 0
L 3251 0
L 3251 1901
L 1338 1901
L 1338 0
L 442 0
L 442 4467
L 1338 4467
L 1338 2630
L 3251 2630
L 3251 4467
L 4147 4467
z
" transform="scale(0.015625)"/>
     <path id="Poppins-SemiBold-50" d="M 3699 3085
Q 3699 2726 3529 2412
Q 3360 2099 2998 1907
Q 2637 1715 2086 1715
L 1338 1715
L 1338 0
L 442 0
L 442 4467
L 2086 4467
Q 2605 4467 2969 4288
Q 3334 4109 3516 3795
Q 3699 3482 3699 3085
z
M 2048 2438
Q 2419 2438 2598 2608
Q 2778 2778 2778 3085
Q 2778 3738 2048 3738
L 1338 3738
L 1338 2438
L 2048 2438
z
" transform="scale(0.015625)"/>
    </defs>
    <use xlink:href="#Poppins-SemiBold-43"/>
    <use xlink:href="#Poppins-SemiBold-52" transform="translate(76.799988 0)"/>
    <use xlink:href="#Poppins-SemiBold-4f" transform="translate(140.899979 0)"/>
    <use xlink:href="#Poppins-SemiBold-53" transform="translate(219.399963 0)"/>
    <use xlink:href="#Poppins-SemiBold-53" transform="translate(280.299957 0)"/>
    <use xlink:href="#Poppins-SemiBold-2d" transform="translate(341.199951 0)"/>
    <use xlink:href="#Poppins-SemiBold-53" transform="translate(399.499939 0)"/>
    <use xlink:href="#Poppins-SemiBold-48" transform="translate(460.399933 0)"/>
    <use xlink:href="#Poppins-SemiBold-4f" transform="translate(532.099915 0)"/>
    <use xlink:href="#Poppins-SemiBold-50" transform="translate(610.599899 0)"/>
   </g>
  </g>
  <g id="_ors_chrome:139127949766992">
   <!-- One in three shoppers buys across all -->
   <g style="fill: #0a0a0a" transform="translate(20.288877 51.809375) scale(0.22 -0.22)">
    <defs>
     <path id="Poppins-SemiBold-6e" d="M 2406 3597
Q 3040 3597 3430 3197
Q 3821 2797 3821 2080
L 3821 0
L 2925 0
L 2925 1958
Q 2925 2381 2713 2608
Q 2502 2835 2138 2835
Q 1766 2835 1552 2608
Q 1338 2381 1338 1958
L 1338 0
L 442 0
L 442 3546
L 1338 3546
L 1338 3104
Q 1517 3334 1795 3465
Q 2074 3597 2406 3597
z
" transform="scale(0.015625)"/>
     <path id="Poppins-SemiBold-65" d="M 3738 1850
Q 3738 1658 3712 1504
L 1120 1504
Q 1152 1120 1389 902
Q 1626 685 1971 685
Q 2470 685 2682 1114
L 3648 1114
Q 3494 602 3059 272
Q 2624 -58 1990 -58
Q 1478 -58 1072 169
Q 666 397 438 813
Q 211 1229 211 1773
Q 211 2323 435 2739
Q 659 3155 1062 3379
Q 1466 3603 1990 3603
Q 2496 3603 2896 3385
Q 3296 3168 3517 2768
Q 3738 2368 3738 1850
z
M 2810 2106
Q 2803 2451 2560 2659
Q 2317 2867 1965 2867
Q 1632 2867 1405 2665
Q 1178 2464 1126 2106
L 2810 2106
z
" transform="scale(0.015625)"/>
     <path id="Poppins-SemiBold-20" transform="scale(0.015625)"/>
     <path id="Poppins-SemiBold-69" d="M 896 3968
Q 659 3968 502 4118
Q 346 4269 346 4493
Q 346 4717 502 4867
Q 659 5018 896 5018
Q 1133 5018 1289 4867
Q 1446 4717 1446 4493
Q 1446 4269 1289 4118
Q 1133 3968 896 3968
z
M 1338 3546
L 1338 0
L 442 0
L 442 3546
L 1338 3546
z
" transform="scale(0.015625)"/>
     <path id="Poppins-SemiBold-74" d="M 1485 2810
L 1485 1094
Q 1485 915 1571 835
Q 1658 755 1862 755
L 2278 755
L 2278 0
L 1715 0
Q 582 0 582 1101
L 582 2810
L 160 2810
L 160 3546
L 582 3546
L 582 4422
L 1485 4422
L 1485 3546
L 2278 3546
L 2278 2810
L 1485 2810
z
" transform="scale(0.015625)"/>
     <path id="Poppins-SemiBold-68" d="M 2438 3597
Q 2842 3597 3155 3421
Q 3469 3245 3645 2902
Q 3821 2560 3821 2080
L 3821 0
L 2925 0
L 2925 1958
Q 2925 2381 2713 2608
Q 2502 2835 2138 2835
Q 1766 2835 1552 2608
Q 1338 2381 1338 1958
L 1338 0
L 442 0
L 442 4736
L 1338 4736
L 1338 3104
Q 1510 3334 1798 3465
Q 2086 3597 2438 3597
z
" transform="scale(0.015625)"/>
     <path id="Poppins-SemiBold-72" d="M 1338 2995
Q 1510 3277 1788 3437
Q 2067 3597 2426 3597
L 2426 2656
L 2189 2656
Q 1766 2656 1552 2457
Q 1338 2259 1338 1766
L 1338 0
L 442 0
L 442 3546
L 1338 3546
L 1338 2995
z
" transform="scale(0.015625)"/>
     <path id="Poppins-SemiBold-73" d="M 1798 -58
Q 1363 -58 1017 99
Q 672 256 470 525
Q 269 794 250 1120
L 1152 1120
Q 1178 915 1354 780
Q 1530 646 1792 646
Q 2048 646 2192 748
Q 2336 851 2336 1011
Q 2336 1184 2160 1270
Q 1984 1357 1600 1459
Q 1203 1555 950 1657
Q 698 1760 515 1971
Q 333 2182 333 2541
Q 333 2835 502 3078
Q 672 3322 989 3462
Q 1306 3603 1734 3603
Q 2368 3603 2745 3286
Q 3123 2970 3162 2432
L 2304 2432
Q 2285 2643 2128 2768
Q 1971 2893 1709 2893
Q 1466 2893 1334 2803
Q 1203 2714 1203 2554
Q 1203 2374 1382 2281
Q 1562 2189 1939 2093
Q 2323 1997 2572 1894
Q 2822 1792 3004 1577
Q 3187 1363 3194 1011
Q 3194 704 3024 461
Q 2854 218 2537 80
Q 2221 -58 1798 -58
z
" transform="scale(0.015625)"/>
     <path id="Poppins-SemiBold-6f" d="M 2016 -58
Q 1504 -58 1094 169
Q 685 397 451 813
Q 218 1229 218 1773
Q 218 2317 458 2733
Q 698 3149 1114 3376
Q 1530 3603 2042 3603
Q 2554 3603 2970 3376
Q 3386 3149 3626 2733
Q 3866 2317 3866 1773
Q 3866 1229 3619 813
Q 3373 397 2953 169
Q 2534 -58 2016 -58
z
M 2016 723
Q 2259 723 2473 841
Q 2688 960 2816 1197
Q 2944 1434 2944 1773
Q 2944 2278 2678 2550
Q 2413 2822 2029 2822
Q 1645 2822 1385 2550
Q 1126 2278 1126 1773
Q 1126 1267 1379 995
Q 1632 723 2016 723
z
" transform="scale(0.015625)"/>
     <path id="Poppins-SemiBold-70" d="M 1338 3034
Q 1510 3277 1814 3440
Q 2118 3603 2509 3603
Q 2963 3603 3331 3379
Q 3699 3155 3913 2742
Q 4128 2330 4128 1786
Q 4128 1242 3913 822
Q 3699 403 3331 172
Q 2963 -58 2509 -58
Q 2118 -58 1820 102
Q 1523 262 1338 506
L 1338 -1690
L 442 -1690
L 442 3546
L 1338 3546
L 1338 3034
z
M 3213 1786
Q 3213 2106 3081 2339
Q 2950 2573 2736 2694
Q 2522 2816 2272 2816
Q 2029 2816 1814 2691
Q 1600 2566 1469 2329
Q 1338 2093 1338 1773
Q 1338 1453 1469 1216
Q 1600 979 1814 854
Q 2029 730 2272 730
Q 2522 730 2736 858
Q 2950 986 3081 1222
Q 3213 1459 3213 1786
z
" transform="scale(0.015625)"/>
     <path id="Poppins-SemiBold-62" d="M 1338 3027
Q 1510 3283 1814 3443
Q 2118 3603 2509 3603
Q 2963 3603 3331 3379
Q 3699 3155 3913 2742
Q 4128 2330 4128 1786
Q 4128 1242 3913 822
Q 3699 403 3331 172
Q 2963 -58 2509 -58
Q 2112 -58 1814 99
Q 1517 256 1338 506
L 1338 0
L 442 0
L 442 4736
L 1338 4736
L 1338 3027
z
M 3213 1786
Q 3213 2106 3081 2339
Q 2950 2573 2736 2694
Q 2522 2816 2272 2816
Q 2029 2816 1814 2691
Q 1600 2566 1469 2329
Q 1338 2093 1338 1773
Q 1338 1453 1469 1216
Q 1600 979 1814 854
Q 2029 730 2272 730
Q 2522 730 2736 858
Q 2950 986 3081 1222
Q 3213 1459 3213 1786
z
" transform="scale(0.015625)"/>
     <path id="Poppins-SemiBold-75" d="M 3789 3546
L 3789 0
L 2886 0
L 2886 448
Q 2714 218 2435 86
Q 2157 -45 1830 -45
Q 1414 -45 1094 131
Q 774 307 592 649
Q 410 992 410 1466
L 410 3546
L 1306 3546
L 1306 1594
Q 1306 1171 1517 944
Q 1728 717 2093 717
Q 2464 717 2675 944
Q 2886 1171 2886 1594
L 2886 3546
L 3789 3546
z
" transform="scale(0.015625)"/>
     <path id="Poppins-SemiBold-79" d="M 3834 3546
L 1638 -1677
L 685 -1677
L 1453 90
L 32 3546
L 1037 3546
L 1952 1069
L 2880 3546
L 3834 3546
z
" transform="scale(0.015625)"/>
     <path id="Poppins-SemiBold-61" d="M 211 1786
Q 211 2323 425 2739
Q 640 3155 1008 3379
Q 1376 3603 1830 3603
Q 2227 3603 2524 3443
Q 2822 3283 3002 3040
L 3002 3546
L 3904 3546
L 3904 0
L 3002 0
L 3002 518
Q 2829 269 2525 105
Q 2221 -58 1824 -58
Q 1376 -58 1008 172
Q 640 403 425 822
Q 211 1242 211 1786
z
M 3002 1773
Q 3002 2099 2874 2332
Q 2746 2566 2528 2691
Q 2310 2816 2061 2816
Q 1811 2816 1600 2694
Q 1389 2573 1257 2339
Q 1126 2106 1126 1786
Q 1126 1466 1257 1226
Q 1389 986 1603 858
Q 1818 730 2061 730
Q 2310 730 2528 854
Q 2746 979 2874 1212
Q 3002 1446 3002 1773
z
" transform="scale(0.015625)"/>
     <path id="Poppins-SemiBold-63" d="M 211 1773
Q 211 2323 435 2736
Q 659 3149 1056 3376
Q 1453 3603 1965 3603
Q 2624 3603 3056 3273
Q 3488 2944 3635 2349
L 2669 2349
Q 2592 2579 2409 2710
Q 2227 2842 1958 2842
Q 1574 2842 1350 2563
Q 1126 2285 1126 1773
Q 1126 1267 1350 988
Q 1574 710 1958 710
Q 2502 710 2669 1197
L 3635 1197
Q 3488 621 3053 281
Q 2618 -58 1965 -58
Q 1453 -58 1056 169
Q 659 397 435 809
Q 211 1222 211 1773
z
" transform="scale(0.015625)"/>
     <path id="Poppins-SemiBold-6c" d="M 1338 4736
L 1338 0
L 442 0
L 442 4736
L 1338 4736
z
" transform="scale(0.015625)"/>
    </defs>
    <use xlink:href="#Poppins-SemiBold-4f"/>
    <use xlink:href="#Poppins-SemiBold-6e" transform="translate(78.499985 0)"/>
    <use xlink:href="#Poppins-SemiBold-65" transform="translate(144.599976 0)"/>
    <use xlink:href="#Poppins-SemiBold-20" transform="translate(206.299973 0)"/>
    <use xlink:href="#Poppins-SemiBold-69" transform="translate(230.09996 0)"/>
    <use xlink:href="#Poppins-SemiBold-6e" transform="translate(257.899948 0)"/>
    <use xlink:href="#Poppins-SemiBold-20" transform="translate(323.999939 0)"/>
    <use xlink:href="#Poppins-SemiBold-74" transform="translate(347.799927 0)"/>
    <use xlink:href="#Poppins-SemiBold-68" transform="translate(386.599915 0)"/>
    <use xlink:href="#Poppins-SemiBold-72" transform="translate(452.699905 0)"/>
    <use xlink:href="#Poppins-SemiBold-65" transform="translate(493.099899 0)"/>
    <use xlink:href="#Poppins-SemiBold-65" transform="translate(554.799896 0)"/>
    <use xlink:href="#Poppins-SemiBold-20" transform="translate(616.499893 0)"/>
    <use xlink:href="#Poppins-SemiBold-73" transform="translate(640.299881 0)"/>
    <use xlink:href="#Poppins-SemiBold-68" transform="translate(694.799866 0)"/>
    <use xlink:href="#Poppins-SemiBold-6f" transform="translate(760.899857 0)"/>
    <use xlink:href="#Poppins-SemiBold-70" transform="translate(824.699844 0)"/>
    <use xlink:href="#Poppins-SemiBold-70" transform="translate(892.499832 0)"/>
    <use xlink:href="#Poppins-SemiBold-65" transform="translate(960.29982 0)"/>
    <use xlink:href="#Poppins-SemiBold-72" transform="translate(1021.999817 0)"/>
    <use xlink:href="#Poppins-SemiBold-73" transform="translate(1062.399811 0)"/>
    <use xlink:href="#Poppins-SemiBold-20" transform="translate(1116.899796 0)"/>
    <use xlink:href="#Poppins-SemiBold-62" transform="translate(1140.699783 0)"/>
    <use xlink:href="#Poppins-SemiBold-75" transform="translate(1208.499771 0)"/>
    <use xlink:href="#Poppins-SemiBold-79" transform="translate(1274.599762 0)"/>
    <use xlink:href="#Poppins-SemiBold-73" transform="translate(1335.099747 0)"/>
    <use xlink:href="#Poppins-SemiBold-20" transform="translate(1389.599731 0)"/>
    <use xlink:href="#Poppins-SemiBold-61" transform="translate(1413.399719 0)"/>
    <use xlink:href="#Poppins-SemiBold-63" transform="translate(1481.199707 0)"/>
    <use xlink:href="#Poppins-SemiBold-72" transform="translate(1541.399704 0)"/>
    <use xlink:href="#Poppins-SemiBold-6f" transform="translate(1581.799698 0)"/>
    <use xlink:href="#Poppins-SemiBold-73" transform="translate(1645.599686 0)"/>
    <use xlink:href="#Poppins-SemiBold-73" transform="translate(1700.09967 0)"/>
    <use xlink:href="#Poppins-SemiBold-20" transform="translate(1754.599655 0)"/>
    <use xlink:href="#Poppins-SemiBold-61" transform="translate(1778.399643 0)"/>
    <use xlink:href="#Poppins-SemiBold-6c" transform="translate(1846.199631 0)"/>
    <use xlink:href="#Poppins-SemiBold-6c" transform="translate(1873.999619 0)"/>
   </g>
   <!-- three categories -->
   <g style="fill: #0a0a0a" transform="translate(20.288877 78.318) scale(0.22 -0.22)">
    <defs>
     <path id="Poppins-SemiBold-67" d="M 1830 3603
Q 2227 3603 2528 3446
Q 2829 3290 3002 3040
L 3002 3546
L 3904 3546
L 3904 -26
Q 3904 -518 3705 -905
Q 3507 -1293 3110 -1520
Q 2714 -1747 2150 -1747
Q 1395 -1747 912 -1395
Q 429 -1043 365 -435
L 1254 -435
Q 1325 -678 1558 -822
Q 1792 -966 2125 -966
Q 2515 -966 2758 -732
Q 3002 -499 3002 -26
L 3002 525
Q 2829 275 2525 108
Q 2221 -58 1830 -58
Q 1382 -58 1011 172
Q 640 403 425 822
Q 211 1242 211 1786
Q 211 2323 425 2739
Q 640 3155 1008 3379
Q 1376 3603 1830 3603
z
M 3002 1773
Q 3002 2099 2874 2332
Q 2746 2566 2528 2691
Q 2310 2816 2061 2816
Q 1811 2816 1600 2694
Q 1389 2573 1257 2339
Q 1126 2106 1126 1786
Q 1126 1466 1257 1226
Q 1389 986 1603 858
Q 1818 730 2061 730
Q 2310 730 2528 854
Q 2746 979 2874 1212
Q 3002 1446 3002 1773
z
" transform="scale(0.015625)"/>
    </defs>
    <use xlink:href="#Poppins-SemiBold-74"/>
    <use xlink:href="#Poppins-SemiBold-68" transform="translate(38.799988 0)"/>
    <use xlink:href="#Poppins-SemiBold-72" transform="translate(104.899979 0)"/>
    <use xlink:href="#Poppins-SemiBold-65" transform="translate(145.299973 0)"/>
    <use xlink:href="#Poppins-SemiBold-65" transform="translate(206.999969 0)"/>
    <use xlink:href="#Poppins-SemiBold-20" transform="translate(268.699966 0)"/>
    <use xlink:href="#Poppins-SemiBold-63" transform="translate(292.499954 0)"/>
    <use xlink:href="#Poppins-SemiBold-61" transform="translate(352.699951 0)"/>
    <use xlink:href="#Poppins-SemiBold-74" transform="translate(420.499939 0)"/>
    <use xlink:href="#Poppins-SemiBold-65" transform="translate(459.299927 0)"/>
    <use xlink:href="#Poppins-SemiBold-67" transform="translate(520.999924 0)"/>
    <use xlink:href="#Poppins-SemiBold-6f" transform="translate(588.799911 0)"/>
    <use xlink:href="#Poppins-SemiBold-72" transform="translate(652.599899 0)"/>
    <use xlink:href="#Poppins-SemiBold-69" transform="translate(692.999893 0)"/>
    <use xlink:href="#Poppins-SemiBold-65" transform="translate(720.799881 0)"/>
    <use xlink:href="#Poppins-SemiBold-73" transform="translate(782.499878 0)"/>
   </g>
  </g>
  <g id="_ors_chrome:139127949766992">
   <!-- Customer overlap across Electronics, Clothing, and Home -->
   <g style="fill: #525252" transform="translate(20.288877 98.41125) scale(0.12 -0.12)">
    <defs>
     <path id="Poppins-Regular-75" d="M 3603 3507
L 3603 0
L 3021 0
L 3021 518
Q 2854 250 2556 99
Q 2259 -51 1901 -51
Q 1491 -51 1164 118
Q 838 288 649 627
Q 461 966 461 1453
L 461 3507
L 1037 3507
L 1037 1530
Q 1037 1011 1299 732
Q 1562 454 2016 454
Q 2483 454 2752 742
Q 3021 1030 3021 1581
L 3021 3507
L 3603 3507
z
" transform="scale(0.015625)"/>
     <path id="Poppins-Regular-20" transform="scale(0.015625)"/>
     <path id="Poppins-Regular-76" d="M 1798 538
L 2886 3507
L 3507 3507
L 2131 0
L 1453 0
L 77 3507
L 704 3507
L 1798 538
z
" transform="scale(0.015625)"/>
     <path id="Poppins-Regular-61" d="M 275 1766
Q 275 2304 492 2710
Q 710 3117 1091 3341
Q 1472 3565 1939 3565
Q 2400 3565 2739 3366
Q 3078 3168 3245 2867
L 3245 3507
L 3834 3507
L 3834 0
L 3245 0
L 3245 653
Q 3072 346 2729 144
Q 2387 -58 1933 -58
Q 1466 -58 1088 172
Q 710 403 492 819
Q 275 1235 275 1766
z
M 3245 1760
Q 3245 2157 3085 2451
Q 2925 2746 2653 2902
Q 2381 3059 2054 3059
Q 1728 3059 1459 2905
Q 1190 2752 1030 2457
Q 870 2163 870 1766
Q 870 1363 1030 1065
Q 1190 768 1459 611
Q 1728 454 2054 454
Q 2381 454 2653 611
Q 2925 768 3085 1065
Q 3245 1363 3245 1760
z
" transform="scale(0.015625)"/>
     <path id="Poppins-Regular-70" d="M 1075 2861
Q 1248 3162 1590 3363
Q 1933 3565 2387 3565
Q 2854 3565 3235 3341
Q 3616 3117 3833 2710
Q 4051 2304 4051 1766
Q 4051 1235 3833 819
Q 3616 403 3235 172
Q 2854 -58 2387 -58
Q 1939 -58 1596 144
Q 1254 346 1075 646
L 1075 -1664
L 493 -1664
L 493 3507
L 1075 3507
L 1075 2861
z
M 3456 1766
Q 3456 2163 3296 2457
Q 3136 2752 2864 2905
Q 2592 3059 2266 3059
Q 1946 3059 1674 2902
Q 1402 2746 1238 2448
Q 1075 2150 1075 1760
Q 1075 1363 1238 1065
Q 1402 768 1674 611
Q 1946 454 2266 454
Q 2592 454 2864 611
Q 3136 768 3296 1065
Q 3456 1363 3456 1766
z
" transform="scale(0.015625)"/>
     <path id="Poppins-Regular-2c" d="M 1094 806
L 378 -915
L -13 -915
L 454 806
L 1094 806
z
" transform="scale(0.015625)"/>
     <path id="Poppins-Regular-64" d="M 275 1766
Q 275 2304 492 2710
Q 710 3117 1091 3341
Q 1472 3565 1946 3565
Q 2355 3565 2707 3376
Q 3059 3187 3245 2880
L 3245 4736
L 3834 4736
L 3834 0
L 3245 0
L 3245 659
Q 3072 346 2733 144
Q 2394 -58 1939 -58
Q 1472 -58 1091 172
Q 710 403 492 819
Q 275 1235 275 1766
z
M 3245 1760
Q 3245 2157 3085 2451
Q 2925 2746 2653 2902
Q 2381 3059 2054 3059
Q 1728 3059 1459 2905
Q 1190 2752 1030 2457
Q 870 2163 870 1766
Q 870 1363 1030 1065
Q 1190 768 1459 611
Q 1728 454 2054 454
Q 2381 454 2653 611
Q 2925 768 3085 1065
Q 3245 1363 3245 1760
z
" transform="scale(0.015625)"/>
    </defs>
    <use xlink:href="#Poppins-Regular-43"/>
    <use xlink:href="#Poppins-Regular-75" transform="translate(77.199982 0)"/>
    <use xlink:href="#Poppins-Regular-73" transform="translate(141.199966 0)"/>
    <use xlink:href="#Poppins-Regular-74" transform="translate(193.399963 0)"/>
    <use xlink:href="#Poppins-Regular-6f" transform="translate(229.799957 0)"/>
    <use xlink:href="#Poppins-Regular-6d" transform="translate(293.799942 0)"/>
    <use xlink:href="#Poppins-Regular-65" transform="translate(396.799927 0)"/>
    <use xlink:href="#Poppins-Regular-72" transform="translate(458.799911 0)"/>
    <use xlink:href="#Poppins-Regular-20" transform="translate(496.099899 0)"/>
    <use xlink:href="#Poppins-Regular-6f" transform="translate(522.799896 0)"/>
    <use xlink:href="#Poppins-Regular-76" transform="translate(586.799881 0)"/>
    <use xlink:href="#Poppins-Regular-65" transform="translate(642.899872 0)"/>
    <use xlink:href="#Poppins-Regular-72" transform="translate(704.899857 0)"/>
    <use xlink:href="#Poppins-Regular-6c" transform="translate(742.199844 0)"/>
    <use xlink:href="#Poppins-Regular-61" transform="translate(766.799835 0)"/>
    <use xlink:href="#Poppins-Regular-70" transform="translate(834.399826 0)"/>
    <use xlink:href="#Poppins-Regular-20" transform="translate(901.999817 0)"/>
    <use xlink:href="#Poppins-Regular-61" transform="translate(928.699814 0)"/>
    <use xlink:href="#Poppins-Regular-63" transform="translate(996.299805 0)"/>
    <use xlink:href="#Poppins-Regular-72" transform="translate(1056.999802 0)"/>
    <use xlink:href="#Poppins-Regular-6f" transform="translate(1094.299789 0)"/>
    <use xlink:href="#Poppins-Regular-73" transform="translate(1158.299774 0)"/>
    <use xlink:href="#Poppins-Regular-73" transform="translate(1210.499771 0)"/>
    <use xlink:href="#Poppins-Regular-20" transform="translate(1262.699768 0)"/>
    <use xlink:href="#Poppins-Regular-45" transform="translate(1289.399765 0)"/>
    <use xlink:href="#Poppins-Regular-6c" transform="translate(1340.699753 0)"/>
    <use xlink:href="#Poppins-Regular-65" transform="translate(1365.299744 0)"/>
    <use xlink:href="#Poppins-Regular-63" transform="translate(1427.299728 0)"/>
    <use xlink:href="#Poppins-Regular-74" transform="translate(1487.999725 0)"/>
    <use xlink:href="#Poppins-Regular-72" transform="translate(1524.399719 0)"/>
    <use xlink:href="#Poppins-Regular-6f" transform="translate(1561.699707 0)"/>
    <use xlink:href="#Poppins-Regular-6e" transform="translate(1625.699692 0)"/>
    <use xlink:href="#Poppins-Regular-69" transform="translate(1689.699677 0)"/>
    <use xlink:href="#Poppins-Regular-63" transform="translate(1714.299667 0)"/>
    <use xlink:href="#Poppins-Regular-73" transform="translate(1774.999664 0)"/>
    <use xlink:href="#Poppins-Regular-2c" transform="translate(1827.199661 0)"/>
    <use xlink:href="#Poppins-Regular-20" transform="translate(1846.999649 0)"/>
    <use xlink:href="#Poppins-Regular-43" transform="translate(1873.699646 0)"/>
    <use xlink:href="#Poppins-Regular-6c" transform="translate(1950.899628 0)"/>
    <use xlink:href="#Poppins-Regular-6f" transform="translate(1975.499619 0)"/>
    <use xlink:href="#Poppins-Regular-74" transform="translate(2039.499603 0)"/>
    <use xlink:href="#Poppins-Regular-68" transform="translate(2075.899597 0)"/>
    <use xlink:href="#Poppins-Regular-69" transform="translate(2139.899582 0)"/>
    <use xlink:href="#Poppins-Regular-6e" transform="translate(2164.499573 0)"/>
    <use xlink:href="#Poppins-Regular-67" transform="translate(2228.499557 0)"/>
    <use xlink:href="#Poppins-Regular-2c" transform="translate(2296.099548 0)"/>
    <use xlink:href="#Poppins-Regular-20" transform="translate(2315.899536 0)"/>
    <use xlink:href="#Poppins-Regular-61" transform="translate(2342.599533 0)"/>
    <use xlink:href="#Poppins-Regular-6e" transform="translate(2410.199524 0)"/>
    <use xlink:href="#Poppins-Regular-64" transform="translate(2474.199509 0)"/>
    <use xlink:href="#Poppins-Regular-20" transform="translate(2541.7995 0)"/>
    <use xlink:href="#Poppins-Regular-48" transform="translate(2568.499496 0)"/>
    <use xlink:href="#Poppins-Regular-6f" transform="translate(2637.699478 0)"/>
    <use xlink:href="#Poppins-Regular-6d" transform="translate(2701.699463 0)"/>
    <use xlink:href="#Poppins-Regular-65" transform="translate(2804.699448 0)"/>
   </g>
  </g>
  <g id="_ors_chrome:139127949766992">
   <!-- Source: synthetic 800-customer panel -->
   <g style="fill: #737373" transform="translate(20.288877 318.078281) scale(0.09 -0.09)">
    <defs>
     <path id="Poppins-LightItalic-53" d="M 1619 -45
Q 1216 -45 912 89
Q 608 224 441 467
Q 275 710 275 1024
Q 275 1107 282 1152
L 723 1152
Q 710 947 796 758
Q 883 570 1097 445
Q 1312 320 1651 320
Q 2125 320 2406 557
Q 2688 794 2688 1197
Q 2688 1440 2557 1603
Q 2426 1766 2234 1872
Q 2042 1978 1709 2112
Q 1318 2266 1088 2397
Q 858 2528 707 2758
Q 557 2989 582 3347
Q 595 3693 790 3958
Q 986 4224 1322 4374
Q 1658 4525 2086 4525
Q 2509 4525 2813 4381
Q 3117 4237 3267 3987
Q 3418 3738 3398 3437
L 2931 3437
Q 2944 3610 2851 3776
Q 2758 3942 2556 4048
Q 2355 4154 2061 4154
Q 1606 4154 1318 3933
Q 1030 3712 1030 3334
Q 1030 3110 1158 2956
Q 1286 2803 1472 2700
Q 1658 2598 1984 2464
Q 2362 2310 2595 2176
Q 2829 2042 2992 1818
Q 3155 1594 3155 1254
Q 3155 1171 3149 1126
Q 3123 800 2931 531
Q 2739 262 2403 108
Q 2067 -45 1619 -45
z
" transform="scale(0.015625)"/>
     <path id="Poppins-LightItalic-6f" d="M 1728 -51
Q 1293 -51 960 125
Q 627 301 444 624
Q 262 947 262 1382
Q 262 1971 531 2467
Q 800 2963 1280 3254
Q 1760 3546 2349 3546
Q 2784 3546 3117 3370
Q 3450 3194 3635 2870
Q 3821 2547 3821 2112
Q 3821 1517 3545 1024
Q 3270 531 2793 240
Q 2317 -51 1728 -51
z
M 1779 326
Q 2234 326 2595 569
Q 2957 813 3158 1216
Q 3360 1619 3360 2086
Q 3360 2611 3056 2886
Q 2752 3162 2285 3162
Q 1830 3162 1475 2918
Q 1120 2675 921 2272
Q 723 1869 723 1402
Q 723 883 1024 604
Q 1325 326 1779 326
z
" transform="scale(0.015625)"/>
     <path id="Poppins-LightItalic-75" d="M 3834 3494
L 3219 0
L 2771 0
L 2880 614
Q 2662 288 2316 115
Q 1971 -58 1574 -58
Q 1037 -58 710 233
Q 384 525 384 1082
Q 384 1286 416 1453
L 774 3494
L 1216 3494
L 864 1504
Q 838 1357 838 1197
Q 838 774 1072 553
Q 1306 333 1722 333
Q 2208 333 2560 630
Q 2912 928 3034 1504
L 3386 3494
L 3834 3494
z
" transform="scale(0.015625)"/>
     <path id="Poppins-LightItalic-72" d="M 1133 2797
Q 1344 3162 1683 3360
Q 2022 3558 2470 3558
L 2387 3091
L 2259 3091
Q 1798 3091 1465 2854
Q 1133 2618 1005 2074
L 640 0
L 192 0
L 806 3494
L 1254 3494
L 1133 2797
z
" transform="scale(0.015625)"/>
     <path id="Poppins-LightItalic-63" d="M 294 1747
Q 390 2291 681 2697
Q 973 3104 1395 3325
Q 1818 3546 2310 3546
Q 2957 3546 3318 3226
Q 3680 2906 3706 2355
L 3226 2355
Q 3206 2733 2947 2947
Q 2688 3162 2246 3162
Q 1702 3162 1289 2794
Q 877 2426 755 1747
Q 723 1587 723 1382
Q 723 870 1001 598
Q 1280 326 1741 326
Q 2189 326 2521 540
Q 2854 755 3014 1139
L 3494 1139
Q 3277 602 2797 275
Q 2317 -51 1677 -51
Q 1030 -51 643 320
Q 256 691 256 1338
Q 256 1536 294 1747
z
" transform="scale(0.015625)"/>
     <path id="Poppins-LightItalic-65" d="M 2330 3546
Q 2771 3546 3084 3376
Q 3398 3206 3561 2912
Q 3725 2618 3725 2240
Q 3725 2067 3699 1933
Q 3661 1741 3622 1587
L 723 1587
Q 704 1466 704 1357
Q 704 864 1001 595
Q 1299 326 1760 326
Q 2202 326 2534 537
Q 2867 749 3021 1107
L 3501 1107
Q 3283 595 2806 272
Q 2330 -51 1696 -51
Q 1043 -51 649 323
Q 256 698 256 1344
Q 256 1536 294 1747
Q 390 2291 681 2700
Q 973 3110 1401 3328
Q 1830 3546 2330 3546
z
M 3238 1920
Q 3270 2099 3270 2221
Q 3270 2675 2982 2918
Q 2694 3162 2246 3162
Q 1920 3162 1619 3021
Q 1318 2880 1094 2598
Q 870 2317 787 1920
L 3238 1920
z
" transform="scale(0.015625)"/>
     <path id="Poppins-LightItalic-3a" d="M 262 -32
Q 141 -32 64 45
Q -13 122 -13 243
Q -13 397 105 512
Q 224 627 378 627
Q 499 627 576 553
Q 653 480 653 358
Q 653 205 534 86
Q 416 -32 262 -32
z
M 262 2784
Q 141 2784 64 2861
Q -13 2938 -13 3059
Q -13 3213 105 3328
Q 224 3443 378 3443
Q 499 3443 576 3369
Q 653 3296 653 3174
Q 653 3021 534 2902
Q 416 2784 262 2784
z
" transform="scale(0.015625)"/>
     <path id="Poppins-LightItalic-20" transform="scale(0.015625)"/>
     <path id="Poppins-LightItalic-73" d="M 1357 -51
Q 826 -51 493 195
Q 160 442 160 870
Q 160 947 166 986
L 602 986
Q 576 678 781 492
Q 986 307 1382 307
Q 1786 307 2029 476
Q 2272 646 2272 928
Q 2272 1094 2169 1209
Q 2067 1325 1916 1398
Q 1766 1472 1498 1568
Q 1165 1690 963 1795
Q 762 1901 618 2089
Q 474 2278 474 2566
Q 474 2854 640 3078
Q 806 3302 1097 3424
Q 1389 3546 1760 3546
Q 2278 3546 2608 3290
Q 2938 3034 2938 2611
Q 2938 2522 2931 2477
L 2509 2477
Q 2515 2502 2515 2560
Q 2515 2842 2294 3014
Q 2074 3187 1728 3187
Q 1382 3187 1155 3024
Q 928 2861 928 2586
Q 928 2400 1037 2275
Q 1146 2150 1306 2073
Q 1466 1997 1734 1894
Q 2054 1773 2249 1670
Q 2445 1568 2579 1389
Q 2714 1210 2714 941
Q 2714 486 2336 217
Q 1958 -51 1357 -51
z
" transform="scale(0.015625)"/>
     <path id="Poppins-LightItalic-79" d="M 890 3494
L 1549 531
L 3219 3494
L 3686 3494
L 710 -1645
L 237 -1645
L 1210 26
L 390 3494
L 890 3494
z
" transform="scale(0.015625)"/>
     <path id="Poppins-LightItalic-6e" d="M 2464 3558
Q 3002 3558 3325 3267
Q 3648 2976 3648 2419
Q 3648 2214 3616 2048
L 3251 0
L 2810 0
L 3162 1997
Q 3187 2144 3187 2310
Q 3187 2733 2956 2950
Q 2726 3168 2310 3168
Q 1805 3168 1446 2848
Q 1088 2528 979 1907
L 979 1926
L 640 0
L 192 0
L 806 3494
L 1254 3494
L 1146 2893
Q 1370 3213 1715 3385
Q 2061 3558 2464 3558
z
" transform="scale(0.015625)"/>
     <path id="Poppins-LightItalic-74" d="M 934 947
Q 915 832 915 749
Q 915 544 1027 464
Q 1139 384 1395 384
L 1805 384
L 1734 0
L 1254 0
Q 858 0 659 153
Q 461 307 461 659
Q 461 800 486 947
L 870 3117
L 384 3117
L 454 3494
L 941 3494
L 1094 4371
L 1542 4371
L 1389 3494
L 2355 3494
L 2285 3117
L 1318 3117
L 934 947
z
" transform="scale(0.015625)"/>
     <path id="Poppins-LightItalic-68" d="M 2483 3558
Q 3008 3558 3328 3270
Q 3648 2982 3648 2419
Q 3648 2214 3616 2048
L 3251 0
L 2810 0
L 3162 1997
Q 3187 2144 3187 2310
Q 3187 2733 2956 2950
Q 2726 3168 2310 3168
Q 1805 3168 1446 2848
Q 1088 2528 979 1907
L 979 1914
L 640 0
L 192 0
L 1030 4736
L 1478 4736
L 1152 2899
Q 1376 3219 1728 3388
Q 2080 3558 2483 3558
z
" transform="scale(0.015625)"/>
     <path id="Poppins-LightItalic-69" d="M 1152 4154
Q 1030 4154 953 4227
Q 877 4301 877 4422
Q 877 4589 992 4701
Q 1107 4813 1267 4813
Q 1389 4813 1462 4742
Q 1536 4672 1536 4557
Q 1536 4390 1421 4272
Q 1306 4154 1152 4154
z
M 1254 3494
L 640 0
L 192 0
L 806 3494
L 1254 3494
z
" transform="scale(0.015625)"/>
     <path id="Poppins-LightItalic-38" d="M 1414 2413
Q 768 2643 768 3258
Q 768 3366 787 3482
Q 851 3827 1075 4102
Q 1299 4378 1667 4534
Q 2035 4691 2509 4691
Q 3142 4691 3478 4416
Q 3814 4141 3814 3699
Q 3814 3597 3795 3482
Q 3725 3104 3465 2822
Q 3206 2541 2790 2413
Q 3149 2317 3347 2070
Q 3546 1824 3546 1466
Q 3546 1357 3526 1229
Q 3411 602 2902 234
Q 2394 -134 1651 -134
Q 998 -134 624 157
Q 250 448 250 960
Q 250 1101 275 1229
Q 352 1690 656 1997
Q 960 2304 1414 2413
z
M 2438 4314
Q 1952 4314 1622 4086
Q 1293 3859 1216 3430
Q 1203 3373 1203 3270
Q 1203 2944 1452 2755
Q 1702 2566 2131 2566
Q 2675 2566 3024 2854
Q 3373 3142 3373 3616
Q 3373 3955 3123 4134
Q 2874 4314 2438 4314
z
M 2067 2221
Q 1542 2221 1168 1977
Q 794 1734 704 1248
Q 685 1146 685 1043
Q 685 666 960 454
Q 1235 243 1722 243
Q 2266 243 2634 512
Q 3002 781 3085 1248
Q 3104 1357 3104 1446
Q 3104 1830 2819 2025
Q 2534 2221 2067 2221
z
" transform="scale(0.015625)"/>
     <path id="Poppins-LightItalic-30" d="M 506 2304
Q 698 3398 1142 4006
Q 1587 4614 2464 4614
Q 3130 4614 3421 4249
Q 3712 3885 3712 3226
Q 3712 2848 3616 2304
Q 3424 1210 2976 598
Q 2528 -13 1651 -13
Q 986 -13 698 348
Q 410 710 410 1370
Q 410 1747 506 2304
z
M 3174 2304
Q 3270 2835 3270 3187
Q 3270 3674 3068 3939
Q 2867 4205 2394 4205
Q 1933 4205 1645 3958
Q 1357 3712 1203 3302
Q 1050 2893 947 2304
Q 845 1722 845 1402
Q 845 922 1043 659
Q 1242 397 1722 397
Q 2182 397 2470 643
Q 2758 890 2912 1299
Q 3066 1709 3174 2304
z
" transform="scale(0.015625)"/>
     <path id="Poppins-LightItalic-2d" d="M 2816 2560
L 2752 2182
L 262 2182
L 326 2560
L 2816 2560
z
" transform="scale(0.015625)"/>
     <path id="Poppins-LightItalic-6d" d="M 4986 3558
Q 5510 3558 5827 3270
Q 6144 2982 6144 2426
Q 6144 2253 6106 2048
L 5741 0
L 5299 0
L 5658 1997
Q 5690 2189 5690 2317
Q 5690 2733 5466 2950
Q 5242 3168 4832 3168
Q 4378 3168 4035 2880
Q 3693 2592 3558 2048
L 3187 0
L 2746 0
L 3104 1997
Q 3136 2189 3136 2317
Q 3136 2733 2912 2950
Q 2688 3168 2285 3168
Q 1798 3168 1446 2851
Q 1094 2534 979 1939
L 640 0
L 192 0
L 806 3494
L 1254 3494
L 1146 2886
Q 1363 3213 1705 3385
Q 2048 3558 2432 3558
Q 2886 3558 3187 3340
Q 3488 3123 3565 2701
Q 3776 3117 4160 3337
Q 4544 3558 4986 3558
z
" transform="scale(0.015625)"/>
     <path id="Poppins-LightItalic-70" d="M 1120 2726
Q 1338 3078 1744 3312
Q 2150 3546 2643 3546
Q 3277 3546 3657 3171
Q 4038 2797 4038 2150
Q 4038 1965 4000 1754
Q 3904 1216 3616 806
Q 3328 397 2909 173
Q 2490 -51 2010 -51
Q 1517 -51 1197 182
Q 877 416 768 768
L 346 -1651
L -102 -1651
L 806 3494
L 1254 3494
L 1120 2726
z
M 3546 1754
Q 3578 1946 3578 2080
Q 3578 2586 3280 2870
Q 2982 3155 2496 3155
Q 2138 3155 1811 2982
Q 1485 2810 1254 2490
Q 1024 2170 947 1747
Q 915 1568 915 1427
Q 915 928 1216 633
Q 1517 339 1997 339
Q 2368 339 2691 508
Q 3014 678 3241 1001
Q 3469 1325 3546 1754
z
" transform="scale(0.015625)"/>
     <path id="Poppins-LightItalic-61" d="M 294 1754
Q 390 2291 678 2697
Q 966 3104 1385 3325
Q 1805 3546 2285 3546
Q 2784 3546 3104 3315
Q 3424 3085 3520 2726
L 3654 3494
L 4102 3494
L 3488 0
L 3040 0
L 3174 774
Q 2957 416 2550 182
Q 2144 -51 1645 -51
Q 1229 -51 915 121
Q 602 294 429 611
Q 256 928 256 1357
Q 256 1542 294 1754
z
M 3347 1747
Q 3379 1926 3379 2067
Q 3379 2566 3078 2860
Q 2778 3155 2298 3155
Q 1926 3155 1603 2988
Q 1280 2822 1056 2505
Q 832 2189 755 1754
Q 723 1562 723 1427
Q 723 922 1020 630
Q 1318 339 1798 339
Q 2157 339 2486 512
Q 2816 685 3043 1005
Q 3270 1325 3347 1747
z
" transform="scale(0.015625)"/>
     <path id="Poppins-LightItalic-6c" d="M 1478 4736
L 640 0
L 192 0
L 1030 4736
L 1478 4736
z
" transform="scale(0.015625)"/>
    </defs>
    <use xlink:href="#Poppins-LightItalic-53"/>
    <use xlink:href="#Poppins-LightItalic-6f" transform="translate(56.599991 0)"/>
    <use xlink:href="#Poppins-LightItalic-75" transform="translate(120.799988 0)"/>
    <use xlink:href="#Poppins-LightItalic-72" transform="translate(184.099976 0)"/>
    <use xlink:href="#Poppins-LightItalic-63" transform="translate(220.299973 0)"/>
    <use xlink:href="#Poppins-LightItalic-65" transform="translate(281.59996 0)"/>
    <use xlink:href="#Poppins-LightItalic-3a" transform="translate(343.799957 0)"/>
    <use xlink:href="#Poppins-LightItalic-20" transform="translate(362.299942 0)"/>
    <use xlink:href="#Poppins-LightItalic-73" transform="translate(391.799927 0)"/>
    <use xlink:href="#Poppins-LightItalic-79" transform="translate(442.799911 0)"/>
    <use xlink:href="#Poppins-LightItalic-6e" transform="translate(497.299896 0)"/>
    <use xlink:href="#Poppins-LightItalic-74" transform="translate(560.599884 0)"/>
    <use xlink:href="#Poppins-LightItalic-68" transform="translate(596.199875 0)"/>
    <use xlink:href="#Poppins-LightItalic-65" transform="translate(659.499863 0)"/>
    <use xlink:href="#Poppins-LightItalic-74" transform="translate(721.69986 0)"/>
    <use xlink:href="#Poppins-LightItalic-69" transform="translate(757.29985 0)"/>
    <use xlink:href="#Poppins-LightItalic-63" transform="translate(780.199844 0)"/>
    <use xlink:href="#Poppins-LightItalic-20" transform="translate(841.499832 0)"/>
    <use xlink:href="#Poppins-LightItalic-38" transform="translate(870.999817 0)"/>
    <use xlink:href="#Poppins-LightItalic-30" transform="translate(933.399811 0)"/>
    <use xlink:href="#Poppins-LightItalic-30" transform="translate(994.999802 0)"/>
    <use xlink:href="#Poppins-LightItalic-2d" transform="translate(1056.599792 0)"/>
    <use xlink:href="#Poppins-LightItalic-63" transform="translate(1108.499786 0)"/>
    <use xlink:href="#Poppins-LightItalic-75" transform="translate(1169.799774 0)"/>
    <use xlink:href="#Poppins-LightItalic-73" transform="translate(1233.099762 0)"/>
    <use xlink:href="#Poppins-LightItalic-74" transform="translate(1284.099747 0)"/>
    <use xlink:href="#Poppins-LightItalic-6f" transform="translate(1319.699738 0)"/>
    <use xlink:href="#Poppins-LightItalic-6d" transform="translate(1383.899734 0)"/>
    <use xlink:href="#Poppins-LightItalic-65" transform="translate(1486.099716 0)"/>
    <use xlink:href="#Poppins-LightItalic-72" transform="translate(1548.299713 0)"/>
    <use xlink:href="#Poppins-LightItalic-20" transform="translate(1584.49971 0)"/>
    <use xlink:href="#Poppins-LightItalic-70" transform="translate(1613.999695 0)"/>
    <use xlink:href="#Poppins-LightItalic-61" transform="translate(1681.49968 0)"/>
    <use xlink:href="#Poppins-LightItalic-6e" transform="translate(1748.999664 0)"/>
    <use xlink:href="#Poppins-LightItalic-65" transform="translate(1812.299652 0)"/>
    <use xlink:href="#Poppins-LightItalic-6c" transform="translate(1874.499649 0)"/>
   </g>
  </g>
 </g>
 <defs>
  <clipPath id="pfa4d5c9655">
   <rect x="20.288877" y="108.576" width="212.578417" height="192.384"/>
  </clipPath>
 </defs>
</svg>
