<?xml version="1.0" encoding="utf-8" standalone="no"?>
<!DOCTYPE svg PUBLIC "-//W3C//DTD SVG 1.1//EN"
  "http://www.w3.org/Graphics/SVG/1.1/DTD/svg11.dtd">
<svg xmlns:xlink="http://www.w3.org/1999/xlink" width="464.085312pt" height="327.6pt" viewBox="0 0 464.085312 327.6" xmlns="http://www.w3.org/2000/svg" version="1.1">
 <metadata>
  <rdf:RDF xmlns:dc="http://purl.org/dc/elements/1.1/" xmlns:cc="http://creativecommons.org/ns#" xmlns:rdf="http://www.w3.org/1999/02/22-rdf-syntax-ns#">
   <cc:Work>
    <dc:type rdf:resource="http://purl.org/dc/dcmitype/StillImage"/>
    <dc:date>2026-05-21T06:44:42.713490</dc:date>
    <dc:format>image/svg+xml</dc:format>
    <dc:creator>
     <cc:Agent>
      <dc:title>Matplotlib v3.10.8, https://matplotlib.org/</dc:title>
     </cc:Agent>
    </dc:creator>
   </cc:Work>
  </rdf:RDF>
 </metadata>
 <defs>
  <style type="text/css">*{stroke-linejoin: round; stroke-linecap: butt}</style>
 </defs>
 <g id="figure_1">
  <g id="patch_1">
   <path d="M 0 327.6
L 464.085312 327.6
L 464.085312 0
L 0 0
z
" style="fill: #ffffff"/>
  </g>
  <g id="axes_1">
   <g id="patch_2">
    <path d="M 131.1375 262.64
L 453.2235 262.64
L 453.2235 119.871
L 131.1375 119.871
z
" style="fill: #ffffff"/>
   </g>
   <g id="matplotlib.axis_1">
    <g id="xtick_1">
     <g id="line2d_1">
      <path d="M 131.1375 262.64
L 131.1375 119.871
" clip-path="url(#p07f8283299)" style="fill: none; stroke: #e5e5e5; stroke-width: 0.8; stroke-linecap: square"/>
     </g>
     <g id="line2d_2"/>
    </g>
    <g id="xtick_2">
     <g id="line2d_3">
      <path d="M 197.091607 262.64
L 197.091607 119.871
" clip-path="url(#p07f8283299)" style="fill: none; stroke: #e5e5e5; stroke-width: 0.8; stroke-linecap: square"/>
     </g>
     <g id="line2d_4"/>
     <g id="text_1">
      <!-- 0.4 -->
      <g transform="translate(189.756451 276.04) scale(0.1 -0.1)">
       <defs>
        <path id="Poppins-Regular-30" d="M 397 2362
Q 397 3462 755 4080
Q 1114 4698 2010 4698
Q 2899 4698 3257 4080
Q 3616 3462 3616 2362
Q 3616 1242 3257 621
Q 2899 0 2010 0
Q 1114 0 755 621
Q 397 1242 397 2362
z
M 3040 2362
Q 3040 2918 2966 3305
Q 2893 3693 2665 3929
Q 2438 4166 2010 4166
Q 1574 4166 1347 3929
Q 1120 3693 1046 3305
Q 973 2918 973 2362
Q 973 1786 1046 1395
Q 1120 1005 1347 768
Q 1574 531 2010 531
Q 2438 531 2665 768
Q 2893 1005 2966 1395
Q 3040 1786 3040 2362
z
" transform="scale(0.015625)"/>
        <path id="Poppins-Regular-2e" d="M 678 -38
Q 512 -38 397 77
Q 282 192 282 358
Q 282 525 397 640
Q 512 755 678 755
Q 838 755 950 640
Q 1062 525 1062 358
Q 1062 192 950 77
Q 838 -38 678 -38
z
" transform="scale(0.015625)"/>
        <path id="Poppins-Regular-34" d="M 256 1030
L 256 1472
L 2502 4582
L 3200 4582
L 3200 1536
L 3840 1536
L 3840 1030
L 3200 1030
L 3200 0
L 2624 0
L 2624 1030
L 256 1030
z
M 2650 3974
L 928 1536
L 2650 1536
L 2650 3974
z
" transform="scale(0.015625)"/>
       </defs>
       <use xlink:href="#Poppins-Regular-30"/>
       <use xlink:href="#Poppins-Regular-2e" transform="translate(62.799988 0)"/>
       <use xlink:href="#Poppins-Regular-34" transform="translate(83.799973 0)"/>
      </g>
     </g>
    </g>
    <g id="xtick_3">
     <g id="line2d_5">
      <path d="M 263.045714 262.64
L 263.045714 119.871
" clip-path="url(#p07f8283299)" style="fill: none; stroke: #e5e5e5; stroke-width: 0.8; stroke-linecap: square"/>
     </g>
     <g id="line2d_6"/>
     <g id="text_2">
      <!-- 0.8 -->
      <g transform="translate(255.701182 276.04) scale(0.1 -0.1)">
       <defs>
        <path id="Poppins-Regular-38" d="M 1242 2406
Q 883 2547 691 2816
Q 499 3085 499 3469
Q 499 3814 672 4092
Q 845 4371 1187 4534
Q 1530 4698 2016 4698
Q 2502 4698 2844 4534
Q 3187 4371 3363 4092
Q 3539 3814 3539 3469
Q 3539 3098 3340 2819
Q 3142 2541 2797 2406
Q 3194 2285 3427 1981
Q 3661 1677 3661 1248
Q 3661 832 3456 521
Q 3251 211 2876 41
Q 2502 -128 2016 -128
Q 1530 -128 1162 41
Q 794 211 589 521
Q 384 832 384 1248
Q 384 1677 614 1984
Q 845 2291 1242 2406
z
M 2976 3398
Q 2976 3789 2720 4000
Q 2464 4211 2016 4211
Q 1574 4211 1318 4000
Q 1062 3789 1062 3392
Q 1062 3034 1328 2816
Q 1594 2598 2016 2598
Q 2445 2598 2710 2819
Q 2976 3040 2976 3398
z
M 2016 2150
Q 1542 2150 1241 1929
Q 941 1709 941 1267
Q 941 858 1232 608
Q 1523 358 2016 358
Q 2509 358 2797 608
Q 3085 858 3085 1267
Q 3085 1696 2790 1923
Q 2496 2150 2016 2150
z
" transform="scale(0.015625)"/>
       </defs>
       <use xlink:href="#Poppins-Regular-30"/>
       <use xlink:href="#Poppins-Regular-2e" transform="translate(62.799988 0)"/>
       <use xlink:href="#Poppins-Regular-38" transform="translate(83.799973 0)"/>
      </g>
     </g>
    </g>
    <g id="xtick_4">
     <g id="line2d_7">
      <path d="M 328.999821 262.64
L 328.999821 119.871
" clip-path="url(#p07f8283299)" style="fill: none; stroke: #e5e5e5; stroke-width: 0.8; stroke-linecap: square"/>
     </g>
     <g id="line2d_8"/>
     <g id="text_3">
      <!-- 1.2 -->
      <g transform="translate(323.474821 276.04) scale(0.1 -0.1)">
       <defs>
        <path id="Poppins-Regular-31" d="M 243 4096
L 243 4627
L 1446 4627
L 1446 0
L 858 0
L 858 4096
L 243 4096
z
" transform="scale(0.015625)"/>
        <path id="Poppins-Regular-32" d="M 326 467
Q 1139 1120 1600 1539
Q 2061 1958 2377 2416
Q 2694 2874 2694 3315
Q 2694 3731 2492 3971
Q 2291 4211 1843 4211
Q 1408 4211 1168 3939
Q 928 3667 909 3213
L 346 3213
Q 371 3930 780 4320
Q 1190 4710 1837 4710
Q 2496 4710 2883 4345
Q 3270 3981 3270 3341
Q 3270 2810 2953 2307
Q 2637 1805 2233 1424
Q 1830 1043 1203 538
L 3405 538
L 3405 51
L 326 51
L 326 467
z
" transform="scale(0.015625)"/>
       </defs>
       <use xlink:href="#Poppins-Regular-31"/>
       <use xlink:href="#Poppins-Regular-2e" transform="translate(31.999985 0)"/>
       <use xlink:href="#Poppins-Regular-32" transform="translate(52.999969 0)"/>
      </g>
     </g>
    </g>
    <g id="xtick_5">
     <g id="line2d_9">
      <path d="M 394.953927 262.64
L 394.953927 119.871
" clip-path="url(#p07f8283299)" style="fill: none; stroke: #e5e5e5; stroke-width: 0.8; stroke-linecap: square"/>
     </g>
     <g id="line2d_10"/>
     <g id="text_4">
      <!-- 1.6 -->
      <g transform="translate(389.128927 276.04) scale(0.1 -0.1)">
       <defs>
        <path id="Poppins-Regular-36" d="M 2976 3526
Q 2835 4237 2099 4237
Q 1530 4237 1248 3798
Q 966 3360 973 2355
Q 1120 2688 1462 2877
Q 1805 3066 2227 3066
Q 2886 3066 3280 2656
Q 3674 2246 3674 1523
Q 3674 1088 3504 742
Q 3334 397 2992 192
Q 2650 -13 2163 -13
Q 1504 -13 1133 281
Q 762 576 614 1094
Q 467 1613 467 2374
Q 467 4723 2106 4723
Q 2733 4723 3091 4384
Q 3450 4045 3514 3526
L 2976 3526
z
M 2106 2573
Q 1830 2573 1587 2461
Q 1344 2349 1193 2121
Q 1043 1894 1043 1568
Q 1043 1082 1324 778
Q 1606 474 2131 474
Q 2579 474 2844 752
Q 3110 1030 3110 1504
Q 3110 2003 2854 2288
Q 2598 2573 2106 2573
z
" transform="scale(0.015625)"/>
       </defs>
       <use xlink:href="#Poppins-Regular-31"/>
       <use xlink:href="#Poppins-Regular-2e" transform="translate(31.999985 0)"/>
       <use xlink:href="#Poppins-Regular-36" transform="translate(52.999969 0)"/>
      </g>
     </g>
    </g>
    <g id="text_5">
     <!-- Distance -->
     <g transform="translate(268.079328 296.78) scale(0.11 -0.11)">
      <defs>
       <path id="Poppins-Regular-44" d="M 1882 4461
Q 2611 4461 3145 4189
Q 3680 3917 3965 3411
Q 4250 2906 4250 2221
Q 4250 1536 3965 1033
Q 3680 531 3145 265
Q 2611 0 1882 0
L 493 0
L 493 4461
L 1882 4461
z
M 1882 480
Q 2746 480 3200 937
Q 3654 1395 3654 2221
Q 3654 3053 3196 3520
Q 2739 3987 1882 3987
L 1075 3987
L 1075 480
L 1882 480
z
" transform="scale(0.015625)"/>
       <path id="Poppins-Regular-69" d="M 794 4077
Q 627 4077 512 4192
Q 397 4307 397 4474
Q 397 4640 512 4755
Q 627 4870 794 4870
Q 954 4870 1066 4755
Q 1178 4640 1178 4474
Q 1178 4307 1066 4192
Q 954 4077 794 4077
z
M 1075 3507
L 1075 0
L 493 0
L 493 3507
L 1075 3507
z
" transform="scale(0.015625)"/>
       <path id="Poppins-Regular-73" d="M 1734 -58
Q 1331 -58 1011 80
Q 691 218 505 464
Q 320 710 301 1030
L 902 1030
Q 928 768 1149 601
Q 1370 435 1728 435
Q 2061 435 2253 582
Q 2445 730 2445 954
Q 2445 1184 2240 1296
Q 2035 1408 1606 1517
Q 1216 1619 969 1724
Q 723 1830 547 2038
Q 371 2246 371 2586
Q 371 2854 531 3078
Q 691 3302 985 3433
Q 1280 3565 1658 3565
Q 2240 3565 2598 3270
Q 2957 2976 2982 2464
L 2400 2464
Q 2381 2739 2179 2905
Q 1978 3072 1638 3072
Q 1325 3072 1139 2937
Q 954 2803 954 2586
Q 954 2413 1066 2301
Q 1178 2189 1347 2121
Q 1517 2054 1818 1971
Q 2195 1869 2432 1769
Q 2669 1670 2838 1472
Q 3008 1274 3014 954
Q 3014 666 2854 435
Q 2694 205 2403 73
Q 2112 -58 1734 -58
z
" transform="scale(0.015625)"/>
       <path id="Poppins-Regular-74" d="M 1203 3027
L 1203 960
Q 1203 704 1312 598
Q 1421 493 1690 493
L 2118 493
L 2118 0
L 1594 0
Q 1107 0 864 224
Q 621 448 621 960
L 621 3027
L 166 3027
L 166 3507
L 621 3507
L 621 4390
L 1203 4390
L 1203 3507
L 2118 3507
L 2118 3027
L 1203 3027
z
" transform="scale(0.015625)"/>
       <path id="Poppins-Regular-61" d="M 275 1766
Q 275 2304 492 2710
Q 710 3117 1091 3341
Q 1472 3565 1939 3565
Q 2400 3565 2739 3366
Q 3078 3168 3245 2867
L 3245 3507
L 3834 3507
L 3834 0
L 3245 0
L 3245 653
Q 3072 346 2729 144
Q 2387 -58 1933 -58
Q 1466 -58 1088 172
Q 710 403 492 819
Q 275 1235 275 1766
z
M 3245 1760
Q 3245 2157 3085 2451
Q 2925 2746 2653 2902
Q 2381 3059 2054 3059
Q 1728 3059 1459 2905
Q 1190 2752 1030 2457
Q 870 2163 870 1766
Q 870 1363 1030 1065
Q 1190 768 1459 611
Q 1728 454 2054 454
Q 2381 454 2653 611
Q 2925 768 3085 1065
Q 3245 1363 3245 1760
z
" transform="scale(0.015625)"/>
       <path id="Poppins-Regular-6e" d="M 2202 3571
Q 2842 3571 3238 3184
Q 3635 2797 3635 2067
L 3635 0
L 3059 0
L 3059 1984
Q 3059 2509 2796 2787
Q 2534 3066 2080 3066
Q 1619 3066 1347 2778
Q 1075 2490 1075 1939
L 1075 0
L 493 0
L 493 3507
L 1075 3507
L 1075 3008
Q 1248 3277 1545 3424
Q 1843 3571 2202 3571
z
" transform="scale(0.015625)"/>
       <path id="Poppins-Regular-63" d="M 275 1760
Q 275 2304 492 2710
Q 710 3117 1097 3341
Q 1485 3565 1984 3565
Q 2630 3565 3049 3251
Q 3469 2938 3603 2381
L 2976 2381
Q 2886 2701 2627 2886
Q 2368 3072 1984 3072
Q 1485 3072 1177 2729
Q 870 2387 870 1760
Q 870 1126 1177 780
Q 1485 435 1984 435
Q 2368 435 2624 614
Q 2880 794 2976 1126
L 3603 1126
Q 3462 589 3040 265
Q 2618 -58 1984 -58
Q 1485 -58 1097 166
Q 710 390 492 800
Q 275 1210 275 1760
z
" transform="scale(0.015625)"/>
       <path id="Poppins-Regular-65" d="M 3693 1888
Q 3693 1722 3674 1536
L 870 1536
Q 902 1018 1225 726
Q 1549 435 2010 435
Q 2387 435 2640 611
Q 2893 787 2995 1082
L 3622 1082
Q 3482 576 3059 259
Q 2637 -58 2010 -58
Q 1510 -58 1116 166
Q 723 390 499 803
Q 275 1216 275 1760
Q 275 2304 492 2713
Q 710 3123 1104 3344
Q 1498 3565 2010 3565
Q 2509 3565 2893 3347
Q 3277 3130 3485 2749
Q 3693 2368 3693 1888
z
M 3091 2010
Q 3091 2342 2944 2582
Q 2797 2822 2544 2947
Q 2291 3072 1984 3072
Q 1542 3072 1232 2790
Q 922 2509 877 2010
L 3091 2010
z
" transform="scale(0.015625)"/>
      </defs>
      <use xlink:href="#Poppins-Regular-44"/>
      <use xlink:href="#Poppins-Regular-69" transform="translate(70.699982 0)"/>
      <use xlink:href="#Poppins-Regular-73" transform="translate(95.299973 0)"/>
      <use xlink:href="#Poppins-Regular-74" transform="translate(147.499969 0)"/>
      <use xlink:href="#Poppins-Regular-61" transform="translate(183.899963 0)"/>
      <use xlink:href="#Poppins-Regular-6e" transform="translate(251.499954 0)"/>
      <use xlink:href="#Poppins-Regular-63" transform="translate(315.499939 0)"/>
      <use xlink:href="#Poppins-Regular-65" transform="translate(376.199936 0)"/>
     </g>
    </g>
   </g>
   <g id="matplotlib.axis_2">
    <g id="ytick_1">
     <g id="text_6">
      <!-- Honey Mustard Pretzels -->
      <g transform="translate(9.3375 259.8505) scale(0.1 -0.1)">
       <defs>
        <path id="Poppins-Regular-48" d="M 3930 4461
L 3930 0
L 3347 0
L 3347 2022
L 1075 2022
L 1075 0
L 493 0
L 493 4461
L 1075 4461
L 1075 2502
L 3347 2502
L 3347 4461
L 3930 4461
z
" transform="scale(0.015625)"/>
        <path id="Poppins-Regular-6f" d="M 2022 -58
Q 1530 -58 1130 166
Q 730 390 502 803
Q 275 1216 275 1760
Q 275 2298 508 2710
Q 742 3123 1145 3344
Q 1549 3565 2048 3565
Q 2547 3565 2950 3344
Q 3354 3123 3587 2713
Q 3821 2304 3821 1760
Q 3821 1216 3581 803
Q 3341 390 2931 166
Q 2522 -58 2022 -58
z
M 2022 454
Q 2336 454 2611 601
Q 2886 749 3056 1043
Q 3226 1338 3226 1760
Q 3226 2182 3059 2476
Q 2893 2771 2624 2915
Q 2355 3059 2042 3059
Q 1722 3059 1456 2915
Q 1190 2771 1030 2476
Q 870 2182 870 1760
Q 870 1331 1027 1036
Q 1184 742 1446 598
Q 1709 454 2022 454
z
" transform="scale(0.015625)"/>
        <path id="Poppins-Regular-79" d="M 3514 3507
L 1402 -1651
L 800 -1651
L 1491 38
L 77 3507
L 723 3507
L 1824 666
L 2912 3507
L 3514 3507
z
" transform="scale(0.015625)"/>
        <path id="Poppins-Regular-20" transform="scale(0.015625)"/>
        <path id="Poppins-Regular-4d" d="M 5018 4429
L 5018 0
L 4435 0
L 4435 3302
L 2963 0
L 2554 0
L 1075 3309
L 1075 0
L 493 0
L 493 4429
L 1120 4429
L 2758 768
L 4397 4429
L 5018 4429
z
" transform="scale(0.015625)"/>
        <path id="Poppins-Regular-75" d="M 3603 3507
L 3603 0
L 3021 0
L 3021 518
Q 2854 250 2556 99
Q 2259 -51 1901 -51
Q 1491 -51 1164 118
Q 838 288 649 627
Q 461 966 461 1453
L 461 3507
L 1037 3507
L 1037 1530
Q 1037 1011 1299 732
Q 1562 454 2016 454
Q 2483 454 2752 742
Q 3021 1030 3021 1581
L 3021 3507
L 3603 3507
z
" transform="scale(0.015625)"/>
        <path id="Poppins-Regular-72" d="M 1075 2938
Q 1229 3238 1513 3404
Q 1798 3571 2208 3571
L 2208 2970
L 2054 2970
Q 1075 2970 1075 1907
L 1075 0
L 493 0
L 493 3507
L 1075 3507
L 1075 2938
z
" transform="scale(0.015625)"/>
        <path id="Poppins-Regular-64" d="M 275 1766
Q 275 2304 492 2710
Q 710 3117 1091 3341
Q 1472 3565 1946 3565
Q 2355 3565 2707 3376
Q 3059 3187 3245 2880
L 3245 4736
L 3834 4736
L 3834 0
L 3245 0
L 3245 659
Q 3072 346 2733 144
Q 2394 -58 1939 -58
Q 1472 -58 1091 172
Q 710 403 492 819
Q 275 1235 275 1766
z
M 3245 1760
Q 3245 2157 3085 2451
Q 2925 2746 2653 2902
Q 2381 3059 2054 3059
Q 1728 3059 1459 2905
Q 1190 2752 1030 2457
Q 870 2163 870 1766
Q 870 1363 1030 1065
Q 1190 768 1459 611
Q 1728 454 2054 454
Q 2381 454 2653 611
Q 2925 768 3085 1065
Q 3245 1363 3245 1760
z
" transform="scale(0.015625)"/>
        <path id="Poppins-Regular-50" d="M 3475 3155
Q 3475 2598 3094 2230
Q 2714 1862 1933 1862
L 1075 1862
L 1075 0
L 493 0
L 493 4461
L 1933 4461
Q 2688 4461 3081 4096
Q 3475 3731 3475 3155
z
M 1933 2342
Q 2419 2342 2649 2553
Q 2880 2765 2880 3155
Q 2880 3981 1933 3981
L 1075 3981
L 1075 2342
L 1933 2342
z
" transform="scale(0.015625)"/>
        <path id="Poppins-Regular-7a" d="M 928 480
L 2650 480
L 2650 0
L 262 0
L 262 480
L 1965 3034
L 275 3034
L 275 3507
L 2637 3507
L 2637 3034
L 928 480
z
" transform="scale(0.015625)"/>
        <path id="Poppins-Regular-6c" d="M 1075 4736
L 1075 0
L 493 0
L 493 4736
L 1075 4736
z
" transform="scale(0.015625)"/>
       </defs>
       <use xlink:href="#Poppins-Regular-48"/>
       <use xlink:href="#Poppins-Regular-6f" transform="translate(69.199982 0)"/>
       <use xlink:href="#Poppins-Regular-6e" transform="translate(133.199966 0)"/>
       <use xlink:href="#Poppins-Regular-65" transform="translate(197.199951 0)"/>
       <use xlink:href="#Poppins-Regular-79" transform="translate(259.199936 0)"/>
       <use xlink:href="#Poppins-Regular-20" transform="translate(315.499924 0)"/>
       <use xlink:href="#Poppins-Regular-4d" transform="translate(342.199921 0)"/>
       <use xlink:href="#Poppins-Regular-75" transform="translate(428.299911 0)"/>
       <use xlink:href="#Poppins-Regular-73" transform="translate(492.299896 0)"/>
       <use xlink:href="#Poppins-Regular-74" transform="translate(544.499893 0)"/>
       <use xlink:href="#Poppins-Regular-61" transform="translate(580.899887 0)"/>
       <use xlink:href="#Poppins-Regular-72" transform="translate(648.499878 0)"/>
       <use xlink:href="#Poppins-Regular-64" transform="translate(685.799866 0)"/>
       <use xlink:href="#Poppins-Regular-20" transform="translate(753.399857 0)"/>
       <use xlink:href="#Poppins-Regular-50" transform="translate(780.099854 0)"/>
       <use xlink:href="#Poppins-Regular-72" transform="translate(837.999847 0)"/>
       <use xlink:href="#Poppins-Regular-65" transform="translate(875.299835 0)"/>
       <use xlink:href="#Poppins-Regular-74" transform="translate(937.29982 0)"/>
       <use xlink:href="#Poppins-Regular-7a" transform="translate(973.699814 0)"/>
       <use xlink:href="#Poppins-Regular-65" transform="translate(1019.199799 0)"/>
       <use xlink:href="#Poppins-Regular-6c" transform="translate(1081.199783 0)"/>
       <use xlink:href="#Poppins-Regular-73" transform="translate(1105.799774 0)"/>
      </g>
     </g>
    </g>
    <g id="ytick_2">
     <g id="text_7">
      <!-- Salted Pretzels -->
      <g transform="translate(52.9875 246.8715) scale(0.1 -0.1)">
       <defs>
        <path id="Poppins-Regular-53" d="M 1907 -45
Q 1466 -45 1117 112
Q 768 269 569 547
Q 371 826 365 1190
L 986 1190
Q 1018 877 1245 662
Q 1472 448 1907 448
Q 2323 448 2563 656
Q 2803 864 2803 1190
Q 2803 1446 2662 1606
Q 2522 1766 2310 1849
Q 2099 1933 1741 2029
Q 1299 2144 1033 2259
Q 768 2374 579 2620
Q 390 2867 390 3283
Q 390 3648 576 3929
Q 762 4211 1098 4364
Q 1434 4518 1869 4518
Q 2496 4518 2896 4204
Q 3296 3891 3347 3373
L 2707 3373
Q 2675 3629 2438 3824
Q 2202 4019 1811 4019
Q 1446 4019 1216 3830
Q 986 3642 986 3302
Q 986 3059 1123 2905
Q 1261 2752 1462 2672
Q 1664 2592 2029 2490
Q 2470 2368 2739 2249
Q 3008 2131 3200 1884
Q 3392 1638 3392 1216
Q 3392 890 3219 602
Q 3046 314 2707 134
Q 2368 -45 1907 -45
z
" transform="scale(0.015625)"/>
       </defs>
       <use xlink:href="#Poppins-Regular-53"/>
       <use xlink:href="#Poppins-Regular-61" transform="translate(58.699997 0)"/>
       <use xlink:href="#Poppins-Regular-6c" transform="translate(126.299988 0)"/>
       <use xlink:href="#Poppins-Regular-74" transform="translate(150.899979 0)"/>
       <use xlink:href="#Poppins-Regular-65" transform="translate(187.299973 0)"/>
       <use xlink:href="#Poppins-Regular-64" transform="translate(249.299957 0)"/>
       <use xlink:href="#Poppins-Regular-20" transform="translate(316.899948 0)"/>
       <use xlink:href="#Poppins-Regular-50" transform="translate(343.599945 0)"/>
       <use xlink:href="#Poppins-Regular-72" transform="translate(401.499939 0)"/>
       <use xlink:href="#Poppins-Regular-65" transform="translate(438.799927 0)"/>
       <use xlink:href="#Poppins-Regular-74" transform="translate(500.799911 0)"/>
       <use xlink:href="#Poppins-Regular-7a" transform="translate(537.199905 0)"/>
       <use xlink:href="#Poppins-Regular-65" transform="translate(582.69989 0)"/>
       <use xlink:href="#Poppins-Regular-6c" transform="translate(644.699875 0)"/>
       <use xlink:href="#Poppins-Regular-73" transform="translate(669.299866 0)"/>
      </g>
     </g>
    </g>
    <g id="ytick_3">
     <g id="text_8">
      <!-- Salted Chips -->
      <g transform="translate(62.21875 233.997187) scale(0.1 -0.1)">
       <defs>
        <path id="Poppins-Regular-43" d="M 275 2234
Q 275 2886 569 3408
Q 864 3930 1373 4224
Q 1882 4518 2502 4518
Q 3232 4518 3776 4166
Q 4320 3814 4570 3168
L 3872 3168
Q 3686 3571 3337 3788
Q 2989 4006 2502 4006
Q 2035 4006 1664 3788
Q 1293 3571 1081 3171
Q 870 2771 870 2234
Q 870 1702 1081 1302
Q 1293 902 1664 684
Q 2035 467 2502 467
Q 2989 467 3337 681
Q 3686 896 3872 1299
L 4570 1299
Q 4320 659 3776 310
Q 3232 -38 2502 -38
Q 1882 -38 1373 253
Q 864 544 569 1062
Q 275 1581 275 2234
z
" transform="scale(0.015625)"/>
        <path id="Poppins-Regular-68" d="M 2234 3571
Q 2630 3571 2950 3401
Q 3270 3232 3452 2893
Q 3635 2554 3635 2067
L 3635 0
L 3059 0
L 3059 1984
Q 3059 2509 2796 2787
Q 2534 3066 2080 3066
Q 1619 3066 1347 2778
Q 1075 2490 1075 1939
L 1075 0
L 493 0
L 493 4736
L 1075 4736
L 1075 3008
Q 1248 3277 1552 3424
Q 1856 3571 2234 3571
z
" transform="scale(0.015625)"/>
        <path id="Poppins-Regular-70" d="M 1075 2861
Q 1248 3162 1590 3363
Q 1933 3565 2387 3565
Q 2854 3565 3235 3341
Q 3616 3117 3833 2710
Q 4051 2304 4051 1766
Q 4051 1235 3833 819
Q 3616 403 3235 172
Q 2854 -58 2387 -58
Q 1939 -58 1596 144
Q 1254 346 1075 646
L 1075 -1664
L 493 -1664
L 493 3507
L 1075 3507
L 1075 2861
z
M 3456 1766
Q 3456 2163 3296 2457
Q 3136 2752 2864 2905
Q 2592 3059 2266 3059
Q 1946 3059 1674 2902
Q 1402 2746 1238 2448
Q 1075 2150 1075 1760
Q 1075 1363 1238 1065
Q 1402 768 1674 611
Q 1946 454 2266 454
Q 2592 454 2864 611
Q 3136 768 3296 1065
Q 3456 1363 3456 1766
z
" transform="scale(0.015625)"/>
       </defs>
       <use xlink:href="#Poppins-Regular-53"/>
       <use xlink:href="#Poppins-Regular-61" transform="translate(58.699997 0)"/>
       <use xlink:href="#Poppins-Regular-6c" transform="translate(126.299988 0)"/>
       <use xlink:href="#Poppins-Regular-74" transform="translate(150.899979 0)"/>
       <use xlink:href="#Poppins-Regular-65" transform="translate(187.299973 0)"/>
       <use xlink:href="#Poppins-Regular-64" transform="translate(249.299957 0)"/>
       <use xlink:href="#Poppins-Regular-20" transform="translate(316.899948 0)"/>
       <use xlink:href="#Poppins-Regular-43" transform="translate(343.599945 0)"/>
       <use xlink:href="#Poppins-Regular-68" transform="translate(420.799927 0)"/>
       <use xlink:href="#Poppins-Regular-69" transform="translate(484.799911 0)"/>
       <use xlink:href="#Poppins-Regular-70" transform="translate(509.399902 0)"/>
       <use xlink:href="#Poppins-Regular-73" transform="translate(576.999893 0)"/>
      </g>
     </g>
    </g>
    <g id="ytick_4">
     <g id="text_9">
      <!-- BBQ Chips -->
      <g transform="translate(73.76875 221.018187) scale(0.1 -0.1)">
       <defs>
        <path id="Poppins-Regular-42" d="M 2726 2298
Q 2970 2259 3171 2099
Q 3373 1939 3491 1702
Q 3610 1466 3610 1197
Q 3610 858 3437 586
Q 3264 314 2934 157
Q 2605 0 2157 0
L 493 0
L 493 4461
L 2093 4461
Q 2547 4461 2867 4310
Q 3187 4160 3347 3904
Q 3507 3648 3507 3328
Q 3507 2931 3292 2672
Q 3078 2413 2726 2298
z
M 1075 2534
L 2054 2534
Q 2464 2534 2688 2726
Q 2912 2918 2912 3258
Q 2912 3597 2688 3789
Q 2464 3981 2042 3981
L 1075 3981
L 1075 2534
z
M 2106 480
Q 2541 480 2784 685
Q 3027 890 3027 1254
Q 3027 1626 2771 1840
Q 2515 2054 2086 2054
L 1075 2054
L 1075 480
L 2106 480
z
" transform="scale(0.015625)"/>
        <path id="Poppins-Regular-51" d="M 4070 -845
L 3181 45
Q 2854 -45 2515 -45
Q 1894 -45 1382 246
Q 870 538 572 1059
Q 275 1581 275 2234
Q 275 2886 572 3408
Q 870 3930 1382 4221
Q 1894 4512 2515 4512
Q 3142 4512 3654 4221
Q 4166 3930 4460 3411
Q 4755 2893 4755 2234
Q 4755 1594 4473 1082
Q 4192 570 3699 275
L 4826 -845
L 4070 -845
z
M 870 2234
Q 870 1702 1084 1299
Q 1299 896 1673 678
Q 2048 461 2515 461
Q 2982 461 3356 678
Q 3731 896 3945 1299
Q 4160 1702 4160 2234
Q 4160 2771 3945 3171
Q 3731 3571 3360 3788
Q 2989 4006 2515 4006
Q 2042 4006 1670 3788
Q 1299 3571 1084 3171
Q 870 2771 870 2234
z
" transform="scale(0.015625)"/>
       </defs>
       <use xlink:href="#Poppins-Regular-42"/>
       <use xlink:href="#Poppins-Regular-42" transform="translate(61.299988 0)"/>
       <use xlink:href="#Poppins-Regular-51" transform="translate(122.599976 0)"/>
       <use xlink:href="#Poppins-Regular-20" transform="translate(201.399963 0)"/>
       <use xlink:href="#Poppins-Regular-43" transform="translate(228.09996 0)"/>
       <use xlink:href="#Poppins-Regular-68" transform="translate(305.299942 0)"/>
       <use xlink:href="#Poppins-Regular-69" transform="translate(369.299927 0)"/>
       <use xlink:href="#Poppins-Regular-70" transform="translate(393.899918 0)"/>
       <use xlink:href="#Poppins-Regular-73" transform="translate(461.499908 0)"/>
      </g>
     </g>
    </g>
    <g id="ytick_5">
     <g id="text_10">
      <!-- Sour Cream Chips -->
      <g transform="translate(34.128125 208.039187) scale(0.1 -0.1)">
       <defs>
        <path id="Poppins-Regular-6d" d="M 4710 3571
Q 5120 3571 5440 3401
Q 5760 3232 5945 2893
Q 6131 2554 6131 2067
L 6131 0
L 5555 0
L 5555 1984
Q 5555 2509 5296 2787
Q 5037 3066 4595 3066
Q 4141 3066 3872 2774
Q 3603 2483 3603 1933
L 3603 0
L 3027 0
L 3027 1984
Q 3027 2509 2768 2787
Q 2509 3066 2067 3066
Q 1613 3066 1344 2774
Q 1075 2483 1075 1933
L 1075 0
L 493 0
L 493 3507
L 1075 3507
L 1075 3002
Q 1248 3277 1539 3424
Q 1830 3571 2182 3571
Q 2624 3571 2963 3372
Q 3302 3174 3469 2790
Q 3616 3162 3955 3366
Q 4294 3571 4710 3571
z
" transform="scale(0.015625)"/>
       </defs>
       <use xlink:href="#Poppins-Regular-53"/>
       <use xlink:href="#Poppins-Regular-6f" transform="translate(58.699997 0)"/>
       <use xlink:href="#Poppins-Regular-75" transform="translate(122.699982 0)"/>
       <use xlink:href="#Poppins-Regular-72" transform="translate(186.699966 0)"/>
       <use xlink:href="#Poppins-Regular-20" transform="translate(223.999954 0)"/>
       <use xlink:href="#Poppins-Regular-43" transform="translate(250.699951 0)"/>
       <use xlink:href="#Poppins-Regular-72" transform="translate(327.899933 0)"/>
       <use xlink:href="#Poppins-Regular-65" transform="translate(365.199921 0)"/>
       <use xlink:href="#Poppins-Regular-61" transform="translate(427.199905 0)"/>
       <use xlink:href="#Poppins-Regular-6d" transform="translate(494.799896 0)"/>
       <use xlink:href="#Poppins-Regular-20" transform="translate(597.799881 0)"/>
       <use xlink:href="#Poppins-Regular-43" transform="translate(624.499878 0)"/>
       <use xlink:href="#Poppins-Regular-68" transform="translate(701.69986 0)"/>
       <use xlink:href="#Poppins-Regular-69" transform="translate(765.699844 0)"/>
       <use xlink:href="#Poppins-Regular-70" transform="translate(790.299835 0)"/>
       <use xlink:href="#Poppins-Regular-73" transform="translate(857.899826 0)"/>
      </g>
     </g>
    </g>
    <g id="ytick_6">
     <g id="text_11">
      <!-- Milk Chocolate Bar -->
      <g transform="translate(32.45 194.9555) scale(0.1 -0.1)">
       <defs>
        <path id="Poppins-Regular-6b" d="M 2451 0
L 1075 1549
L 1075 0
L 493 0
L 493 4736
L 1075 4736
L 1075 1952
L 2426 3507
L 3238 3507
L 1587 1760
L 3245 0
L 2451 0
z
" transform="scale(0.015625)"/>
       </defs>
       <use xlink:href="#Poppins-Regular-4d"/>
       <use xlink:href="#Poppins-Regular-69" transform="translate(86.099991 0)"/>
       <use xlink:href="#Poppins-Regular-6c" transform="translate(110.699982 0)"/>
       <use xlink:href="#Poppins-Regular-6b" transform="translate(135.299973 0)"/>
       <use xlink:href="#Poppins-Regular-20" transform="translate(186.799957 0)"/>
       <use xlink:href="#Poppins-Regular-43" transform="translate(213.499954 0)"/>
       <use xlink:href="#Poppins-Regular-68" transform="translate(290.699936 0)"/>
       <use xlink:href="#Poppins-Regular-6f" transform="translate(354.699921 0)"/>
       <use xlink:href="#Poppins-Regular-63" transform="translate(418.699905 0)"/>
       <use xlink:href="#Poppins-Regular-6f" transform="translate(479.399902 0)"/>
       <use xlink:href="#Poppins-Regular-6c" transform="translate(543.399887 0)"/>
       <use xlink:href="#Poppins-Regular-61" transform="translate(567.999878 0)"/>
       <use xlink:href="#Poppins-Regular-74" transform="translate(635.599869 0)"/>
       <use xlink:href="#Poppins-Regular-65" transform="translate(671.999863 0)"/>
       <use xlink:href="#Poppins-Regular-20" transform="translate(733.999847 0)"/>
       <use xlink:href="#Poppins-Regular-42" transform="translate(760.699844 0)"/>
       <use xlink:href="#Poppins-Regular-61" transform="translate(821.999832 0)"/>
       <use xlink:href="#Poppins-Regular-72" transform="translate(889.599823 0)"/>
      </g>
     </g>
    </g>
    <g id="ytick_7">
     <g id="text_12">
      <!-- Caramel Chocolate Bar -->
      <g transform="translate(7.2 181.9765) scale(0.1 -0.1)">
       <use xlink:href="#Poppins-Regular-43"/>
       <use xlink:href="#Poppins-Regular-61" transform="translate(77.199982 0)"/>
       <use xlink:href="#Poppins-Regular-72" transform="translate(144.799973 0)"/>
       <use xlink:href="#Poppins-Regular-61" transform="translate(182.09996 0)"/>
       <use xlink:href="#Poppins-Regular-6d" transform="translate(249.699951 0)"/>
       <use xlink:href="#Poppins-Regular-65" transform="translate(352.699936 0)"/>
       <use xlink:href="#Poppins-Regular-6c" transform="translate(414.699921 0)"/>
       <use xlink:href="#Poppins-Regular-20" transform="translate(439.299911 0)"/>
       <use xlink:href="#Poppins-Regular-43" transform="translate(465.999908 0)"/>
       <use xlink:href="#Poppins-Regular-68" transform="translate(543.19989 0)"/>
       <use xlink:href="#Poppins-Regular-6f" transform="translate(607.199875 0)"/>
       <use xlink:href="#Poppins-Regular-63" transform="translate(671.19986 0)"/>
       <use xlink:href="#Poppins-Regular-6f" transform="translate(731.899857 0)"/>
       <use xlink:href="#Poppins-Regular-6c" transform="translate(795.899841 0)"/>
       <use xlink:href="#Poppins-Regular-61" transform="translate(820.499832 0)"/>
       <use xlink:href="#Poppins-Regular-74" transform="translate(888.099823 0)"/>
       <use xlink:href="#Poppins-Regular-65" transform="translate(924.499817 0)"/>
       <use xlink:href="#Poppins-Regular-20" transform="translate(986.499802 0)"/>
       <use xlink:href="#Poppins-Regular-42" transform="translate(1013.199799 0)"/>
       <use xlink:href="#Poppins-Regular-61" transform="translate(1074.499786 0)"/>
       <use xlink:href="#Poppins-Regular-72" transform="translate(1142.099777 0)"/>
      </g>
     </g>
    </g>
    <g id="ytick_8">
     <g id="text_13">
      <!-- Dark Chocolate Bar -->
      <g transform="translate(28.41875 168.9975) scale(0.1 -0.1)">
       <use xlink:href="#Poppins-Regular-44"/>
       <use xlink:href="#Poppins-Regular-61" transform="translate(70.699982 0)"/>
       <use xlink:href="#Poppins-Regular-72" transform="translate(138.299973 0)"/>
       <use xlink:href="#Poppins-Regular-6b" transform="translate(175.59996 0)"/>
       <use xlink:href="#Poppins-Regular-20" transform="translate(227.099945 0)"/>
       <use xlink:href="#Poppins-Regular-43" transform="translate(253.799942 0)"/>
       <use xlink:href="#Poppins-Regular-68" transform="translate(330.999924 0)"/>
       <use xlink:href="#Poppins-Regular-6f" transform="translate(394.999908 0)"/>
       <use xlink:href="#Poppins-Regular-63" transform="translate(458.999893 0)"/>
       <use xlink:href="#Poppins-Regular-6f" transform="translate(519.69989 0)"/>
       <use xlink:href="#Poppins-Regular-6c" transform="translate(583.699875 0)"/>
       <use xlink:href="#Poppins-Regular-61" transform="translate(608.299866 0)"/>
       <use xlink:href="#Poppins-Regular-74" transform="translate(675.899857 0)"/>
       <use xlink:href="#Poppins-Regular-65" transform="translate(712.29985 0)"/>
       <use xlink:href="#Poppins-Regular-20" transform="translate(774.299835 0)"/>
       <use xlink:href="#Poppins-Regular-42" transform="translate(800.999832 0)"/>
       <use xlink:href="#Poppins-Regular-61" transform="translate(862.29982 0)"/>
       <use xlink:href="#Poppins-Regular-72" transform="translate(929.899811 0)"/>
      </g>
     </g>
    </g>
    <g id="ytick_9">
     <g id="text_14">
      <!-- Wheat Crackers -->
      <g transform="translate(45.128125 156.0185) scale(0.1 -0.1)">
       <defs>
        <path id="Poppins-Regular-57" d="M 6099 4461
L 4806 0
L 4154 0
L 3117 3590
L 2042 0
L 1395 -6
L 147 4461
L 768 4461
L 1741 678
L 2816 4461
L 3469 4461
L 4493 691
L 5472 4461
L 6099 4461
z
" transform="scale(0.015625)"/>
       </defs>
       <use xlink:href="#Poppins-Regular-57"/>
       <use xlink:href="#Poppins-Regular-68" transform="translate(97.599991 0)"/>
       <use xlink:href="#Poppins-Regular-65" transform="translate(161.599976 0)"/>
       <use xlink:href="#Poppins-Regular-61" transform="translate(223.59996 0)"/>
       <use xlink:href="#Poppins-Regular-74" transform="translate(291.199951 0)"/>
       <use xlink:href="#Poppins-Regular-20" transform="translate(327.599945 0)"/>
       <use xlink:href="#Poppins-Regular-43" transform="translate(354.299942 0)"/>
       <use xlink:href="#Poppins-Regular-72" transform="translate(431.499924 0)"/>
       <use xlink:href="#Poppins-Regular-61" transform="translate(468.799911 0)"/>
       <use xlink:href="#Poppins-Regular-63" transform="translate(536.399902 0)"/>
       <use xlink:href="#Poppins-Regular-6b" transform="translate(597.099899 0)"/>
       <use xlink:href="#Poppins-Regular-65" transform="translate(648.599884 0)"/>
       <use xlink:href="#Poppins-Regular-72" transform="translate(710.599869 0)"/>
       <use xlink:href="#Poppins-Regular-73" transform="translate(747.899857 0)"/>
      </g>
     </g>
    </g>
    <g id="ytick_10">
     <g id="text_15">
      <!-- Cheese Crackers -->
      <g transform="translate(39.946875 143.0395) scale(0.1 -0.1)">
       <use xlink:href="#Poppins-Regular-43"/>
       <use xlink:href="#Poppins-Regular-68" transform="translate(77.199982 0)"/>
       <use xlink:href="#Poppins-Regular-65" transform="translate(141.199966 0)"/>
       <use xlink:href="#Poppins-Regular-65" transform="translate(203.199951 0)"/>
       <use xlink:href="#Poppins-Regular-73" transform="translate(265.199936 0)"/>
       <use xlink:href="#Poppins-Regular-65" transform="translate(317.399933 0)"/>
       <use xlink:href="#Poppins-Regular-20" transform="translate(379.399918 0)"/>
       <use xlink:href="#Poppins-Regular-43" transform="translate(406.099915 0)"/>
       <use xlink:href="#Poppins-Regular-72" transform="translate(483.299896 0)"/>
       <use xlink:href="#Poppins-Regular-61" transform="translate(520.599884 0)"/>
       <use xlink:href="#Poppins-Regular-63" transform="translate(588.199875 0)"/>
       <use xlink:href="#Poppins-Regular-6b" transform="translate(648.899872 0)"/>
       <use xlink:href="#Poppins-Regular-65" transform="translate(700.399857 0)"/>
       <use xlink:href="#Poppins-Regular-72" transform="translate(762.399841 0)"/>
       <use xlink:href="#Poppins-Regular-73" transform="translate(799.699829 0)"/>
      </g>
     </g>
    </g>
    <g id="ytick_11">
     <g id="text_16">
      <!-- Peanut Butter Crackers -->
      <g transform="translate(10.285937 130.0605) scale(0.1 -0.1)">
       <use xlink:href="#Poppins-Regular-50"/>
       <use xlink:href="#Poppins-Regular-65" transform="translate(57.899994 0)"/>
       <use xlink:href="#Poppins-Regular-61" transform="translate(119.899979 0)"/>
       <use xlink:href="#Poppins-Regular-6e" transform="translate(187.499969 0)"/>
       <use xlink:href="#Poppins-Regular-75" transform="translate(251.499954 0)"/>
       <use xlink:href="#Poppins-Regular-74" transform="translate(315.499939 0)"/>
       <use xlink:href="#Poppins-Regular-20" transform="translate(351.899933 0)"/>
       <use xlink:href="#Poppins-Regular-42" transform="translate(378.59993 0)"/>
       <use xlink:href="#Poppins-Regular-75" transform="translate(439.899918 0)"/>
       <use xlink:href="#Poppins-Regular-74" transform="translate(503.899902 0)"/>
       <use xlink:href="#Poppins-Regular-74" transform="translate(540.299896 0)"/>
       <use xlink:href="#Poppins-Regular-65" transform="translate(576.69989 0)"/>
       <use xlink:href="#Poppins-Regular-72" transform="translate(638.699875 0)"/>
       <use xlink:href="#Poppins-Regular-20" transform="translate(675.999863 0)"/>
       <use xlink:href="#Poppins-Regular-43" transform="translate(702.69986 0)"/>
       <use xlink:href="#Poppins-Regular-72" transform="translate(779.899841 0)"/>
       <use xlink:href="#Poppins-Regular-61" transform="translate(817.199829 0)"/>
       <use xlink:href="#Poppins-Regular-63" transform="translate(884.79982 0)"/>
       <use xlink:href="#Poppins-Regular-6b" transform="translate(945.499817 0)"/>
       <use xlink:href="#Poppins-Regular-65" transform="translate(996.999802 0)"/>
       <use xlink:href="#Poppins-Regular-72" transform="translate(1058.999786 0)"/>
       <use xlink:href="#Poppins-Regular-73" transform="translate(1096.299774 0)"/>
      </g>
     </g>
    </g>
   </g>
   <g id="LineCollection_1">
    <path d="M 131.1375 256.1505
L 136.241555 256.1505
L 136.241555 243.1715
L 131.1375 243.1715
" clip-path="url(#p07f8283299)" style="fill: none; stroke: #ff7f0e; stroke-width: 1.5"/>
    <path d="M 131.1375 217.2135
L 151.254221 217.2135
L 151.254221 204.2345
L 131.1375 204.2345
" clip-path="url(#p07f8283299)" style="fill: none; stroke: #ff7f0e; stroke-width: 1.5"/>
    <path d="M 131.1375 230.1925
L 151.976668 230.1925
L 151.976668 210.724
L 151.254221 210.724
" clip-path="url(#p07f8283299)" style="fill: none; stroke: #ff7f0e; stroke-width: 1.5"/>
    <path d="M 136.241555 249.661
L 292.57914 249.661
L 292.57914 220.45825
L 151.976668 220.45825
" clip-path="url(#p07f8283299)" style="fill: none; stroke: #ff7f0e; stroke-width: 1.5"/>
   </g>
   <g id="LineCollection_2">
    <path d="M 131.1375 178.2765
L 136.039349 178.2765
L 136.039349 165.2975
L 131.1375 165.2975
" clip-path="url(#p07f8283299)" style="fill: none; stroke: #2ca02c; stroke-width: 1.5"/>
    <path d="M 131.1375 191.2555
L 140.408336 191.2555
L 140.408336 171.787
L 136.039349 171.787
" clip-path="url(#p07f8283299)" style="fill: none; stroke: #2ca02c; stroke-width: 1.5"/>
    <path d="M 131.1375 139.3395
L 146.057513 139.3395
L 146.057513 126.3605
L 131.1375 126.3605
" clip-path="url(#p07f8283299)" style="fill: none; stroke: #2ca02c; stroke-width: 1.5"/>
    <path d="M 131.1375 152.3185
L 157.452188 152.3185
L 157.452188 132.85
L 146.057513 132.85
" clip-path="url(#p07f8283299)" style="fill: none; stroke: #2ca02c; stroke-width: 1.5"/>
    <path d="M 140.408336 181.52125
L 318.600943 181.52125
L 318.600943 142.58425
L 157.452188 142.58425
" clip-path="url(#p07f8283299)" style="fill: none; stroke: #2ca02c; stroke-width: 1.5"/>
   </g>
   <g id="LineCollection_3">
    <path d="M 292.57914 235.059625
L 437.886071 235.059625
L 437.886071 162.05275
L 318.600943 162.05275
" clip-path="url(#p07f8283299)" style="fill: none; stroke: #1f77b4; stroke-width: 1.5"/>
   </g>
   <g id="patch_3">
    <path d="M 131.1375 262.64
L 131.1375 119.871
" style="fill: none; stroke: #000000; stroke-width: 0.8; stroke-linejoin: miter; stroke-linecap: square"/>
   </g>
   <g id="patch_4">
    <path d="M 131.1375 262.64
L 453.2235 262.64
" style="fill: none; stroke: #000000; stroke-width: 0.8; stroke-linejoin: miter; stroke-linecap: square"/>
   </g>
  </g>
  <g id="_ors_chrome:139127949643344">
   <path d="M 131.1375 10.08
L 164.9775 10.08
L 164.9775 7.2
L 131.1375 7.2
z
" style="fill: #16a34a"/>
  </g>
  <g id="_ors_chrome:139127949643344">
   <!-- SNACK ASSORTMENT -->
   <g style="fill: #737373" transform="translate(131.1375 26.84) scale(0.1 -0.1)">
    <defs>
     <path id="Poppins-SemiBold-53" d="M 1984 -45
Q 1517 -45 1142 115
Q 768 275 550 576
Q 333 877 326 1286
L 1286 1286
Q 1306 1011 1482 851
Q 1658 691 1965 691
Q 2278 691 2457 841
Q 2637 992 2637 1235
Q 2637 1434 2515 1562
Q 2394 1690 2211 1763
Q 2029 1837 1709 1926
Q 1274 2054 1002 2179
Q 730 2304 534 2557
Q 339 2810 339 3232
Q 339 3629 537 3923
Q 736 4218 1094 4374
Q 1453 4531 1914 4531
Q 2605 4531 3037 4195
Q 3469 3859 3514 3258
L 2528 3258
Q 2515 3488 2332 3638
Q 2150 3789 1850 3789
Q 1587 3789 1430 3654
Q 1274 3520 1274 3264
Q 1274 3085 1392 2966
Q 1510 2848 1686 2774
Q 1862 2701 2182 2605
Q 2618 2477 2893 2349
Q 3168 2221 3366 1965
Q 3565 1709 3565 1293
Q 3565 934 3379 627
Q 3194 320 2835 137
Q 2477 -45 1984 -45
z
" transform="scale(0.015625)"/>
     <path id="Poppins-SemiBold-4e" d="M 4262 0
L 3366 0
L 1338 3066
L 1338 0
L 442 0
L 442 4474
L 1338 4474
L 3366 1402
L 3366 4474
L 4262 4474
L 4262 0
z
" transform="scale(0.015625)"/>
     <path id="Poppins-SemiBold-41" d="M 3181 851
L 1402 851
L 1107 0
L 166 0
L 1773 4474
L 2816 4474
L 4422 0
L 3475 0
L 3181 851
z
M 2938 1568
L 2291 3437
L 1645 1568
L 2938 1568
z
" transform="scale(0.015625)"/>
     <path id="Poppins-SemiBold-43" d="M 224 2240
Q 224 2899 521 3420
Q 819 3942 1334 4233
Q 1850 4525 2490 4525
Q 3238 4525 3801 4141
Q 4365 3757 4589 3078
L 3558 3078
Q 3405 3398 3126 3558
Q 2848 3718 2483 3718
Q 2093 3718 1789 3536
Q 1485 3354 1315 3021
Q 1146 2688 1146 2240
Q 1146 1798 1315 1462
Q 1485 1126 1789 944
Q 2093 762 2483 762
Q 2848 762 3126 925
Q 3405 1088 3558 1408
L 4589 1408
Q 4365 723 3805 342
Q 3245 -38 2490 -38
Q 1850 -38 1334 253
Q 819 544 521 1062
Q 224 1581 224 2240
z
" transform="scale(0.015625)"/>
     <path id="Poppins-SemiBold-4b" d="M 2963 0
L 1338 1990
L 1338 0
L 442 0
L 442 4467
L 1338 4467
L 1338 2464
L 2963 4467
L 4045 4467
L 2202 2253
L 4096 0
L 2963 0
z
" transform="scale(0.015625)"/>
     <path id="Poppins-SemiBold-20" transform="scale(0.015625)"/>
     <path id="Poppins-SemiBold-4f" d="M 2515 -45
Q 1888 -45 1363 249
Q 838 544 531 1065
Q 224 1587 224 2246
Q 224 2899 531 3420
Q 838 3942 1363 4236
Q 1888 4531 2515 4531
Q 3149 4531 3670 4236
Q 4192 3942 4496 3420
Q 4800 2899 4800 2246
Q 4800 1587 4496 1065
Q 4192 544 3667 249
Q 3142 -45 2515 -45
z
M 2515 755
Q 2918 755 3225 937
Q 3533 1120 3705 1459
Q 3878 1798 3878 2246
Q 3878 2694 3705 3030
Q 3533 3366 3225 3545
Q 2918 3725 2515 3725
Q 2112 3725 1801 3545
Q 1491 3366 1318 3030
Q 1146 2694 1146 2246
Q 1146 1798 1318 1459
Q 1491 1120 1801 937
Q 2112 755 2515 755
z
" transform="scale(0.015625)"/>
     <path id="Poppins-SemiBold-52" d="M 2746 0
L 1760 1741
L 1338 1741
L 1338 0
L 442 0
L 442 4467
L 2118 4467
Q 2637 4467 3001 4284
Q 3366 4102 3548 3792
Q 3731 3482 3731 3098
Q 3731 2656 3475 2301
Q 3219 1946 2714 1811
L 3782 0
L 2746 0
z
M 1338 2413
L 2086 2413
Q 2451 2413 2630 2589
Q 2810 2765 2810 3078
Q 2810 3386 2630 3555
Q 2451 3725 2086 3725
L 1338 3725
L 1338 2413
z
" transform="scale(0.015625)"/>
     <path id="Poppins-SemiBold-54" d="M 3482 4467
L 3482 3744
L 2291 3744
L 2291 0
L 1395 0
L 1395 3744
L 205 3744
L 205 4467
L 3482 4467
z
" transform="scale(0.015625)"/>
     <path id="Poppins-SemiBold-4d" d="M 5312 4467
L 5312 0
L 4416 0
L 4416 2906
L 3219 0
L 2541 0
L 1338 2906
L 1338 0
L 442 0
L 442 4467
L 1459 4467
L 2880 1146
L 4301 4467
L 5312 4467
z
" transform="scale(0.015625)"/>
     <path id="Poppins-SemiBold-45" d="M 1338 3744
L 1338 2624
L 2842 2624
L 2842 1914
L 1338 1914
L 1338 730
L 3034 730
L 3034 0
L 442 0
L 442 4474
L 3034 4474
L 3034 3744
L 1338 3744
z
" transform="scale(0.015625)"/>
    </defs>
    <use xlink:href="#Poppins-SemiBold-53"/>
    <use xlink:href="#Poppins-SemiBold-4e" transform="translate(60.899994 0)"/>
    <use xlink:href="#Poppins-SemiBold-41" transform="translate(134.399979 0)"/>
    <use xlink:href="#Poppins-SemiBold-43" transform="translate(205.999969 0)"/>
    <use xlink:href="#Poppins-SemiBold-4b" transform="translate(282.799957 0)"/>
    <use xlink:href="#Poppins-SemiBold-20" transform="translate(349.099945 0)"/>
    <use xlink:href="#Poppins-SemiBold-41" transform="translate(372.899933 0)"/>
    <use xlink:href="#Poppins-SemiBold-53" transform="translate(444.499924 0)"/>
    <use xlink:href="#Poppins-SemiBold-53" transform="translate(505.399918 0)"/>
    <use xlink:href="#Poppins-SemiBold-4f" transform="translate(566.299911 0)"/>
    <use xlink:href="#Poppins-SemiBold-52" transform="translate(644.799896 0)"/>
    <use xlink:href="#Poppins-SemiBold-54" transform="translate(708.899887 0)"/>
    <use xlink:href="#Poppins-SemiBold-4d" transform="translate(766.599884 0)"/>
    <use xlink:href="#Poppins-SemiBold-45" transform="translate(856.499878 0)"/>
    <use xlink:href="#Poppins-SemiBold-4e" transform="translate(909.699875 0)"/>
    <use xlink:href="#Poppins-SemiBold-54" transform="translate(983.19986 0)"/>
   </g>
  </g>
  <g id="_ors_chrome:139127949643344">
   <!-- Shoppers cluster around four -->
   <g style="fill: #0a0a0a" transform="translate(131.1375 51.72) scale(0.22 -0.22)">
    <defs>
     <path id="Poppins-SemiBold-68" d="M 2438 3597
Q 2842 3597 3155 3421
Q 3469 3245 3645 2902
Q 3821 2560 3821 2080
L 3821 0
L 2925 0
L 2925 1958
Q 2925 2381 2713 2608
Q 2502 2835 2138 2835
Q 1766 2835 1552 2608
Q 1338 2381 1338 1958
L 1338 0
L 442 0
L 442 4736
L 1338 4736
L 1338 3104
Q 1510 3334 1798 3465
Q 2086 3597 2438 3597
z
" transform="scale(0.015625)"/>
     <path id="Poppins-SemiBold-6f" d="M 2016 -58
Q 1504 -58 1094 169
Q 685 397 451 813
Q 218 1229 218 1773
Q 218 2317 458 2733
Q 698 3149 1114 3376
Q 1530 3603 2042 3603
Q 2554 3603 2970 3376
Q 3386 3149 3626 2733
Q 3866 2317 3866 1773
Q 3866 1229 3619 813
Q 3373 397 2953 169
Q 2534 -58 2016 -58
z
M 2016 723
Q 2259 723 2473 841
Q 2688 960 2816 1197
Q 2944 1434 2944 1773
Q 2944 2278 2678 2550
Q 2413 2822 2029 2822
Q 1645 2822 1385 2550
Q 1126 2278 1126 1773
Q 1126 1267 1379 995
Q 1632 723 2016 723
z
" transform="scale(0.015625)"/>
     <path id="Poppins-SemiBold-70" d="M 1338 3034
Q 1510 3277 1814 3440
Q 2118 3603 2509 3603
Q 2963 3603 3331 3379
Q 3699 3155 3913 2742
Q 4128 2330 4128 1786
Q 4128 1242 3913 822
Q 3699 403 3331 172
Q 2963 -58 2509 -58
Q 2118 -58 1820 102
Q 1523 262 1338 506
L 1338 -1690
L 442 -1690
L 442 3546
L 1338 3546
L 1338 3034
z
M 3213 1786
Q 3213 2106 3081 2339
Q 2950 2573 2736 2694
Q 2522 2816 2272 2816
Q 2029 2816 1814 2691
Q 1600 2566 1469 2329
Q 1338 2093 1338 1773
Q 1338 1453 1469 1216
Q 1600 979 1814 854
Q 2029 730 2272 730
Q 2522 730 2736 858
Q 2950 986 3081 1222
Q 3213 1459 3213 1786
z
" transform="scale(0.015625)"/>
     <path id="Poppins-SemiBold-65" d="M 3738 1850
Q 3738 1658 3712 1504
L 1120 1504
Q 1152 1120 1389 902
Q 1626 685 1971 685
Q 2470 685 2682 1114
L 3648 1114
Q 3494 602 3059 272
Q 2624 -58 1990 -58
Q 1478 -58 1072 169
Q 666 397 438 813
Q 211 1229 211 1773
Q 211 2323 435 2739
Q 659 3155 1062 3379
Q 1466 3603 1990 3603
Q 2496 3603 2896 3385
Q 3296 3168 3517 2768
Q 3738 2368 3738 1850
z
M 2810 2106
Q 2803 2451 2560 2659
Q 2317 2867 1965 2867
Q 1632 2867 1405 2665
Q 1178 2464 1126 2106
L 2810 2106
z
" transform="scale(0.015625)"/>
     <path id="Poppins-SemiBold-72" d="M 1338 2995
Q 1510 3277 1788 3437
Q 2067 3597 2426 3597
L 2426 2656
L 2189 2656
Q 1766 2656 1552 2457
Q 1338 2259 1338 1766
L 1338 0
L 442 0
L 442 3546
L 1338 3546
L 1338 2995
z
" transform="scale(0.015625)"/>
     <path id="Poppins-SemiBold-73" d="M 1798 -58
Q 1363 -58 1017 99
Q 672 256 470 525
Q 269 794 250 1120
L 1152 1120
Q 1178 915 1354 780
Q 1530 646 1792 646
Q 2048 646 2192 748
Q 2336 851 2336 1011
Q 2336 1184 2160 1270
Q 1984 1357 1600 1459
Q 1203 1555 950 1657
Q 698 1760 515 1971
Q 333 2182 333 2541
Q 333 2835 502 3078
Q 672 3322 989 3462
Q 1306 3603 1734 3603
Q 2368 3603 2745 3286
Q 3123 2970 3162 2432
L 2304 2432
Q 2285 2643 2128 2768
Q 1971 2893 1709 2893
Q 1466 2893 1334 2803
Q 1203 2714 1203 2554
Q 1203 2374 1382 2281
Q 1562 2189 1939 2093
Q 2323 1997 2572 1894
Q 2822 1792 3004 1577
Q 3187 1363 3194 1011
Q 3194 704 3024 461
Q 2854 218 2537 80
Q 2221 -58 1798 -58
z
" transform="scale(0.015625)"/>
     <path id="Poppins-SemiBold-63" d="M 211 1773
Q 211 2323 435 2736
Q 659 3149 1056 3376
Q 1453 3603 1965 3603
Q 2624 3603 3056 3273
Q 3488 2944 3635 2349
L 2669 2349
Q 2592 2579 2409 2710
Q 2227 2842 1958 2842
Q 1574 2842 1350 2563
Q 1126 2285 1126 1773
Q 1126 1267 1350 988
Q 1574 710 1958 710
Q 2502 710 2669 1197
L 3635 1197
Q 3488 621 3053 281
Q 2618 -58 1965 -58
Q 1453 -58 1056 169
Q 659 397 435 809
Q 211 1222 211 1773
z
" transform="scale(0.015625)"/>
     <path id="Poppins-SemiBold-6c" d="M 1338 4736
L 1338 0
L 442 0
L 442 4736
L 1338 4736
z
" transform="scale(0.015625)"/>
     <path id="Poppins-SemiBold-75" d="M 3789 3546
L 3789 0
L 2886 0
L 2886 448
Q 2714 218 2435 86
Q 2157 -45 1830 -45
Q 1414 -45 1094 131
Q 774 307 592 649
Q 410 992 410 1466
L 410 3546
L 1306 3546
L 1306 1594
Q 1306 1171 1517 944
Q 1728 717 2093 717
Q 2464 717 2675 944
Q 2886 1171 2886 1594
L 2886 3546
L 3789 3546
z
" transform="scale(0.015625)"/>
     <path id="Poppins-SemiBold-74" d="M 1485 2810
L 1485 1094
Q 1485 915 1571 835
Q 1658 755 1862 755
L 2278 755
L 2278 0
L 1715 0
Q 582 0 582 1101
L 582 2810
L 160 2810
L 160 3546
L 582 3546
L 582 4422
L 1485 4422
L 1485 3546
L 2278 3546
L 2278 2810
L 1485 2810
z
" transform="scale(0.015625)"/>
     <path id="Poppins-SemiBold-61" d="M 211 1786
Q 211 2323 425 2739
Q 640 3155 1008 3379
Q 1376 3603 1830 3603
Q 2227 3603 2524 3443
Q 2822 3283 3002 3040
L 3002 3546
L 3904 3546
L 3904 0
L 3002 0
L 3002 518
Q 2829 269 2525 105
Q 2221 -58 1824 -58
Q 1376 -58 1008 172
Q 640 403 425 822
Q 211 1242 211 1786
z
M 3002 1773
Q 3002 2099 2874 2332
Q 2746 2566 2528 2691
Q 2310 2816 2061 2816
Q 1811 2816 1600 2694
Q 1389 2573 1257 2339
Q 1126 2106 1126 1786
Q 1126 1466 1257 1226
Q 1389 986 1603 858
Q 1818 730 2061 730
Q 2310 730 2528 854
Q 2746 979 2874 1212
Q 3002 1446 3002 1773
z
" transform="scale(0.015625)"/>
     <path id="Poppins-SemiBold-6e" d="M 2406 3597
Q 3040 3597 3430 3197
Q 3821 2797 3821 2080
L 3821 0
L 2925 0
L 2925 1958
Q 2925 2381 2713 2608
Q 2502 2835 2138 2835
Q 1766 2835 1552 2608
Q 1338 2381 1338 1958
L 1338 0
L 442 0
L 442 3546
L 1338 3546
L 1338 3104
Q 1517 3334 1795 3465
Q 2074 3597 2406 3597
z
" transform="scale(0.015625)"/>
     <path id="Poppins-SemiBold-64" d="M 211 1786
Q 211 2323 425 2739
Q 640 3155 1011 3379
Q 1382 3603 1837 3603
Q 2182 3603 2496 3452
Q 2810 3302 2995 3053
L 2995 4736
L 3904 4736
L 3904 0
L 2995 0
L 2995 525
Q 2829 262 2528 102
Q 2227 -58 1830 -58
Q 1382 -58 1011 172
Q 640 403 425 822
Q 211 1242 211 1786
z
M 3002 1773
Q 3002 2099 2874 2332
Q 2746 2566 2528 2691
Q 2310 2816 2061 2816
Q 1811 2816 1600 2694
Q 1389 2573 1257 2339
Q 1126 2106 1126 1786
Q 1126 1466 1257 1226
Q 1389 986 1603 858
Q 1818 730 2061 730
Q 2310 730 2528 854
Q 2746 979 2874 1212
Q 3002 1446 3002 1773
z
" transform="scale(0.015625)"/>
     <path id="Poppins-SemiBold-66" d="M 2067 2810
L 1446 2810
L 1446 0
L 538 0
L 538 2810
L 134 2810
L 134 3546
L 538 3546
L 538 3725
Q 538 4378 909 4685
Q 1280 4992 2029 4973
L 2029 4218
Q 1702 4224 1574 4109
Q 1446 3994 1446 3693
L 1446 3546
L 2067 3546
L 2067 2810
z
" transform="scale(0.015625)"/>
    </defs>
    <use xlink:href="#Poppins-SemiBold-53"/>
    <use xlink:href="#Poppins-SemiBold-68" transform="translate(60.899994 0)"/>
    <use xlink:href="#Poppins-SemiBold-6f" transform="translate(126.999985 0)"/>
    <use xlink:href="#Poppins-SemiBold-70" transform="translate(190.799973 0)"/>
    <use xlink:href="#Poppins-SemiBold-70" transform="translate(258.59996 0)"/>
    <use xlink:href="#Poppins-SemiBold-65" transform="translate(326.399948 0)"/>
    <use xlink:href="#Poppins-SemiBold-72" transform="translate(388.099945 0)"/>
    <use xlink:href="#Poppins-SemiBold-73" transform="translate(428.499939 0)"/>
    <use xlink:href="#Poppins-SemiBold-20" transform="translate(482.999924 0)"/>
    <use xlink:href="#Poppins-SemiBold-63" transform="translate(506.799911 0)"/>
    <use xlink:href="#Poppins-SemiBold-6c" transform="translate(566.999908 0)"/>
    <use xlink:href="#Poppins-SemiBold-75" transform="translate(594.799896 0)"/>
    <use xlink:href="#Poppins-SemiBold-73" transform="translate(660.899887 0)"/>
    <use xlink:href="#Poppins-SemiBold-74" transform="translate(715.399872 0)"/>
    <use xlink:href="#Poppins-SemiBold-65" transform="translate(754.19986 0)"/>
    <use xlink:href="#Poppins-SemiBold-72" transform="translate(815.899857 0)"/>
    <use xlink:href="#Poppins-SemiBold-20" transform="translate(856.29985 0)"/>
    <use xlink:href="#Poppins-SemiBold-61" transform="translate(880.099838 0)"/>
    <use xlink:href="#Poppins-SemiBold-72" transform="translate(947.899826 0)"/>
    <use xlink:href="#Poppins-SemiBold-6f" transform="translate(988.29982 0)"/>
    <use xlink:href="#Poppins-SemiBold-75" transform="translate(1052.099808 0)"/>
    <use xlink:href="#Poppins-SemiBold-6e" transform="translate(1118.199799 0)"/>
    <use xlink:href="#Poppins-SemiBold-64" transform="translate(1184.299789 0)"/>
    <use xlink:href="#Poppins-SemiBold-20" transform="translate(1252.099777 0)"/>
    <use xlink:href="#Poppins-SemiBold-66" transform="translate(1275.899765 0)"/>
    <use xlink:href="#Poppins-SemiBold-6f" transform="translate(1310.39975 0)"/>
    <use xlink:href="#Poppins-SemiBold-75" transform="translate(1374.199738 0)"/>
    <use xlink:href="#Poppins-SemiBold-72" transform="translate(1440.299728 0)"/>
   </g>
   <!-- snack archetypes -->
   <g style="fill: #0a0a0a" transform="translate(131.1375 77.065375) scale(0.22 -0.22)">
    <defs>
     <path id="Poppins-SemiBold-6b" d="M 2541 0
L 1338 1510
L 1338 0
L 442 0
L 442 4736
L 1338 4736
L 1338 2042
L 2528 3546
L 3693 3546
L 2131 1766
L 3706 0
L 2541 0
z
" transform="scale(0.015625)"/>
     <path id="Poppins-SemiBold-79" d="M 3834 3546
L 1638 -1677
L 685 -1677
L 1453 90
L 32 3546
L 1037 3546
L 1952 1069
L 2880 3546
L 3834 3546
z
" transform="scale(0.015625)"/>
    </defs>
    <use xlink:href="#Poppins-SemiBold-73"/>
    <use xlink:href="#Poppins-SemiBold-6e" transform="translate(54.499985 0)"/>
    <use xlink:href="#Poppins-SemiBold-61" transform="translate(120.599976 0)"/>
    <use xlink:href="#Poppins-SemiBold-63" transform="translate(188.399963 0)"/>
    <use xlink:href="#Poppins-SemiBold-6b" transform="translate(248.59996 0)"/>
    <use xlink:href="#Poppins-SemiBold-20" transform="translate(306.999954 0)"/>
    <use xlink:href="#Poppins-SemiBold-61" transform="translate(330.799942 0)"/>
    <use xlink:href="#Poppins-SemiBold-72" transform="translate(398.59993 0)"/>
    <use xlink:href="#Poppins-SemiBold-63" transform="translate(438.999924 0)"/>
    <use xlink:href="#Poppins-SemiBold-68" transform="translate(499.199921 0)"/>
    <use xlink:href="#Poppins-SemiBold-65" transform="translate(565.299911 0)"/>
    <use xlink:href="#Poppins-SemiBold-74" transform="translate(626.999908 0)"/>
    <use xlink:href="#Poppins-SemiBold-79" transform="translate(665.799896 0)"/>
    <use xlink:href="#Poppins-SemiBold-70" transform="translate(726.299881 0)"/>
    <use xlink:href="#Poppins-SemiBold-65" transform="translate(794.099869 0)"/>
    <use xlink:href="#Poppins-SemiBold-73" transform="translate(855.799866 0)"/>
   </g>
  </g>
  <g id="_ors_chrome:139127949643344">
   <!-- Substitutability distance across 11 SKUs; closer joins -->
   <g style="fill: #525252" transform="translate(131.1375 96.45825) scale(0.12 -0.12)">
    <defs>
     <path id="Poppins-Regular-62" d="M 1075 2854
Q 1254 3168 1600 3366
Q 1946 3565 2387 3565
Q 2861 3565 3238 3341
Q 3616 3117 3833 2710
Q 4051 2304 4051 1766
Q 4051 1235 3833 819
Q 3616 403 3235 172
Q 2854 -58 2387 -58
Q 1933 -58 1590 140
Q 1248 339 1075 646
L 1075 0
L 493 0
L 493 4736
L 1075 4736
L 1075 2854
z
M 3456 1766
Q 3456 2163 3296 2457
Q 3136 2752 2864 2905
Q 2592 3059 2266 3059
Q 1946 3059 1674 2902
Q 1402 2746 1238 2448
Q 1075 2150 1075 1760
Q 1075 1363 1238 1065
Q 1402 768 1674 611
Q 1946 454 2266 454
Q 2592 454 2864 611
Q 3136 768 3296 1065
Q 3456 1363 3456 1766
z
" transform="scale(0.015625)"/>
     <path id="Poppins-Regular-4b" d="M 2912 0
L 1075 2035
L 1075 0
L 493 0
L 493 4461
L 1075 4461
L 1075 2394
L 2918 4461
L 3654 4461
L 1632 2227
L 3674 0
L 2912 0
z
" transform="scale(0.015625)"/>
     <path id="Poppins-Regular-55" d="M 1062 4461
L 1062 1638
Q 1062 1043 1353 755
Q 1645 467 2163 467
Q 2675 467 2966 755
Q 3258 1043 3258 1638
L 3258 4461
L 3840 4461
L 3840 1645
Q 3840 1088 3616 707
Q 3392 326 3011 140
Q 2630 -45 2157 -45
Q 1683 -45 1302 140
Q 922 326 701 707
Q 480 1088 480 1645
L 480 4461
L 1062 4461
z
" transform="scale(0.015625)"/>
     <path id="Poppins-Regular-3b" d="M 830 2714
Q 664 2714 549 2829
Q 434 2944 434 3110
Q 434 3277 549 3392
Q 664 3507 830 3507
Q 990 3507 1102 3392
Q 1214 3277 1214 3110
Q 1214 2944 1102 2829
Q 990 2714 830 2714
z
M 1254 806
L 538 -915
L 147 -915
L 614 806
L 1254 806
z
" transform="scale(0.015625)"/>
     <path id="Poppins-Regular-6a" d="M 806 4077
Q 640 4077 528 4192
Q 416 4307 416 4474
Q 416 4640 528 4755
Q 640 4870 806 4870
Q 973 4870 1085 4755
Q 1197 4640 1197 4474
Q 1197 4307 1085 4192
Q 973 4077 806 4077
z
M 1094 -762
Q 1094 -1229 857 -1446
Q 621 -1664 166 -1664
L -173 -1664
L -173 -1171
L 70 -1171
Q 314 -1171 413 -1075
Q 512 -979 512 -749
L 512 3507
L 1094 3507
L 1094 -762
z
" transform="scale(0.015625)"/>
    </defs>
    <use xlink:href="#Poppins-Regular-53"/>
    <use xlink:href="#Poppins-Regular-75" transform="translate(58.699997 0)"/>
    <use xlink:href="#Poppins-Regular-62" transform="translate(122.699982 0)"/>
    <use xlink:href="#Poppins-Regular-73" transform="translate(190.299973 0)"/>
    <use xlink:href="#Poppins-Regular-74" transform="translate(242.499969 0)"/>
    <use xlink:href="#Poppins-Regular-69" transform="translate(278.899963 0)"/>
    <use xlink:href="#Poppins-Regular-74" transform="translate(303.499954 0)"/>
    <use xlink:href="#Poppins-Regular-75" transform="translate(339.899948 0)"/>
    <use xlink:href="#Poppins-Regular-74" transform="translate(403.899933 0)"/>
    <use xlink:href="#Poppins-Regular-61" transform="translate(440.299927 0)"/>
    <use xlink:href="#Poppins-Regular-62" transform="translate(507.899918 0)"/>
    <use xlink:href="#Poppins-Regular-69" transform="translate(575.499908 0)"/>
    <use xlink:href="#Poppins-Regular-6c" transform="translate(600.099899 0)"/>
    <use xlink:href="#Poppins-Regular-69" transform="translate(624.69989 0)"/>
    <use xlink:href="#Poppins-Regular-74" transform="translate(649.299881 0)"/>
    <use xlink:href="#Poppins-Regular-79" transform="translate(685.699875 0)"/>
    <use xlink:href="#Poppins-Regular-20" transform="translate(741.999863 0)"/>
    <use xlink:href="#Poppins-Regular-64" transform="translate(768.69986 0)"/>
    <use xlink:href="#Poppins-Regular-69" transform="translate(836.29985 0)"/>
    <use xlink:href="#Poppins-Regular-73" transform="translate(860.899841 0)"/>
    <use xlink:href="#Poppins-Regular-74" transform="translate(913.099838 0)"/>
    <use xlink:href="#Poppins-Regular-61" transform="translate(949.499832 0)"/>
    <use xlink:href="#Poppins-Regular-6e" transform="translate(1017.099823 0)"/>
    <use xlink:href="#Poppins-Regular-63" transform="translate(1081.099808 0)"/>
    <use xlink:href="#Poppins-Regular-65" transform="translate(1141.799805 0)"/>
    <use xlink:href="#Poppins-Regular-20" transform="translate(1203.799789 0)"/>
    <use xlink:href="#Poppins-Regular-61" transform="translate(1230.499786 0)"/>
    <use xlink:href="#Poppins-Regular-63" transform="translate(1298.099777 0)"/>
    <use xlink:href="#Poppins-Regular-72" transform="translate(1358.799774 0)"/>
    <use xlink:href="#Poppins-Regular-6f" transform="translate(1396.099762 0)"/>
    <use xlink:href="#Poppins-Regular-73" transform="translate(1460.099747 0)"/>
    <use xlink:href="#Poppins-Regular-73" transform="translate(1512.299744 0)"/>
    <use xlink:href="#Poppins-Regular-20" transform="translate(1564.499741 0)"/>
    <use xlink:href="#Poppins-Regular-31" transform="translate(1591.199738 0)"/>
    <use xlink:href="#Poppins-Regular-31" transform="translate(1623.199722 0)"/>
    <use xlink:href="#Poppins-Regular-20" transform="translate(1655.199707 0)"/>
    <use xlink:href="#Poppins-Regular-53" transform="translate(1681.899704 0)"/>
    <use xlink:href="#Poppins-Regular-4b" transform="translate(1740.599701 0)"/>
    <use xlink:href="#Poppins-Regular-55" transform="translate(1800.499695 0)"/>
    <use xlink:href="#Poppins-Regular-73" transform="translate(1867.99968 0)"/>
    <use xlink:href="#Poppins-Regular-3b" transform="translate(1920.199677 0)"/>
    <use xlink:href="#Poppins-Regular-20" transform="translate(1946.59967 0)"/>
    <use xlink:href="#Poppins-Regular-63" transform="translate(1973.299667 0)"/>
    <use xlink:href="#Poppins-Regular-6c" transform="translate(2033.999664 0)"/>
    <use xlink:href="#Poppins-Regular-6f" transform="translate(2058.599655 0)"/>
    <use xlink:href="#Poppins-Regular-73" transform="translate(2122.59964 0)"/>
    <use xlink:href="#Poppins-Regular-65" transform="translate(2174.799637 0)"/>
    <use xlink:href="#Poppins-Regular-72" transform="translate(2236.799622 0)"/>
    <use xlink:href="#Poppins-Regular-20" transform="translate(2274.099609 0)"/>
    <use xlink:href="#Poppins-Regular-6a" transform="translate(2300.799606 0)"/>
    <use xlink:href="#Poppins-Regular-6f" transform="translate(2325.599594 0)"/>
    <use xlink:href="#Poppins-Regular-69" transform="translate(2389.599579 0)"/>
    <use xlink:href="#Poppins-Regular-6e" transform="translate(2414.19957 0)"/>
    <use xlink:href="#Poppins-Regular-73" transform="translate(2478.199554 0)"/>
   </g>
   <!-- mean tighter cross-purchase -->
   <g style="fill: #525252" transform="translate(131.1375 110.53575) scale(0.12 -0.12)">
    <defs>
     <path id="Poppins-Regular-67" d="M 1939 3565
Q 2394 3565 2736 3366
Q 3078 3168 3245 2867
L 3245 3507
L 3834 3507
L 3834 -77
Q 3834 -557 3629 -931
Q 3424 -1306 3043 -1517
Q 2662 -1728 2157 -1728
Q 1466 -1728 1005 -1401
Q 544 -1075 461 -512
L 1037 -512
Q 1133 -832 1433 -1027
Q 1734 -1222 2157 -1222
Q 2637 -1222 2941 -921
Q 3245 -621 3245 -77
L 3245 659
Q 3072 352 2733 147
Q 2394 -58 1939 -58
Q 1472 -58 1091 172
Q 710 403 492 819
Q 275 1235 275 1766
Q 275 2304 492 2710
Q 710 3117 1091 3341
Q 1472 3565 1939 3565
z
M 3245 1760
Q 3245 2157 3085 2451
Q 2925 2746 2653 2902
Q 2381 3059 2054 3059
Q 1728 3059 1459 2905
Q 1190 2752 1030 2457
Q 870 2163 870 1766
Q 870 1363 1030 1065
Q 1190 768 1459 611
Q 1728 454 2054 454
Q 2381 454 2653 611
Q 2925 768 3085 1065
Q 3245 1363 3245 1760
z
" transform="scale(0.015625)"/>
     <path id="Poppins-Regular-2d" d="M 2925 2592
L 2925 2099
L 371 2099
L 371 2592
L 2925 2592
z
" transform="scale(0.015625)"/>
    </defs>
    <use xlink:href="#Poppins-Regular-6d"/>
    <use xlink:href="#Poppins-Regular-65" transform="translate(102.999985 0)"/>
    <use xlink:href="#Poppins-Regular-61" transform="translate(164.999969 0)"/>
    <use xlink:href="#Poppins-Regular-6e" transform="translate(232.59996 0)"/>
    <use xlink:href="#Poppins-Regular-20" transform="translate(296.599945 0)"/>
    <use xlink:href="#Poppins-Regular-74" transform="translate(323.299942 0)"/>
    <use xlink:href="#Poppins-Regular-69" transform="translate(359.699936 0)"/>
    <use xlink:href="#Poppins-Regular-67" transform="translate(384.299927 0)"/>
    <use xlink:href="#Poppins-Regular-68" transform="translate(451.899918 0)"/>
    <use xlink:href="#Poppins-Regular-74" transform="translate(515.899902 0)"/>
    <use xlink:href="#Poppins-Regular-65" transform="translate(552.299896 0)"/>
    <use xlink:href="#Poppins-Regular-72" transform="translate(614.299881 0)"/>
    <use xlink:href="#Poppins-Regular-20" transform="translate(651.599869 0)"/>
    <use xlink:href="#Poppins-Regular-63" transform="translate(678.299866 0)"/>
    <use xlink:href="#Poppins-Regular-72" transform="translate(738.999863 0)"/>
    <use xlink:href="#Poppins-Regular-6f" transform="translate(776.29985 0)"/>
    <use xlink:href="#Poppins-Regular-73" transform="translate(840.299835 0)"/>
    <use xlink:href="#Poppins-Regular-73" transform="translate(892.499832 0)"/>
    <use xlink:href="#Poppins-Regular-2d" transform="translate(944.699829 0)"/>
    <use xlink:href="#Poppins-Regular-70" transform="translate(999.79982 0)"/>
    <use xlink:href="#Poppins-Regular-75" transform="translate(1067.399811 0)"/>
    <use xlink:href="#Poppins-Regular-72" transform="translate(1131.399796 0)"/>
    <use xlink:href="#Poppins-Regular-63" transform="translate(1168.699783 0)"/>
    <use xlink:href="#Poppins-Regular-68" transform="translate(1229.39978 0)"/>
    <use xlink:href="#Poppins-Regular-61" transform="translate(1293.399765 0)"/>
    <use xlink:href="#Poppins-Regular-73" transform="translate(1360.999756 0)"/>
    <use xlink:href="#Poppins-Regular-65" transform="translate(1413.199753 0)"/>
   </g>
  </g>
  <g id="_ors_chrome:139127949643344">
   <!-- Source: synthetic snack panel, ~240 shoppers -->
   <g style="fill: #737373" transform="translate(131.1375 318.078281) scale(0.09 -0.09)">
    <defs>
     <path id="Poppins-LightItalic-53" d="M 1619 -45
Q 1216 -45 912 89
Q 608 224 441 467
Q 275 710 275 1024
Q 275 1107 282 1152
L 723 1152
Q 710 947 796 758
Q 883 570 1097 445
Q 1312 320 1651 320
Q 2125 320 2406 557
Q 2688 794 2688 1197
Q 2688 1440 2557 1603
Q 2426 1766 2234 1872
Q 2042 1978 1709 2112
Q 1318 2266 1088 2397
Q 858 2528 707 2758
Q 557 2989 582 3347
Q 595 3693 790 3958
Q 986 4224 1322 4374
Q 1658 4525 2086 4525
Q 2509 4525 2813 4381
Q 3117 4237 3267 3987
Q 3418 3738 3398 3437
L 2931 3437
Q 2944 3610 2851 3776
Q 2758 3942 2556 4048
Q 2355 4154 2061 4154
Q 1606 4154 1318 3933
Q 1030 3712 1030 3334
Q 1030 3110 1158 2956
Q 1286 2803 1472 2700
Q 1658 2598 1984 2464
Q 2362 2310 2595 2176
Q 2829 2042 2992 1818
Q 3155 1594 3155 1254
Q 3155 1171 3149 1126
Q 3123 800 2931 531
Q 2739 262 2403 108
Q 2067 -45 1619 -45
z
" transform="scale(0.015625)"/>
     <path id="Poppins-LightItalic-6f" d="M 1728 -51
Q 1293 -51 960 125
Q 627 301 444 624
Q 262 947 262 1382
Q 262 1971 531 2467
Q 800 2963 1280 3254
Q 1760 3546 2349 3546
Q 2784 3546 3117 3370
Q 3450 3194 3635 2870
Q 3821 2547 3821 2112
Q 3821 1517 3545 1024
Q 3270 531 2793 240
Q 2317 -51 1728 -51
z
M 1779 326
Q 2234 326 2595 569
Q 2957 813 3158 1216
Q 3360 1619 3360 2086
Q 3360 2611 3056 2886
Q 2752 3162 2285 3162
Q 1830 3162 1475 2918
Q 1120 2675 921 2272
Q 723 1869 723 1402
Q 723 883 1024 604
Q 1325 326 1779 326
z
" transform="scale(0.015625)"/>
     <path id="Poppins-LightItalic-75" d="M 3834 3494
L 3219 0
L 2771 0
L 2880 614
Q 2662 288 2316 115
Q 1971 -58 1574 -58
Q 1037 -58 710 233
Q 384 525 384 1082
Q 384 1286 416 1453
L 774 3494
L 1216 3494
L 864 1504
Q 838 1357 838 1197
Q 838 774 1072 553
Q 1306 333 1722 333
Q 2208 333 2560 630
Q 2912 928 3034 1504
L 3386 3494
L 3834 3494
z
" transform="scale(0.015625)"/>
     <path id="Poppins-LightItalic-72" d="M 1133 2797
Q 1344 3162 1683 3360
Q 2022 3558 2470 3558
L 2387 3091
L 2259 3091
Q 1798 3091 1465 2854
Q 1133 2618 1005 2074
L 640 0
L 192 0
L 806 3494
L 1254 3494
L 1133 2797
z
" transform="scale(0.015625)"/>
     <path id="Poppins-LightItalic-63" d="M 294 1747
Q 390 2291 681 2697
Q 973 3104 1395 3325
Q 1818 3546 2310 3546
Q 2957 3546 3318 3226
Q 3680 2906 3706 2355
L 3226 2355
Q 3206 2733 2947 2947
Q 2688 3162 2246 3162
Q 1702 3162 1289 2794
Q 877 2426 755 1747
Q 723 1587 723 1382
Q 723 870 1001 598
Q 1280 326 1741 326
Q 2189 326 2521 540
Q 2854 755 3014 1139
L 3494 1139
Q 3277 602 2797 275
Q 2317 -51 1677 -51
Q 1030 -51 643 320
Q 256 691 256 1338
Q 256 1536 294 1747
z
" transform="scale(0.015625)"/>
     <path id="Poppins-LightItalic-65" d="M 2330 3546
Q 2771 3546 3084 3376
Q 3398 3206 3561 2912
Q 3725 2618 3725 2240
Q 3725 2067 3699 1933
Q 3661 1741 3622 1587
L 723 1587
Q 704 1466 704 1357
Q 704 864 1001 595
Q 1299 326 1760 326
Q 2202 326 2534 537
Q 2867 749 3021 1107
L 3501 1107
Q 3283 595 2806 272
Q 2330 -51 1696 -51
Q 1043 -51 649 323
Q 256 698 256 1344
Q 256 1536 294 1747
Q 390 2291 681 2700
Q 973 3110 1401 3328
Q 1830 3546 2330 3546
z
M 3238 1920
Q 3270 2099 3270 2221
Q 3270 2675 2982 2918
Q 2694 3162 2246 3162
Q 1920 3162 1619 3021
Q 1318 2880 1094 2598
Q 870 2317 787 1920
L 3238 1920
z
" transform="scale(0.015625)"/>
     <path id="Poppins-LightItalic-3a" d="M 262 -32
Q 141 -32 64 45
Q -13 122 -13 243
Q -13 397 105 512
Q 224 627 378 627
Q 499 627 576 553
Q 653 480 653 358
Q 653 205 534 86
Q 416 -32 262 -32
z
M 262 2784
Q 141 2784 64 2861
Q -13 2938 -13 3059
Q -13 3213 105 3328
Q 224 3443 378 3443
Q 499 3443 576 3369
Q 653 3296 653 3174
Q 653 3021 534 2902
Q 416 2784 262 2784
z
" transform="scale(0.015625)"/>
     <path id="Poppins-LightItalic-20" transform="scale(0.015625)"/>
     <path id="Poppins-LightItalic-73" d="M 1357 -51
Q 826 -51 493 195
Q 160 442 160 870
Q 160 947 166 986
L 602 986
Q 576 678 781 492
Q 986 307 1382 307
Q 1786 307 2029 476
Q 2272 646 2272 928
Q 2272 1094 2169 1209
Q 2067 1325 1916 1398
Q 1766 1472 1498 1568
Q 1165 1690 963 1795
Q 762 1901 618 2089
Q 474 2278 474 2566
Q 474 2854 640 3078
Q 806 3302 1097 3424
Q 1389 3546 1760 3546
Q 2278 3546 2608 3290
Q 2938 3034 2938 2611
Q 2938 2522 2931 2477
L 2509 2477
Q 2515 2502 2515 2560
Q 2515 2842 2294 3014
Q 2074 3187 1728 3187
Q 1382 3187 1155 3024
Q 928 2861 928 2586
Q 928 2400 1037 2275
Q 1146 2150 1306 2073
Q 1466 1997 1734 1894
Q 2054 1773 2249 1670
Q 2445 1568 2579 1389
Q 2714 1210 2714 941
Q 2714 486 2336 217
Q 1958 -51 1357 -51
z
" transform="scale(0.015625)"/>
     <path id="Poppins-LightItalic-79" d="M 890 3494
L 1549 531
L 3219 3494
L 3686 3494
L 710 -1645
L 237 -1645
L 1210 26
L 390 3494
L 890 3494
z
" transform="scale(0.015625)"/>
     <path id="Poppins-LightItalic-6e" d="M 2464 3558
Q 3002 3558 3325 3267
Q 3648 2976 3648 2419
Q 3648 2214 3616 2048
L 3251 0
L 2810 0
L 3162 1997
Q 3187 2144 3187 2310
Q 3187 2733 2956 2950
Q 2726 3168 2310 3168
Q 1805 3168 1446 2848
Q 1088 2528 979 1907
L 979 1926
L 640 0
L 192 0
L 806 3494
L 1254 3494
L 1146 2893
Q 1370 3213 1715 3385
Q 2061 3558 2464 3558
z
" transform="scale(0.015625)"/>
     <path id="Poppins-LightItalic-74" d="M 934 947
Q 915 832 915 749
Q 915 544 1027 464
Q 1139 384 1395 384
L 1805 384
L 1734 0
L 1254 0
Q 858 0 659 153
Q 461 307 461 659
Q 461 800 486 947
L 870 3117
L 384 3117
L 454 3494
L 941 3494
L 1094 4371
L 1542 4371
L 1389 3494
L 2355 3494
L 2285 3117
L 1318 3117
L 934 947
z
" transform="scale(0.015625)"/>
     <path id="Poppins-LightItalic-68" d="M 2483 3558
Q 3008 3558 3328 3270
Q 3648 2982 3648 2419
Q 3648 2214 3616 2048
L 3251 0
L 2810 0
L 3162 1997
Q 3187 2144 3187 2310
Q 3187 2733 2956 2950
Q 2726 3168 2310 3168
Q 1805 3168 1446 2848
Q 1088 2528 979 1907
L 979 1914
L 640 0
L 192 0
L 1030 4736
L 1478 4736
L 1152 2899
Q 1376 3219 1728 3388
Q 2080 3558 2483 3558
z
" transform="scale(0.015625)"/>
     <path id="Poppins-LightItalic-69" d="M 1152 4154
Q 1030 4154 953 4227
Q 877 4301 877 4422
Q 877 4589 992 4701
Q 1107 4813 1267 4813
Q 1389 4813 1462 4742
Q 1536 4672 1536 4557
Q 1536 4390 1421 4272
Q 1306 4154 1152 4154
z
M 1254 3494
L 640 0
L 192 0
L 806 3494
L 1254 3494
z
" transform="scale(0.015625)"/>
     <path id="Poppins-LightItalic-61" d="M 294 1754
Q 390 2291 678 2697
Q 966 3104 1385 3325
Q 1805 3546 2285 3546
Q 2784 3546 3104 3315
Q 3424 3085 3520 2726
L 3654 3494
L 4102 3494
L 3488 0
L 3040 0
L 3174 774
Q 2957 416 2550 182
Q 2144 -51 1645 -51
Q 1229 -51 915 121
Q 602 294 429 611
Q 256 928 256 1357
Q 256 1542 294 1754
z
M 3347 1747
Q 3379 1926 3379 2067
Q 3379 2566 3078 2860
Q 2778 3155 2298 3155
Q 1926 3155 1603 2988
Q 1280 2822 1056 2505
Q 832 2189 755 1754
Q 723 1562 723 1427
Q 723 922 1020 630
Q 1318 339 1798 339
Q 2157 339 2486 512
Q 2816 685 3043 1005
Q 3270 1325 3347 1747
z
" transform="scale(0.015625)"/>
     <path id="Poppins-LightItalic-6b" d="M 1325 1747
L 2688 0
L 2080 0
L 915 1562
L 640 0
L 192 0
L 1030 4736
L 1478 4736
L 979 1933
L 2669 3494
L 3290 3494
L 1325 1747
z
" transform="scale(0.015625)"/>
     <path id="Poppins-LightItalic-70" d="M 1120 2726
Q 1338 3078 1744 3312
Q 2150 3546 2643 3546
Q 3277 3546 3657 3171
Q 4038 2797 4038 2150
Q 4038 1965 4000 1754
Q 3904 1216 3616 806
Q 3328 397 2909 173
Q 2490 -51 2010 -51
Q 1517 -51 1197 182
Q 877 416 768 768
L 346 -1651
L -102 -1651
L 806 3494
L 1254 3494
L 1120 2726
z
M 3546 1754
Q 3578 1946 3578 2080
Q 3578 2586 3280 2870
Q 2982 3155 2496 3155
Q 2138 3155 1811 2982
Q 1485 2810 1254 2490
Q 1024 2170 947 1747
Q 915 1568 915 1427
Q 915 928 1216 633
Q 1517 339 1997 339
Q 2368 339 2691 508
Q 3014 678 3241 1001
Q 3469 1325 3546 1754
z
" transform="scale(0.015625)"/>
     <path id="Poppins-LightItalic-6c" d="M 1478 4736
L 640 0
L 192 0
L 1030 4736
L 1478 4736
z
" transform="scale(0.015625)"/>
     <path id="Poppins-LightItalic-2c" d="M 730 742
L -224 -934
L -538 -934
L 230 742
L 730 742
z
" transform="scale(0.015625)"/>
     <path id="Poppins-LightItalic-7e" d="M 211 1645
Q 358 2054 601 2262
Q 845 2470 1165 2470
Q 1331 2470 1449 2412
Q 1568 2355 1715 2240
Q 1843 2144 1936 2096
Q 2029 2048 2144 2048
Q 2310 2048 2448 2163
Q 2586 2278 2650 2464
L 2989 2464
Q 2848 2054 2601 1846
Q 2355 1638 2035 1638
Q 1875 1638 1756 1696
Q 1638 1754 1491 1869
Q 1350 1971 1260 2016
Q 1171 2061 1056 2061
Q 896 2061 758 1945
Q 621 1830 550 1645
L 211 1645
z
" transform="scale(0.015625)"/>
     <path id="Poppins-LightItalic-32" d="M 64 352
Q 1402 1229 2170 1929
Q 2938 2630 3053 3290
Q 3078 3456 3078 3539
Q 3078 3859 2889 4051
Q 2701 4243 2278 4243
Q 1792 4243 1472 3939
Q 1152 3635 1037 3136
L 602 3136
Q 762 3846 1232 4236
Q 1702 4627 2349 4627
Q 2893 4627 3209 4361
Q 3526 4096 3526 3603
Q 3526 3443 3501 3309
Q 3366 2547 2598 1827
Q 1830 1107 768 410
L 3130 410
L 3066 32
L 6 32
L 64 352
z
" transform="scale(0.015625)"/>
     <path id="Poppins-LightItalic-34" d="M 90 1088
L 147 1427
L 3034 4563
L 3565 4563
L 3021 1478
L 3706 1478
L 3635 1088
L 2950 1088
L 2758 0
L 2317 0
L 2509 1088
L 90 1088
z
M 3053 4070
L 678 1478
L 2598 1478
L 3053 4070
z
" transform="scale(0.015625)"/>
     <path id="Poppins-LightItalic-30" d="M 506 2304
Q 698 3398 1142 4006
Q 1587 4614 2464 4614
Q 3130 4614 3421 4249
Q 3712 3885 3712 3226
Q 3712 2848 3616 2304
Q 3424 1210 2976 598
Q 2528 -13 1651 -13
Q 986 -13 698 348
Q 410 710 410 1370
Q 410 1747 506 2304
z
M 3174 2304
Q 3270 2835 3270 3187
Q 3270 3674 3068 3939
Q 2867 4205 2394 4205
Q 1933 4205 1645 3958
Q 1357 3712 1203 3302
Q 1050 2893 947 2304
Q 845 1722 845 1402
Q 845 922 1043 659
Q 1242 397 1722 397
Q 2182 397 2470 643
Q 2758 890 2912 1299
Q 3066 1709 3174 2304
z
" transform="scale(0.015625)"/>
    </defs>
    <use xlink:href="#Poppins-LightItalic-53"/>
    <use xlink:href="#Poppins-LightItalic-6f" transform="translate(56.599991 0)"/>
    <use xlink:href="#Poppins-LightItalic-75" transform="translate(120.799988 0)"/>
    <use xlink:href="#Poppins-LightItalic-72" transform="translate(184.099976 0)"/>
    <use xlink:href="#Poppins-LightItalic-63" transform="translate(220.299973 0)"/>
    <use xlink:href="#Poppins-LightItalic-65" transform="translate(281.59996 0)"/>
    <use xlink:href="#Poppins-LightItalic-3a" transform="translate(343.799957 0)"/>
    <use xlink:href="#Poppins-LightItalic-20" transform="translate(362.299942 0)"/>
    <use xlink:href="#Poppins-LightItalic-73" transform="translate(391.799927 0)"/>
    <use xlink:href="#Poppins-LightItalic-79" transform="translate(442.799911 0)"/>
    <use xlink:href="#Poppins-LightItalic-6e" transform="translate(497.299896 0)"/>
    <use xlink:href="#Poppins-LightItalic-74" transform="translate(560.599884 0)"/>
    <use xlink:href="#Poppins-LightItalic-68" transform="translate(596.199875 0)"/>
    <use xlink:href="#Poppins-LightItalic-65" transform="translate(659.499863 0)"/>
    <use xlink:href="#Poppins-LightItalic-74" transform="translate(721.69986 0)"/>
    <use xlink:href="#Poppins-LightItalic-69" transform="translate(757.29985 0)"/>
    <use xlink:href="#Poppins-LightItalic-63" transform="translate(780.199844 0)"/>
    <use xlink:href="#Poppins-LightItalic-20" transform="translate(841.499832 0)"/>
    <use xlink:href="#Poppins-LightItalic-73" transform="translate(870.999817 0)"/>
    <use xlink:href="#Poppins-LightItalic-6e" transform="translate(921.999802 0)"/>
    <use xlink:href="#Poppins-LightItalic-61" transform="translate(985.299789 0)"/>
    <use xlink:href="#Poppins-LightItalic-63" transform="translate(1052.799774 0)"/>
    <use xlink:href="#Poppins-LightItalic-6b" transform="translate(1114.099762 0)"/>
    <use xlink:href="#Poppins-LightItalic-20" transform="translate(1162.099747 0)"/>
    <use xlink:href="#Poppins-LightItalic-70" transform="translate(1191.599731 0)"/>
    <use xlink:href="#Poppins-LightItalic-61" transform="translate(1259.099716 0)"/>
    <use xlink:href="#Poppins-LightItalic-6e" transform="translate(1326.599701 0)"/>
    <use xlink:href="#Poppins-LightItalic-65" transform="translate(1389.899689 0)"/>
    <use xlink:href="#Poppins-LightItalic-6c" transform="translate(1452.099686 0)"/>
    <use xlink:href="#Poppins-LightItalic-2c" transform="translate(1474.99968 0)"/>
    <use xlink:href="#Poppins-LightItalic-20" transform="translate(1492.299667 0)"/>
    <use xlink:href="#Poppins-LightItalic-7e" transform="translate(1521.799652 0)"/>
    <use xlink:href="#Poppins-LightItalic-32" transform="translate(1570.499649 0)"/>
    <use xlink:href="#Poppins-LightItalic-34" transform="translate(1627.699646 0)"/>
    <use xlink:href="#Poppins-LightItalic-30" transform="translate(1688.999634 0)"/>
    <use xlink:href="#Poppins-LightItalic-20" transform="translate(1750.599625 0)"/>
    <use xlink:href="#Poppins-LightItalic-73" transform="translate(1780.099609 0)"/>
    <use xlink:href="#Poppins-LightItalic-68" transform="translate(1831.099594 0)"/>
    <use xlink:href="#Poppins-LightItalic-6f" transform="translate(1894.399582 0)"/>
    <use xlink:href="#Poppins-LightItalic-70" transform="translate(1958.599579 0)"/>
    <use xlink:href="#Poppins-LightItalic-70" transform="translate(2026.099564 0)"/>
    <use xlink:href="#Poppins-LightItalic-65" transform="translate(2093.599548 0)"/>
    <use xlink:href="#Poppins-LightItalic-72" transform="translate(2155.799545 0)"/>
    <use xlink:href="#Poppins-LightItalic-73" transform="translate(2191.999542 0)"/>
   </g>
  </g>
 </g>
 <defs>
  <clipPath id="p07f8283299">
   <rect x="131.1375" y="119.871" width="322.086" height="142.769"/>
  </clipPath>
 </defs>
</svg>
