<?xml version="1.0" encoding="utf-8" standalone="no"?>
<!DOCTYPE svg PUBLIC "-//W3C//DTD SVG 1.1//EN"
  "http://www.w3.org/Graphics/SVG/1.1/DTD/svg11.dtd">
<svg xmlns:xlink="http://www.w3.org/1999/xlink" width="447.961pt" height="327.6pt" viewBox="0 0 447.961 327.6" xmlns="http://www.w3.org/2000/svg" version="1.1">
 <metadata>
  <rdf:RDF xmlns:dc="http://purl.org/dc/elements/1.1/" xmlns:cc="http://creativecommons.org/ns#" xmlns:rdf="http://www.w3.org/1999/02/22-rdf-syntax-ns#">
   <cc:Work>
    <dc:type rdf:resource="http://purl.org/dc/dcmitype/StillImage"/>
    <dc:date>2026-05-21T06:44:41.200954</dc:date>
    <dc:format>image/svg+xml</dc:format>
    <dc:creator>
     <cc:Agent>
      <dc:title>Matplotlib v3.10.8, https://matplotlib.org/</dc:title>
     </cc:Agent>
    </dc:creator>
   </cc:Work>
  </rdf:RDF>
 </metadata>
 <defs>
  <style type="text/css">*{stroke-linejoin: round; stroke-linecap: butt}</style>
 </defs>
 <g id="figure_1">
  <g id="patch_1">
   <path d="M 0 327.6
L 447.961 327.6
L 447.961 0
L 0 0
z
" style="fill: #ffffff"/>
  </g>
  <g id="axes_1">
   <g id="patch_2">
    <path d="M 57.665 284.16
L 440.761 284.16
L 440.761 109.026
L 57.665 109.026
z
" style="fill: #ffffff"/>
   </g>
   <g id="matplotlib.axis_1">
    <g id="xtick_1">
     <g id="line2d_1"/>
     <g id="text_1">
      <!-- Platinum -->
      <g transform="translate(93.470173 297.56) scale(0.1 -0.1)">
       <defs>
        <path id="Poppins-Regular-50" d="M 3475 3155
Q 3475 2598 3094 2230
Q 2714 1862 1933 1862
L 1075 1862
L 1075 0
L 493 0
L 493 4461
L 1933 4461
Q 2688 4461 3081 4096
Q 3475 3731 3475 3155
z
M 1933 2342
Q 2419 2342 2649 2553
Q 2880 2765 2880 3155
Q 2880 3981 1933 3981
L 1075 3981
L 1075 2342
L 1933 2342
z
" transform="scale(0.015625)"/>
        <path id="Poppins-Regular-6c" d="M 1075 4736
L 1075 0
L 493 0
L 493 4736
L 1075 4736
z
" transform="scale(0.015625)"/>
        <path id="Poppins-Regular-61" d="M 275 1766
Q 275 2304 492 2710
Q 710 3117 1091 3341
Q 1472 3565 1939 3565
Q 2400 3565 2739 3366
Q 3078 3168 3245 2867
L 3245 3507
L 3834 3507
L 3834 0
L 3245 0
L 3245 653
Q 3072 346 2729 144
Q 2387 -58 1933 -58
Q 1466 -58 1088 172
Q 710 403 492 819
Q 275 1235 275 1766
z
M 3245 1760
Q 3245 2157 3085 2451
Q 2925 2746 2653 2902
Q 2381 3059 2054 3059
Q 1728 3059 1459 2905
Q 1190 2752 1030 2457
Q 870 2163 870 1766
Q 870 1363 1030 1065
Q 1190 768 1459 611
Q 1728 454 2054 454
Q 2381 454 2653 611
Q 2925 768 3085 1065
Q 3245 1363 3245 1760
z
" transform="scale(0.015625)"/>
        <path id="Poppins-Regular-74" d="M 1203 3027
L 1203 960
Q 1203 704 1312 598
Q 1421 493 1690 493
L 2118 493
L 2118 0
L 1594 0
Q 1107 0 864 224
Q 621 448 621 960
L 621 3027
L 166 3027
L 166 3507
L 621 3507
L 621 4390
L 1203 4390
L 1203 3507
L 2118 3507
L 2118 3027
L 1203 3027
z
" transform="scale(0.015625)"/>
        <path id="Poppins-Regular-69" d="M 794 4077
Q 627 4077 512 4192
Q 397 4307 397 4474
Q 397 4640 512 4755
Q 627 4870 794 4870
Q 954 4870 1066 4755
Q 1178 4640 1178 4474
Q 1178 4307 1066 4192
Q 954 4077 794 4077
z
M 1075 3507
L 1075 0
L 493 0
L 493 3507
L 1075 3507
z
" transform="scale(0.015625)"/>
        <path id="Poppins-Regular-6e" d="M 2202 3571
Q 2842 3571 3238 3184
Q 3635 2797 3635 2067
L 3635 0
L 3059 0
L 3059 1984
Q 3059 2509 2796 2787
Q 2534 3066 2080 3066
Q 1619 3066 1347 2778
Q 1075 2490 1075 1939
L 1075 0
L 493 0
L 493 3507
L 1075 3507
L 1075 3008
Q 1248 3277 1545 3424
Q 1843 3571 2202 3571
z
" transform="scale(0.015625)"/>
        <path id="Poppins-Regular-75" d="M 3603 3507
L 3603 0
L 3021 0
L 3021 518
Q 2854 250 2556 99
Q 2259 -51 1901 -51
Q 1491 -51 1164 118
Q 838 288 649 627
Q 461 966 461 1453
L 461 3507
L 1037 3507
L 1037 1530
Q 1037 1011 1299 732
Q 1562 454 2016 454
Q 2483 454 2752 742
Q 3021 1030 3021 1581
L 3021 3507
L 3603 3507
z
" transform="scale(0.015625)"/>
        <path id="Poppins-Regular-6d" d="M 4710 3571
Q 5120 3571 5440 3401
Q 5760 3232 5945 2893
Q 6131 2554 6131 2067
L 6131 0
L 5555 0
L 5555 1984
Q 5555 2509 5296 2787
Q 5037 3066 4595 3066
Q 4141 3066 3872 2774
Q 3603 2483 3603 1933
L 3603 0
L 3027 0
L 3027 1984
Q 3027 2509 2768 2787
Q 2509 3066 2067 3066
Q 1613 3066 1344 2774
Q 1075 2483 1075 1933
L 1075 0
L 493 0
L 493 3507
L 1075 3507
L 1075 3002
Q 1248 3277 1539 3424
Q 1830 3571 2182 3571
Q 2624 3571 2963 3372
Q 3302 3174 3469 2790
Q 3616 3162 3955 3366
Q 4294 3571 4710 3571
z
" transform="scale(0.015625)"/>
       </defs>
       <use xlink:href="#Poppins-Regular-50"/>
       <use xlink:href="#Poppins-Regular-6c" transform="translate(57.899994 0)"/>
       <use xlink:href="#Poppins-Regular-61" transform="translate(82.499985 0)"/>
       <use xlink:href="#Poppins-Regular-74" transform="translate(150.099976 0)"/>
       <use xlink:href="#Poppins-Regular-69" transform="translate(186.499969 0)"/>
       <use xlink:href="#Poppins-Regular-6e" transform="translate(211.09996 0)"/>
       <use xlink:href="#Poppins-Regular-75" transform="translate(275.099945 0)"/>
       <use xlink:href="#Poppins-Regular-6d" transform="translate(339.09993 0)"/>
      </g>
     </g>
    </g>
    <g id="xtick_2">
     <g id="line2d_2"/>
     <g id="text_2">
      <!-- Gold -->
      <g transform="translate(192.967735 297.56) scale(0.1 -0.1)">
       <defs>
        <path id="Poppins-Regular-47" d="M 3872 3168
Q 3686 3558 3334 3772
Q 2982 3987 2515 3987
Q 2048 3987 1673 3772
Q 1299 3558 1084 3158
Q 870 2758 870 2234
Q 870 1709 1084 1312
Q 1299 915 1673 700
Q 2048 486 2515 486
Q 3168 486 3590 876
Q 4013 1267 4083 1933
L 2304 1933
L 2304 2406
L 4704 2406
L 4704 1958
Q 4653 1408 4358 950
Q 4064 493 3584 227
Q 3104 -38 2515 -38
Q 1894 -38 1382 253
Q 870 544 572 1062
Q 275 1581 275 2234
Q 275 2886 572 3408
Q 870 3930 1382 4221
Q 1894 4512 2515 4512
Q 3226 4512 3773 4160
Q 4320 3808 4570 3168
L 3872 3168
z
" transform="scale(0.015625)"/>
        <path id="Poppins-Regular-6f" d="M 2022 -58
Q 1530 -58 1130 166
Q 730 390 502 803
Q 275 1216 275 1760
Q 275 2298 508 2710
Q 742 3123 1145 3344
Q 1549 3565 2048 3565
Q 2547 3565 2950 3344
Q 3354 3123 3587 2713
Q 3821 2304 3821 1760
Q 3821 1216 3581 803
Q 3341 390 2931 166
Q 2522 -58 2022 -58
z
M 2022 454
Q 2336 454 2611 601
Q 2886 749 3056 1043
Q 3226 1338 3226 1760
Q 3226 2182 3059 2476
Q 2893 2771 2624 2915
Q 2355 3059 2042 3059
Q 1722 3059 1456 2915
Q 1190 2771 1030 2476
Q 870 2182 870 1760
Q 870 1331 1027 1036
Q 1184 742 1446 598
Q 1709 454 2022 454
z
" transform="scale(0.015625)"/>
        <path id="Poppins-Regular-64" d="M 275 1766
Q 275 2304 492 2710
Q 710 3117 1091 3341
Q 1472 3565 1946 3565
Q 2355 3565 2707 3376
Q 3059 3187 3245 2880
L 3245 4736
L 3834 4736
L 3834 0
L 3245 0
L 3245 659
Q 3072 346 2733 144
Q 2394 -58 1939 -58
Q 1472 -58 1091 172
Q 710 403 492 819
Q 275 1235 275 1766
z
M 3245 1760
Q 3245 2157 3085 2451
Q 2925 2746 2653 2902
Q 2381 3059 2054 3059
Q 1728 3059 1459 2905
Q 1190 2752 1030 2457
Q 870 2163 870 1766
Q 870 1363 1030 1065
Q 1190 768 1459 611
Q 1728 454 2054 454
Q 2381 454 2653 611
Q 2925 768 3085 1065
Q 3245 1363 3245 1760
z
" transform="scale(0.015625)"/>
       </defs>
       <use xlink:href="#Poppins-Regular-47"/>
       <use xlink:href="#Poppins-Regular-6f" transform="translate(77.799988 0)"/>
       <use xlink:href="#Poppins-Regular-6c" transform="translate(141.799973 0)"/>
       <use xlink:href="#Poppins-Regular-64" transform="translate(166.399963 0)"/>
      </g>
     </g>
    </g>
    <g id="xtick_3">
     <g id="line2d_3"/>
     <g id="text_3">
      <!-- Silver -->
      <g transform="translate(280.594984 297.56) scale(0.1 -0.1)">
       <defs>
        <path id="Poppins-Regular-53" d="M 1907 -45
Q 1466 -45 1117 112
Q 768 269 569 547
Q 371 826 365 1190
L 986 1190
Q 1018 877 1245 662
Q 1472 448 1907 448
Q 2323 448 2563 656
Q 2803 864 2803 1190
Q 2803 1446 2662 1606
Q 2522 1766 2310 1849
Q 2099 1933 1741 2029
Q 1299 2144 1033 2259
Q 768 2374 579 2620
Q 390 2867 390 3283
Q 390 3648 576 3929
Q 762 4211 1098 4364
Q 1434 4518 1869 4518
Q 2496 4518 2896 4204
Q 3296 3891 3347 3373
L 2707 3373
Q 2675 3629 2438 3824
Q 2202 4019 1811 4019
Q 1446 4019 1216 3830
Q 986 3642 986 3302
Q 986 3059 1123 2905
Q 1261 2752 1462 2672
Q 1664 2592 2029 2490
Q 2470 2368 2739 2249
Q 3008 2131 3200 1884
Q 3392 1638 3392 1216
Q 3392 890 3219 602
Q 3046 314 2707 134
Q 2368 -45 1907 -45
z
" transform="scale(0.015625)"/>
        <path id="Poppins-Regular-76" d="M 1798 538
L 2886 3507
L 3507 3507
L 2131 0
L 1453 0
L 77 3507
L 704 3507
L 1798 538
z
" transform="scale(0.015625)"/>
        <path id="Poppins-Regular-65" d="M 3693 1888
Q 3693 1722 3674 1536
L 870 1536
Q 902 1018 1225 726
Q 1549 435 2010 435
Q 2387 435 2640 611
Q 2893 787 2995 1082
L 3622 1082
Q 3482 576 3059 259
Q 2637 -58 2010 -58
Q 1510 -58 1116 166
Q 723 390 499 803
Q 275 1216 275 1760
Q 275 2304 492 2713
Q 710 3123 1104 3344
Q 1498 3565 2010 3565
Q 2509 3565 2893 3347
Q 3277 3130 3485 2749
Q 3693 2368 3693 1888
z
M 3091 2010
Q 3091 2342 2944 2582
Q 2797 2822 2544 2947
Q 2291 3072 1984 3072
Q 1542 3072 1232 2790
Q 922 2509 877 2010
L 3091 2010
z
" transform="scale(0.015625)"/>
        <path id="Poppins-Regular-72" d="M 1075 2938
Q 1229 3238 1513 3404
Q 1798 3571 2208 3571
L 2208 2970
L 2054 2970
Q 1075 2970 1075 1907
L 1075 0
L 493 0
L 493 3507
L 1075 3507
L 1075 2938
z
" transform="scale(0.015625)"/>
       </defs>
       <use xlink:href="#Poppins-Regular-53"/>
       <use xlink:href="#Poppins-Regular-69" transform="translate(58.699997 0)"/>
       <use xlink:href="#Poppins-Regular-6c" transform="translate(83.299988 0)"/>
       <use xlink:href="#Poppins-Regular-76" transform="translate(107.899979 0)"/>
       <use xlink:href="#Poppins-Regular-65" transform="translate(163.999969 0)"/>
       <use xlink:href="#Poppins-Regular-72" transform="translate(225.999954 0)"/>
      </g>
     </g>
    </g>
    <g id="xtick_4">
     <g id="line2d_4"/>
     <g id="text_4">
      <!-- Bronze -->
      <g transform="translate(366.146452 297.56) scale(0.1 -0.1)">
       <defs>
        <path id="Poppins-Regular-42" d="M 2726 2298
Q 2970 2259 3171 2099
Q 3373 1939 3491 1702
Q 3610 1466 3610 1197
Q 3610 858 3437 586
Q 3264 314 2934 157
Q 2605 0 2157 0
L 493 0
L 493 4461
L 2093 4461
Q 2547 4461 2867 4310
Q 3187 4160 3347 3904
Q 3507 3648 3507 3328
Q 3507 2931 3292 2672
Q 3078 2413 2726 2298
z
M 1075 2534
L 2054 2534
Q 2464 2534 2688 2726
Q 2912 2918 2912 3258
Q 2912 3597 2688 3789
Q 2464 3981 2042 3981
L 1075 3981
L 1075 2534
z
M 2106 480
Q 2541 480 2784 685
Q 3027 890 3027 1254
Q 3027 1626 2771 1840
Q 2515 2054 2086 2054
L 1075 2054
L 1075 480
L 2106 480
z
" transform="scale(0.015625)"/>
        <path id="Poppins-Regular-7a" d="M 928 480
L 2650 480
L 2650 0
L 262 0
L 262 480
L 1965 3034
L 275 3034
L 275 3507
L 2637 3507
L 2637 3034
L 928 480
z
" transform="scale(0.015625)"/>
       </defs>
       <use xlink:href="#Poppins-Regular-42"/>
       <use xlink:href="#Poppins-Regular-72" transform="translate(61.299988 0)"/>
       <use xlink:href="#Poppins-Regular-6f" transform="translate(98.599976 0)"/>
       <use xlink:href="#Poppins-Regular-6e" transform="translate(162.59996 0)"/>
       <use xlink:href="#Poppins-Regular-7a" transform="translate(226.599945 0)"/>
       <use xlink:href="#Poppins-Regular-65" transform="translate(272.09993 0)"/>
      </g>
     </g>
    </g>
   </g>
   <g id="matplotlib.axis_2">
    <g id="ytick_1">
     <g id="line2d_5">
      <path d="M 57.665 284.16
L 440.761 284.16
" clip-path="url(#p9b580997b3)" style="fill: none; stroke: #e5e5e5; stroke-width: 0.8; stroke-linecap: square"/>
     </g>
     <g id="line2d_6"/>
    </g>
    <g id="ytick_2">
     <g id="line2d_7">
      <path d="M 57.665 247.357079
L 440.761 247.357079
" clip-path="url(#p9b580997b3)" style="fill: none; stroke: #e5e5e5; stroke-width: 0.8; stroke-linecap: square"/>
     </g>
     <g id="line2d_8"/>
     <g id="text_5">
      <!-- 30K -->
      <g transform="translate(33.504063 251.057079) scale(0.1 -0.1)">
       <defs>
        <path id="Poppins-Regular-33" d="M 384 3462
Q 429 4051 838 4384
Q 1248 4717 1901 4717
Q 2336 4717 2653 4560
Q 2970 4403 3133 4134
Q 3296 3866 3296 3526
Q 3296 3130 3069 2842
Q 2842 2554 2477 2470
L 2477 2438
Q 2893 2336 3136 2035
Q 3379 1734 3379 1248
Q 3379 883 3212 592
Q 3046 301 2713 134
Q 2381 -32 1914 -32
Q 1235 -32 800 323
Q 365 678 314 1331
L 877 1331
Q 922 947 1190 704
Q 1459 461 1907 461
Q 2355 461 2588 694
Q 2822 928 2822 1299
Q 2822 1779 2502 1990
Q 2182 2202 1536 2202
L 1389 2202
L 1389 2688
L 1542 2688
Q 2131 2694 2432 2883
Q 2733 3072 2733 3469
Q 2733 3808 2512 4013
Q 2291 4218 1882 4218
Q 1485 4218 1241 4013
Q 998 3808 954 3462
L 384 3462
z
" transform="scale(0.015625)"/>
        <path id="Poppins-Regular-30" d="M 397 2362
Q 397 3462 755 4080
Q 1114 4698 2010 4698
Q 2899 4698 3257 4080
Q 3616 3462 3616 2362
Q 3616 1242 3257 621
Q 2899 0 2010 0
Q 1114 0 755 621
Q 397 1242 397 2362
z
M 3040 2362
Q 3040 2918 2966 3305
Q 2893 3693 2665 3929
Q 2438 4166 2010 4166
Q 1574 4166 1347 3929
Q 1120 3693 1046 3305
Q 973 2918 973 2362
Q 973 1786 1046 1395
Q 1120 1005 1347 768
Q 1574 531 2010 531
Q 2438 531 2665 768
Q 2893 1005 2966 1395
Q 3040 1786 3040 2362
z
" transform="scale(0.015625)"/>
        <path id="Poppins-Regular-4b" d="M 2912 0
L 1075 2035
L 1075 0
L 493 0
L 493 4461
L 1075 4461
L 1075 2394
L 2918 4461
L 3654 4461
L 1632 2227
L 3674 0
L 2912 0
z
" transform="scale(0.015625)"/>
       </defs>
       <use xlink:href="#Poppins-Regular-33"/>
       <use xlink:href="#Poppins-Regular-30" transform="translate(58.899994 0)"/>
       <use xlink:href="#Poppins-Regular-4b" transform="translate(121.699982 0)"/>
      </g>
     </g>
    </g>
    <g id="ytick_3">
     <g id="line2d_9">
      <path d="M 57.665 210.554158
L 440.761 210.554158
" clip-path="url(#p9b580997b3)" style="fill: none; stroke: #e5e5e5; stroke-width: 0.8; stroke-linecap: square"/>
     </g>
     <g id="line2d_10"/>
     <g id="text_6">
      <!-- 60K -->
      <g transform="translate(33.044688 214.254158) scale(0.1 -0.1)">
       <defs>
        <path id="Poppins-Regular-36" d="M 2976 3526
Q 2835 4237 2099 4237
Q 1530 4237 1248 3798
Q 966 3360 973 2355
Q 1120 2688 1462 2877
Q 1805 3066 2227 3066
Q 2886 3066 3280 2656
Q 3674 2246 3674 1523
Q 3674 1088 3504 742
Q 3334 397 2992 192
Q 2650 -13 2163 -13
Q 1504 -13 1133 281
Q 762 576 614 1094
Q 467 1613 467 2374
Q 467 4723 2106 4723
Q 2733 4723 3091 4384
Q 3450 4045 3514 3526
L 2976 3526
z
M 2106 2573
Q 1830 2573 1587 2461
Q 1344 2349 1193 2121
Q 1043 1894 1043 1568
Q 1043 1082 1324 778
Q 1606 474 2131 474
Q 2579 474 2844 752
Q 3110 1030 3110 1504
Q 3110 2003 2854 2288
Q 2598 2573 2106 2573
z
" transform="scale(0.015625)"/>
       </defs>
       <use xlink:href="#Poppins-Regular-36"/>
       <use xlink:href="#Poppins-Regular-30" transform="translate(63.499985 0)"/>
       <use xlink:href="#Poppins-Regular-4b" transform="translate(126.299973 0)"/>
      </g>
     </g>
    </g>
    <g id="ytick_4">
     <g id="line2d_11">
      <path d="M 57.665 173.751237
L 440.761 173.751237
" clip-path="url(#p9b580997b3)" style="fill: none; stroke: #e5e5e5; stroke-width: 0.8; stroke-linecap: square"/>
     </g>
     <g id="line2d_12"/>
     <g id="text_7">
      <!-- 90K -->
      <g transform="translate(33.094688 177.451237) scale(0.1 -0.1)">
       <defs>
        <path id="Poppins-Regular-39" d="M 1146 1242
Q 1210 877 1443 678
Q 1677 480 2074 480
Q 2605 480 2857 896
Q 3110 1312 3098 2298
Q 2963 2010 2649 1846
Q 2336 1683 1952 1683
Q 1523 1683 1187 1859
Q 851 2035 659 2374
Q 467 2714 467 3194
Q 467 3878 864 4297
Q 1261 4717 1990 4717
Q 2886 4717 3248 4134
Q 3610 3552 3610 2400
Q 3610 1594 3466 1069
Q 3322 544 2979 269
Q 2637 -6 2042 -6
Q 1389 -6 1024 346
Q 659 698 608 1242
L 1146 1242
z
M 2048 2176
Q 2477 2176 2752 2441
Q 3027 2707 3027 3162
Q 3027 3642 2758 3936
Q 2490 4230 2003 4230
Q 1555 4230 1289 3948
Q 1024 3667 1024 3206
Q 1024 2739 1286 2457
Q 1549 2176 2048 2176
z
" transform="scale(0.015625)"/>
       </defs>
       <use xlink:href="#Poppins-Regular-39"/>
       <use xlink:href="#Poppins-Regular-30" transform="translate(62.999985 0)"/>
       <use xlink:href="#Poppins-Regular-4b" transform="translate(125.799973 0)"/>
      </g>
     </g>
    </g>
    <g id="ytick_5">
     <g id="line2d_13">
      <path d="M 57.665 136.948316
L 440.761 136.948316
" clip-path="url(#p9b580997b3)" style="fill: none; stroke: #e5e5e5; stroke-width: 0.8; stroke-linecap: square"/>
     </g>
     <g id="line2d_14"/>
     <g id="text_8">
      <!-- 120K -->
      <g transform="translate(30.444688 140.648316) scale(0.1 -0.1)">
       <defs>
        <path id="Poppins-Regular-31" d="M 243 4096
L 243 4627
L 1446 4627
L 1446 0
L 858 0
L 858 4096
L 243 4096
z
" transform="scale(0.015625)"/>
        <path id="Poppins-Regular-32" d="M 326 467
Q 1139 1120 1600 1539
Q 2061 1958 2377 2416
Q 2694 2874 2694 3315
Q 2694 3731 2492 3971
Q 2291 4211 1843 4211
Q 1408 4211 1168 3939
Q 928 3667 909 3213
L 346 3213
Q 371 3930 780 4320
Q 1190 4710 1837 4710
Q 2496 4710 2883 4345
Q 3270 3981 3270 3341
Q 3270 2810 2953 2307
Q 2637 1805 2233 1424
Q 1830 1043 1203 538
L 3405 538
L 3405 51
L 326 51
L 326 467
z
" transform="scale(0.015625)"/>
       </defs>
       <use xlink:href="#Poppins-Regular-31"/>
       <use xlink:href="#Poppins-Regular-32" transform="translate(31.999985 0)"/>
       <use xlink:href="#Poppins-Regular-30" transform="translate(89.499969 0)"/>
       <use xlink:href="#Poppins-Regular-4b" transform="translate(152.299957 0)"/>
      </g>
     </g>
    </g>
    <g id="text_9">
     <!-- Segment spend ($) -->
     <g transform="translate(17.474688 250.136359) rotate(-90) scale(0.11 -0.11)">
      <defs>
       <path id="Poppins-Regular-67" d="M 1939 3565
Q 2394 3565 2736 3366
Q 3078 3168 3245 2867
L 3245 3507
L 3834 3507
L 3834 -77
Q 3834 -557 3629 -931
Q 3424 -1306 3043 -1517
Q 2662 -1728 2157 -1728
Q 1466 -1728 1005 -1401
Q 544 -1075 461 -512
L 1037 -512
Q 1133 -832 1433 -1027
Q 1734 -1222 2157 -1222
Q 2637 -1222 2941 -921
Q 3245 -621 3245 -77
L 3245 659
Q 3072 352 2733 147
Q 2394 -58 1939 -58
Q 1472 -58 1091 172
Q 710 403 492 819
Q 275 1235 275 1766
Q 275 2304 492 2710
Q 710 3117 1091 3341
Q 1472 3565 1939 3565
z
M 3245 1760
Q 3245 2157 3085 2451
Q 2925 2746 2653 2902
Q 2381 3059 2054 3059
Q 1728 3059 1459 2905
Q 1190 2752 1030 2457
Q 870 2163 870 1766
Q 870 1363 1030 1065
Q 1190 768 1459 611
Q 1728 454 2054 454
Q 2381 454 2653 611
Q 2925 768 3085 1065
Q 3245 1363 3245 1760
z
" transform="scale(0.015625)"/>
       <path id="Poppins-Regular-20" transform="scale(0.015625)"/>
       <path id="Poppins-Regular-73" d="M 1734 -58
Q 1331 -58 1011 80
Q 691 218 505 464
Q 320 710 301 1030
L 902 1030
Q 928 768 1149 601
Q 1370 435 1728 435
Q 2061 435 2253 582
Q 2445 730 2445 954
Q 2445 1184 2240 1296
Q 2035 1408 1606 1517
Q 1216 1619 969 1724
Q 723 1830 547 2038
Q 371 2246 371 2586
Q 371 2854 531 3078
Q 691 3302 985 3433
Q 1280 3565 1658 3565
Q 2240 3565 2598 3270
Q 2957 2976 2982 2464
L 2400 2464
Q 2381 2739 2179 2905
Q 1978 3072 1638 3072
Q 1325 3072 1139 2937
Q 954 2803 954 2586
Q 954 2413 1066 2301
Q 1178 2189 1347 2121
Q 1517 2054 1818 1971
Q 2195 1869 2432 1769
Q 2669 1670 2838 1472
Q 3008 1274 3014 954
Q 3014 666 2854 435
Q 2694 205 2403 73
Q 2112 -58 1734 -58
z
" transform="scale(0.015625)"/>
       <path id="Poppins-Regular-70" d="M 1075 2861
Q 1248 3162 1590 3363
Q 1933 3565 2387 3565
Q 2854 3565 3235 3341
Q 3616 3117 3833 2710
Q 4051 2304 4051 1766
Q 4051 1235 3833 819
Q 3616 403 3235 172
Q 2854 -58 2387 -58
Q 1939 -58 1596 144
Q 1254 346 1075 646
L 1075 -1664
L 493 -1664
L 493 3507
L 1075 3507
L 1075 2861
z
M 3456 1766
Q 3456 2163 3296 2457
Q 3136 2752 2864 2905
Q 2592 3059 2266 3059
Q 1946 3059 1674 2902
Q 1402 2746 1238 2448
Q 1075 2150 1075 1760
Q 1075 1363 1238 1065
Q 1402 768 1674 611
Q 1946 454 2266 454
Q 2592 454 2864 611
Q 3136 768 3296 1065
Q 3456 1363 3456 1766
z
" transform="scale(0.015625)"/>
       <path id="Poppins-Regular-28" d="M 1990 -1190
Q 1376 -589 1033 339
Q 691 1267 691 2342
Q 691 3443 1052 4400
Q 1414 5357 2086 5978
L 2694 5978
L 2694 5920
Q 1978 5248 1616 4304
Q 1254 3360 1254 2342
Q 1254 1350 1596 448
Q 1939 -454 2598 -1133
L 2598 -1190
L 1990 -1190
z
" transform="scale(0.015625)"/>
       <path id="Poppins-Regular-24" d="M 3373 1222
Q 3373 915 3219 636
Q 3066 358 2768 172
Q 2470 -13 2054 -38
L 2054 -557
L 1709 -557
L 1709 -38
Q 1126 13 761 336
Q 397 659 390 1158
L 1011 1158
Q 1037 890 1213 691
Q 1389 493 1709 442
L 1709 2042
Q 1280 2150 1017 2265
Q 755 2381 569 2624
Q 384 2867 384 3277
Q 384 3795 745 4134
Q 1107 4474 1709 4512
L 1709 5043
L 2054 5043
L 2054 4512
Q 2598 4467 2931 4163
Q 3264 3859 3315 3373
L 2694 3373
Q 2662 3597 2496 3779
Q 2330 3962 2054 4019
L 2054 2458
Q 2477 2349 2742 2237
Q 3008 2125 3190 1881
Q 3373 1638 3373 1222
z
M 979 3309
Q 979 2995 1164 2828
Q 1350 2662 1709 2554
L 1709 4032
Q 1376 4000 1177 3817
Q 979 3635 979 3309
z
M 2054 435
Q 2400 474 2595 685
Q 2790 896 2790 1190
Q 2790 1504 2598 1673
Q 2406 1843 2054 1946
L 2054 435
z
" transform="scale(0.015625)"/>
       <path id="Poppins-Regular-29" d="M 307 -1190
L 307 -1133
Q 966 -454 1308 448
Q 1651 1350 1651 2342
Q 1651 3360 1289 4304
Q 928 5248 211 5920
L 211 5978
L 819 5978
Q 1491 5357 1852 4400
Q 2214 3443 2214 2342
Q 2214 1267 1872 339
Q 1530 -589 915 -1190
L 307 -1190
z
" transform="scale(0.015625)"/>
      </defs>
      <use xlink:href="#Poppins-Regular-53"/>
      <use xlink:href="#Poppins-Regular-65" transform="translate(58.699997 0)"/>
      <use xlink:href="#Poppins-Regular-67" transform="translate(120.699982 0)"/>
      <use xlink:href="#Poppins-Regular-6d" transform="translate(188.299973 0)"/>
      <use xlink:href="#Poppins-Regular-65" transform="translate(291.299957 0)"/>
      <use xlink:href="#Poppins-Regular-6e" transform="translate(353.299942 0)"/>
      <use xlink:href="#Poppins-Regular-74" transform="translate(417.299927 0)"/>
      <use xlink:href="#Poppins-Regular-20" transform="translate(453.699921 0)"/>
      <use xlink:href="#Poppins-Regular-73" transform="translate(480.399918 0)"/>
      <use xlink:href="#Poppins-Regular-70" transform="translate(532.599915 0)"/>
      <use xlink:href="#Poppins-Regular-65" transform="translate(600.199905 0)"/>
      <use xlink:href="#Poppins-Regular-6e" transform="translate(662.19989 0)"/>
      <use xlink:href="#Poppins-Regular-64" transform="translate(726.199875 0)"/>
      <use xlink:href="#Poppins-Regular-20" transform="translate(793.799866 0)"/>
      <use xlink:href="#Poppins-Regular-28" transform="translate(820.499863 0)"/>
      <use xlink:href="#Poppins-Regular-24" transform="translate(865.899857 0)"/>
      <use xlink:href="#Poppins-Regular-29" transform="translate(928.099854 0)"/>
     </g>
    </g>
   </g>
   <g id="patch_3">
    <path d="M 79.938023 284.16
L 151.211698 284.16
L 151.211698 117.365714
L 79.938023 117.365714
z
" clip-path="url(#p9b580997b3)" style="fill: #16a34a"/>
   </g>
   <g id="patch_4">
    <path d="M 169.030116 284.16
L 240.303791 284.16
L 240.303791 228.809879
L 169.030116 228.809879
z
" clip-path="url(#p9b580997b3)" style="fill: #16a34a"/>
   </g>
   <g id="patch_5">
    <path d="M 258.122209 284.16
L 329.395884 284.16
L 329.395884 254.399318
L 258.122209 254.399318
z
" clip-path="url(#p9b580997b3)" style="fill: #16a34a"/>
   </g>
   <g id="patch_6">
    <path d="M 347.214302 284.16
L 418.487977 284.16
L 418.487977 271.314223
L 347.214302 271.314223
z
" clip-path="url(#p9b580997b3)" style="fill: #16a34a"/>
   </g>
   <g id="patch_7">
    <path d="M 57.665 284.16
L 57.665 109.026
" style="fill: none; stroke: #000000; stroke-width: 0.8; stroke-linejoin: miter; stroke-linecap: square"/>
   </g>
   <g id="patch_8">
    <path d="M 57.665 284.16
L 440.761 284.16
" style="fill: none; stroke: #000000; stroke-width: 0.8; stroke-linejoin: miter; stroke-linecap: square"/>
   </g>
  </g>
  <g id="_ors_chrome:139130906843344">
   <path d="M 57.665 10.08
L 91.505 10.08
L 91.505 7.2
L 57.665 7.2
z
" style="fill: #16a34a"/>
  </g>
  <g id="_ors_chrome:139130906843344">
   <!-- THRESHOLD SEGMENTATION -->
   <g style="fill: #737373" transform="translate(57.665 26.84) scale(0.1 -0.1)">
    <defs>
     <path id="Poppins-SemiBold-54" d="M 3482 4467
L 3482 3744
L 2291 3744
L 2291 0
L 1395 0
L 1395 3744
L 205 3744
L 205 4467
L 3482 4467
z
" transform="scale(0.015625)"/>
     <path id="Poppins-SemiBold-48" d="M 4147 4467
L 4147 0
L 3251 0
L 3251 1901
L 1338 1901
L 1338 0
L 442 0
L 442 4467
L 1338 4467
L 1338 2630
L 3251 2630
L 3251 4467
L 4147 4467
z
" transform="scale(0.015625)"/>
     <path id="Poppins-SemiBold-52" d="M 2746 0
L 1760 1741
L 1338 1741
L 1338 0
L 442 0
L 442 4467
L 2118 4467
Q 2637 4467 3001 4284
Q 3366 4102 3548 3792
Q 3731 3482 3731 3098
Q 3731 2656 3475 2301
Q 3219 1946 2714 1811
L 3782 0
L 2746 0
z
M 1338 2413
L 2086 2413
Q 2451 2413 2630 2589
Q 2810 2765 2810 3078
Q 2810 3386 2630 3555
Q 2451 3725 2086 3725
L 1338 3725
L 1338 2413
z
" transform="scale(0.015625)"/>
     <path id="Poppins-SemiBold-45" d="M 1338 3744
L 1338 2624
L 2842 2624
L 2842 1914
L 1338 1914
L 1338 730
L 3034 730
L 3034 0
L 442 0
L 442 4474
L 3034 4474
L 3034 3744
L 1338 3744
z
" transform="scale(0.015625)"/>
     <path id="Poppins-SemiBold-53" d="M 1984 -45
Q 1517 -45 1142 115
Q 768 275 550 576
Q 333 877 326 1286
L 1286 1286
Q 1306 1011 1482 851
Q 1658 691 1965 691
Q 2278 691 2457 841
Q 2637 992 2637 1235
Q 2637 1434 2515 1562
Q 2394 1690 2211 1763
Q 2029 1837 1709 1926
Q 1274 2054 1002 2179
Q 730 2304 534 2557
Q 339 2810 339 3232
Q 339 3629 537 3923
Q 736 4218 1094 4374
Q 1453 4531 1914 4531
Q 2605 4531 3037 4195
Q 3469 3859 3514 3258
L 2528 3258
Q 2515 3488 2332 3638
Q 2150 3789 1850 3789
Q 1587 3789 1430 3654
Q 1274 3520 1274 3264
Q 1274 3085 1392 2966
Q 1510 2848 1686 2774
Q 1862 2701 2182 2605
Q 2618 2477 2893 2349
Q 3168 2221 3366 1965
Q 3565 1709 3565 1293
Q 3565 934 3379 627
Q 3194 320 2835 137
Q 2477 -45 1984 -45
z
" transform="scale(0.015625)"/>
     <path id="Poppins-SemiBold-4f" d="M 2515 -45
Q 1888 -45 1363 249
Q 838 544 531 1065
Q 224 1587 224 2246
Q 224 2899 531 3420
Q 838 3942 1363 4236
Q 1888 4531 2515 4531
Q 3149 4531 3670 4236
Q 4192 3942 4496 3420
Q 4800 2899 4800 2246
Q 4800 1587 4496 1065
Q 4192 544 3667 249
Q 3142 -45 2515 -45
z
M 2515 755
Q 2918 755 3225 937
Q 3533 1120 3705 1459
Q 3878 1798 3878 2246
Q 3878 2694 3705 3030
Q 3533 3366 3225 3545
Q 2918 3725 2515 3725
Q 2112 3725 1801 3545
Q 1491 3366 1318 3030
Q 1146 2694 1146 2246
Q 1146 1798 1318 1459
Q 1491 1120 1801 937
Q 2112 755 2515 755
z
" transform="scale(0.015625)"/>
     <path id="Poppins-SemiBold-4c" d="M 1338 710
L 2810 710
L 2810 0
L 442 0
L 442 4467
L 1338 4467
L 1338 710
z
" transform="scale(0.015625)"/>
     <path id="Poppins-SemiBold-44" d="M 2003 4467
Q 2707 4467 3241 4192
Q 3776 3917 4067 3408
Q 4358 2899 4358 2227
Q 4358 1555 4067 1052
Q 3776 550 3241 275
Q 2707 0 2003 0
L 442 0
L 442 4467
L 2003 4467
z
M 1971 762
Q 2675 762 3059 1146
Q 3443 1530 3443 2227
Q 3443 2925 3059 3318
Q 2675 3712 1971 3712
L 1338 3712
L 1338 762
L 1971 762
z
" transform="scale(0.015625)"/>
     <path id="Poppins-SemiBold-20" transform="scale(0.015625)"/>
     <path id="Poppins-SemiBold-47" d="M 3552 3123
Q 3398 3405 3129 3552
Q 2861 3699 2502 3699
Q 2106 3699 1798 3520
Q 1491 3341 1318 3008
Q 1146 2675 1146 2240
Q 1146 1792 1322 1459
Q 1498 1126 1811 947
Q 2125 768 2541 768
Q 3053 768 3379 1040
Q 3706 1312 3808 1798
L 2272 1798
L 2272 2483
L 4691 2483
L 4691 1702
Q 4602 1235 4307 838
Q 4013 442 3549 202
Q 3085 -38 2509 -38
Q 1862 -38 1340 253
Q 819 544 521 1062
Q 224 1581 224 2240
Q 224 2899 521 3420
Q 819 3942 1340 4233
Q 1862 4525 2502 4525
Q 3258 4525 3814 4157
Q 4371 3789 4582 3123
L 3552 3123
z
" transform="scale(0.015625)"/>
     <path id="Poppins-SemiBold-4d" d="M 5312 4467
L 5312 0
L 4416 0
L 4416 2906
L 3219 0
L 2541 0
L 1338 2906
L 1338 0
L 442 0
L 442 4467
L 1459 4467
L 2880 1146
L 4301 4467
L 5312 4467
z
" transform="scale(0.015625)"/>
     <path id="Poppins-SemiBold-4e" d="M 4262 0
L 3366 0
L 1338 3066
L 1338 0
L 442 0
L 442 4474
L 1338 4474
L 3366 1402
L 3366 4474
L 4262 4474
L 4262 0
z
" transform="scale(0.015625)"/>
     <path id="Poppins-SemiBold-41" d="M 3181 851
L 1402 851
L 1107 0
L 166 0
L 1773 4474
L 2816 4474
L 4422 0
L 3475 0
L 3181 851
z
M 2938 1568
L 2291 3437
L 1645 1568
L 2938 1568
z
" transform="scale(0.015625)"/>
     <path id="Poppins-SemiBold-49" d="M 1338 4467
L 1338 0
L 442 0
L 442 4467
L 1338 4467
z
" transform="scale(0.015625)"/>
    </defs>
    <use xlink:href="#Poppins-SemiBold-54"/>
    <use xlink:href="#Poppins-SemiBold-48" transform="translate(57.699997 0)"/>
    <use xlink:href="#Poppins-SemiBold-52" transform="translate(129.399979 0)"/>
    <use xlink:href="#Poppins-SemiBold-45" transform="translate(193.499969 0)"/>
    <use xlink:href="#Poppins-SemiBold-53" transform="translate(246.699966 0)"/>
    <use xlink:href="#Poppins-SemiBold-48" transform="translate(307.59996 0)"/>
    <use xlink:href="#Poppins-SemiBold-4f" transform="translate(379.299942 0)"/>
    <use xlink:href="#Poppins-SemiBold-4c" transform="translate(457.799927 0)"/>
    <use xlink:href="#Poppins-SemiBold-44" transform="translate(503.699921 0)"/>
    <use xlink:href="#Poppins-SemiBold-20" transform="translate(575.399902 0)"/>
    <use xlink:href="#Poppins-SemiBold-53" transform="translate(599.19989 0)"/>
    <use xlink:href="#Poppins-SemiBold-45" transform="translate(660.099884 0)"/>
    <use xlink:href="#Poppins-SemiBold-47" transform="translate(713.299881 0)"/>
    <use xlink:href="#Poppins-SemiBold-4d" transform="translate(790.099869 0)"/>
    <use xlink:href="#Poppins-SemiBold-45" transform="translate(879.999863 0)"/>
    <use xlink:href="#Poppins-SemiBold-4e" transform="translate(933.19986 0)"/>
    <use xlink:href="#Poppins-SemiBold-54" transform="translate(1006.699844 0)"/>
    <use xlink:href="#Poppins-SemiBold-41" transform="translate(1064.399841 0)"/>
    <use xlink:href="#Poppins-SemiBold-54" transform="translate(1135.999832 0)"/>
    <use xlink:href="#Poppins-SemiBold-49" transform="translate(1193.699829 0)"/>
    <use xlink:href="#Poppins-SemiBold-4f" transform="translate(1221.499817 0)"/>
    <use xlink:href="#Poppins-SemiBold-4e" transform="translate(1299.999802 0)"/>
   </g>
  </g>
  <g id="_ors_chrome:139130906843344">
   <!-- Platinum customers concentrate -->
   <g style="fill: #0a0a0a" transform="translate(57.665 50.84) scale(0.22 -0.22)">
    <defs>
     <path id="Poppins-SemiBold-50" d="M 3699 3085
Q 3699 2726 3529 2412
Q 3360 2099 2998 1907
Q 2637 1715 2086 1715
L 1338 1715
L 1338 0
L 442 0
L 442 4467
L 2086 4467
Q 2605 4467 2969 4288
Q 3334 4109 3516 3795
Q 3699 3482 3699 3085
z
M 2048 2438
Q 2419 2438 2598 2608
Q 2778 2778 2778 3085
Q 2778 3738 2048 3738
L 1338 3738
L 1338 2438
L 2048 2438
z
" transform="scale(0.015625)"/>
     <path id="Poppins-SemiBold-6c" d="M 1338 4736
L 1338 0
L 442 0
L 442 4736
L 1338 4736
z
" transform="scale(0.015625)"/>
     <path id="Poppins-SemiBold-61" d="M 211 1786
Q 211 2323 425 2739
Q 640 3155 1008 3379
Q 1376 3603 1830 3603
Q 2227 3603 2524 3443
Q 2822 3283 3002 3040
L 3002 3546
L 3904 3546
L 3904 0
L 3002 0
L 3002 518
Q 2829 269 2525 105
Q 2221 -58 1824 -58
Q 1376 -58 1008 172
Q 640 403 425 822
Q 211 1242 211 1786
z
M 3002 1773
Q 3002 2099 2874 2332
Q 2746 2566 2528 2691
Q 2310 2816 2061 2816
Q 1811 2816 1600 2694
Q 1389 2573 1257 2339
Q 1126 2106 1126 1786
Q 1126 1466 1257 1226
Q 1389 986 1603 858
Q 1818 730 2061 730
Q 2310 730 2528 854
Q 2746 979 2874 1212
Q 3002 1446 3002 1773
z
" transform="scale(0.015625)"/>
     <path id="Poppins-SemiBold-74" d="M 1485 2810
L 1485 1094
Q 1485 915 1571 835
Q 1658 755 1862 755
L 2278 755
L 2278 0
L 1715 0
Q 582 0 582 1101
L 582 2810
L 160 2810
L 160 3546
L 582 3546
L 582 4422
L 1485 4422
L 1485 3546
L 2278 3546
L 2278 2810
L 1485 2810
z
" transform="scale(0.015625)"/>
     <path id="Poppins-SemiBold-69" d="M 896 3968
Q 659 3968 502 4118
Q 346 4269 346 4493
Q 346 4717 502 4867
Q 659 5018 896 5018
Q 1133 5018 1289 4867
Q 1446 4717 1446 4493
Q 1446 4269 1289 4118
Q 1133 3968 896 3968
z
M 1338 3546
L 1338 0
L 442 0
L 442 3546
L 1338 3546
z
" transform="scale(0.015625)"/>
     <path id="Poppins-SemiBold-6e" d="M 2406 3597
Q 3040 3597 3430 3197
Q 3821 2797 3821 2080
L 3821 0
L 2925 0
L 2925 1958
Q 2925 2381 2713 2608
Q 2502 2835 2138 2835
Q 1766 2835 1552 2608
Q 1338 2381 1338 1958
L 1338 0
L 442 0
L 442 3546
L 1338 3546
L 1338 3104
Q 1517 3334 1795 3465
Q 2074 3597 2406 3597
z
" transform="scale(0.015625)"/>
     <path id="Poppins-SemiBold-75" d="M 3789 3546
L 3789 0
L 2886 0
L 2886 448
Q 2714 218 2435 86
Q 2157 -45 1830 -45
Q 1414 -45 1094 131
Q 774 307 592 649
Q 410 992 410 1466
L 410 3546
L 1306 3546
L 1306 1594
Q 1306 1171 1517 944
Q 1728 717 2093 717
Q 2464 717 2675 944
Q 2886 1171 2886 1594
L 2886 3546
L 3789 3546
z
" transform="scale(0.015625)"/>
     <path id="Poppins-SemiBold-6d" d="M 4845 3597
Q 5498 3597 5898 3197
Q 6298 2797 6298 2080
L 6298 0
L 5402 0
L 5402 1958
Q 5402 2374 5190 2595
Q 4979 2816 4614 2816
Q 4250 2816 4035 2595
Q 3821 2374 3821 1958
L 3821 0
L 2925 0
L 2925 1958
Q 2925 2374 2713 2595
Q 2502 2816 2138 2816
Q 1766 2816 1552 2595
Q 1338 2374 1338 1958
L 1338 0
L 442 0
L 442 3546
L 1338 3546
L 1338 3117
Q 1510 3341 1782 3469
Q 2054 3597 2381 3597
Q 2797 3597 3123 3421
Q 3450 3245 3629 2918
Q 3802 3226 4131 3411
Q 4461 3597 4845 3597
z
" transform="scale(0.015625)"/>
     <path id="Poppins-SemiBold-63" d="M 211 1773
Q 211 2323 435 2736
Q 659 3149 1056 3376
Q 1453 3603 1965 3603
Q 2624 3603 3056 3273
Q 3488 2944 3635 2349
L 2669 2349
Q 2592 2579 2409 2710
Q 2227 2842 1958 2842
Q 1574 2842 1350 2563
Q 1126 2285 1126 1773
Q 1126 1267 1350 988
Q 1574 710 1958 710
Q 2502 710 2669 1197
L 3635 1197
Q 3488 621 3053 281
Q 2618 -58 1965 -58
Q 1453 -58 1056 169
Q 659 397 435 809
Q 211 1222 211 1773
z
" transform="scale(0.015625)"/>
     <path id="Poppins-SemiBold-73" d="M 1798 -58
Q 1363 -58 1017 99
Q 672 256 470 525
Q 269 794 250 1120
L 1152 1120
Q 1178 915 1354 780
Q 1530 646 1792 646
Q 2048 646 2192 748
Q 2336 851 2336 1011
Q 2336 1184 2160 1270
Q 1984 1357 1600 1459
Q 1203 1555 950 1657
Q 698 1760 515 1971
Q 333 2182 333 2541
Q 333 2835 502 3078
Q 672 3322 989 3462
Q 1306 3603 1734 3603
Q 2368 3603 2745 3286
Q 3123 2970 3162 2432
L 2304 2432
Q 2285 2643 2128 2768
Q 1971 2893 1709 2893
Q 1466 2893 1334 2803
Q 1203 2714 1203 2554
Q 1203 2374 1382 2281
Q 1562 2189 1939 2093
Q 2323 1997 2572 1894
Q 2822 1792 3004 1577
Q 3187 1363 3194 1011
Q 3194 704 3024 461
Q 2854 218 2537 80
Q 2221 -58 1798 -58
z
" transform="scale(0.015625)"/>
     <path id="Poppins-SemiBold-6f" d="M 2016 -58
Q 1504 -58 1094 169
Q 685 397 451 813
Q 218 1229 218 1773
Q 218 2317 458 2733
Q 698 3149 1114 3376
Q 1530 3603 2042 3603
Q 2554 3603 2970 3376
Q 3386 3149 3626 2733
Q 3866 2317 3866 1773
Q 3866 1229 3619 813
Q 3373 397 2953 169
Q 2534 -58 2016 -58
z
M 2016 723
Q 2259 723 2473 841
Q 2688 960 2816 1197
Q 2944 1434 2944 1773
Q 2944 2278 2678 2550
Q 2413 2822 2029 2822
Q 1645 2822 1385 2550
Q 1126 2278 1126 1773
Q 1126 1267 1379 995
Q 1632 723 2016 723
z
" transform="scale(0.015625)"/>
     <path id="Poppins-SemiBold-65" d="M 3738 1850
Q 3738 1658 3712 1504
L 1120 1504
Q 1152 1120 1389 902
Q 1626 685 1971 685
Q 2470 685 2682 1114
L 3648 1114
Q 3494 602 3059 272
Q 2624 -58 1990 -58
Q 1478 -58 1072 169
Q 666 397 438 813
Q 211 1229 211 1773
Q 211 2323 435 2739
Q 659 3155 1062 3379
Q 1466 3603 1990 3603
Q 2496 3603 2896 3385
Q 3296 3168 3517 2768
Q 3738 2368 3738 1850
z
M 2810 2106
Q 2803 2451 2560 2659
Q 2317 2867 1965 2867
Q 1632 2867 1405 2665
Q 1178 2464 1126 2106
L 2810 2106
z
" transform="scale(0.015625)"/>
     <path id="Poppins-SemiBold-72" d="M 1338 2995
Q 1510 3277 1788 3437
Q 2067 3597 2426 3597
L 2426 2656
L 2189 2656
Q 1766 2656 1552 2457
Q 1338 2259 1338 1766
L 1338 0
L 442 0
L 442 3546
L 1338 3546
L 1338 2995
z
" transform="scale(0.015625)"/>
    </defs>
    <use xlink:href="#Poppins-SemiBold-50"/>
    <use xlink:href="#Poppins-SemiBold-6c" transform="translate(60.799988 0)"/>
    <use xlink:href="#Poppins-SemiBold-61" transform="translate(88.599976 0)"/>
    <use xlink:href="#Poppins-SemiBold-74" transform="translate(156.399963 0)"/>
    <use xlink:href="#Poppins-SemiBold-69" transform="translate(195.199951 0)"/>
    <use xlink:href="#Poppins-SemiBold-6e" transform="translate(222.999939 0)"/>
    <use xlink:href="#Poppins-SemiBold-75" transform="translate(289.09993 0)"/>
    <use xlink:href="#Poppins-SemiBold-6d" transform="translate(355.199921 0)"/>
    <use xlink:href="#Poppins-SemiBold-20" transform="translate(459.999908 0)"/>
    <use xlink:href="#Poppins-SemiBold-63" transform="translate(483.799896 0)"/>
    <use xlink:href="#Poppins-SemiBold-75" transform="translate(543.999893 0)"/>
    <use xlink:href="#Poppins-SemiBold-73" transform="translate(610.099884 0)"/>
    <use xlink:href="#Poppins-SemiBold-74" transform="translate(664.599869 0)"/>
    <use xlink:href="#Poppins-SemiBold-6f" transform="translate(703.399857 0)"/>
    <use xlink:href="#Poppins-SemiBold-6d" transform="translate(767.199844 0)"/>
    <use xlink:href="#Poppins-SemiBold-65" transform="translate(871.999832 0)"/>
    <use xlink:href="#Poppins-SemiBold-72" transform="translate(933.699829 0)"/>
    <use xlink:href="#Poppins-SemiBold-73" transform="translate(974.099823 0)"/>
    <use xlink:href="#Poppins-SemiBold-20" transform="translate(1028.599808 0)"/>
    <use xlink:href="#Poppins-SemiBold-63" transform="translate(1052.399796 0)"/>
    <use xlink:href="#Poppins-SemiBold-6f" transform="translate(1112.599792 0)"/>
    <use xlink:href="#Poppins-SemiBold-6e" transform="translate(1176.39978 0)"/>
    <use xlink:href="#Poppins-SemiBold-63" transform="translate(1242.499771 0)"/>
    <use xlink:href="#Poppins-SemiBold-65" transform="translate(1302.699768 0)"/>
    <use xlink:href="#Poppins-SemiBold-6e" transform="translate(1364.399765 0)"/>
    <use xlink:href="#Poppins-SemiBold-74" transform="translate(1430.499756 0)"/>
    <use xlink:href="#Poppins-SemiBold-72" transform="translate(1469.299744 0)"/>
    <use xlink:href="#Poppins-SemiBold-61" transform="translate(1509.699738 0)"/>
    <use xlink:href="#Poppins-SemiBold-74" transform="translate(1577.499725 0)"/>
    <use xlink:href="#Poppins-SemiBold-65" transform="translate(1616.299713 0)"/>
   </g>
   <!-- 63% of total spend -->
   <g style="fill: #0a0a0a" transform="translate(57.665 77.241375) scale(0.22 -0.22)">
    <defs>
     <path id="Poppins-SemiBold-36" d="M 2758 3501
Q 2694 3770 2537 3904
Q 2381 4038 2086 4038
Q 1645 4038 1437 3683
Q 1229 3328 1222 2528
Q 1376 2784 1670 2928
Q 1965 3072 2310 3072
Q 2726 3072 3046 2893
Q 3366 2714 3545 2371
Q 3725 2029 3725 1549
Q 3725 1094 3542 739
Q 3360 384 3008 185
Q 2656 -13 2170 -13
Q 1504 -13 1123 281
Q 742 576 592 1104
Q 442 1632 442 2406
Q 442 3578 845 4176
Q 1248 4774 2118 4774
Q 2790 4774 3161 4409
Q 3533 4045 3590 3501
L 2758 3501
z
M 2106 2336
Q 1766 2336 1536 2137
Q 1306 1939 1306 1562
Q 1306 1184 1520 966
Q 1734 749 2125 749
Q 2470 749 2672 960
Q 2874 1171 2874 1530
Q 2874 1901 2678 2118
Q 2483 2336 2106 2336
z
" transform="scale(0.015625)"/>
     <path id="Poppins-SemiBold-33" d="M 352 3437
Q 384 4077 803 4425
Q 1222 4774 1907 4774
Q 2374 4774 2707 4611
Q 3040 4448 3209 4169
Q 3379 3891 3379 3539
Q 3379 3136 3171 2857
Q 2963 2579 2675 2483
L 2675 2458
Q 3046 2342 3254 2048
Q 3462 1754 3462 1293
Q 3462 909 3286 608
Q 3110 307 2768 137
Q 2426 -32 1946 -32
Q 1222 -32 768 333
Q 314 698 288 1408
L 1158 1408
Q 1171 1094 1372 905
Q 1574 717 1926 717
Q 2253 717 2429 899
Q 2605 1082 2605 1370
Q 2605 1754 2361 1920
Q 2118 2086 1606 2086
L 1421 2086
L 1421 2822
L 1606 2822
Q 2515 2822 2515 3430
Q 2515 3706 2352 3859
Q 2189 4013 1882 4013
Q 1581 4013 1417 3849
Q 1254 3686 1229 3437
L 352 3437
z
" transform="scale(0.015625)"/>
     <path id="Poppins-SemiBold-25" d="M 237 3520
Q 237 4006 521 4281
Q 806 4557 1254 4557
Q 1702 4557 1987 4281
Q 2272 4006 2272 3520
Q 2272 3027 1987 2752
Q 1702 2477 1254 2477
Q 806 2477 521 2752
Q 237 3027 237 3520
z
M 4346 4480
L 1830 0
L 960 0
L 3469 4480
L 4346 4480
z
M 1248 4019
Q 896 4019 896 3520
Q 896 3014 1248 3014
Q 1421 3014 1517 3139
Q 1613 3264 1613 3520
Q 1613 4019 1248 4019
z
M 3046 966
Q 3046 1459 3331 1731
Q 3616 2003 4064 2003
Q 4512 2003 4790 1731
Q 5069 1459 5069 966
Q 5069 474 4790 198
Q 4512 -77 4064 -77
Q 3610 -77 3328 198
Q 3046 474 3046 966
z
M 4058 1466
Q 3693 1466 3693 966
Q 3693 461 4058 461
Q 4416 461 4416 966
Q 4416 1466 4058 1466
z
" transform="scale(0.015625)"/>
     <path id="Poppins-SemiBold-66" d="M 2067 2810
L 1446 2810
L 1446 0
L 538 0
L 538 2810
L 134 2810
L 134 3546
L 538 3546
L 538 3725
Q 538 4378 909 4685
Q 1280 4992 2029 4973
L 2029 4218
Q 1702 4224 1574 4109
Q 1446 3994 1446 3693
L 1446 3546
L 2067 3546
L 2067 2810
z
" transform="scale(0.015625)"/>
     <path id="Poppins-SemiBold-70" d="M 1338 3034
Q 1510 3277 1814 3440
Q 2118 3603 2509 3603
Q 2963 3603 3331 3379
Q 3699 3155 3913 2742
Q 4128 2330 4128 1786
Q 4128 1242 3913 822
Q 3699 403 3331 172
Q 2963 -58 2509 -58
Q 2118 -58 1820 102
Q 1523 262 1338 506
L 1338 -1690
L 442 -1690
L 442 3546
L 1338 3546
L 1338 3034
z
M 3213 1786
Q 3213 2106 3081 2339
Q 2950 2573 2736 2694
Q 2522 2816 2272 2816
Q 2029 2816 1814 2691
Q 1600 2566 1469 2329
Q 1338 2093 1338 1773
Q 1338 1453 1469 1216
Q 1600 979 1814 854
Q 2029 730 2272 730
Q 2522 730 2736 858
Q 2950 986 3081 1222
Q 3213 1459 3213 1786
z
" transform="scale(0.015625)"/>
     <path id="Poppins-SemiBold-64" d="M 211 1786
Q 211 2323 425 2739
Q 640 3155 1011 3379
Q 1382 3603 1837 3603
Q 2182 3603 2496 3452
Q 2810 3302 2995 3053
L 2995 4736
L 3904 4736
L 3904 0
L 2995 0
L 2995 525
Q 2829 262 2528 102
Q 2227 -58 1830 -58
Q 1382 -58 1011 172
Q 640 403 425 822
Q 211 1242 211 1786
z
M 3002 1773
Q 3002 2099 2874 2332
Q 2746 2566 2528 2691
Q 2310 2816 2061 2816
Q 1811 2816 1600 2694
Q 1389 2573 1257 2339
Q 1126 2106 1126 1786
Q 1126 1466 1257 1226
Q 1389 986 1603 858
Q 1818 730 2061 730
Q 2310 730 2528 854
Q 2746 979 2874 1212
Q 3002 1446 3002 1773
z
" transform="scale(0.015625)"/>
    </defs>
    <use xlink:href="#Poppins-SemiBold-36"/>
    <use xlink:href="#Poppins-SemiBold-33" transform="translate(63.999985 0)"/>
    <use xlink:href="#Poppins-SemiBold-25" transform="translate(123.899979 0)"/>
    <use xlink:href="#Poppins-SemiBold-20" transform="translate(206.799973 0)"/>
    <use xlink:href="#Poppins-SemiBold-6f" transform="translate(230.59996 0)"/>
    <use xlink:href="#Poppins-SemiBold-66" transform="translate(294.399948 0)"/>
    <use xlink:href="#Poppins-SemiBold-20" transform="translate(328.899933 0)"/>
    <use xlink:href="#Poppins-SemiBold-74" transform="translate(352.699921 0)"/>
    <use xlink:href="#Poppins-SemiBold-6f" transform="translate(391.499908 0)"/>
    <use xlink:href="#Poppins-SemiBold-74" transform="translate(455.299896 0)"/>
    <use xlink:href="#Poppins-SemiBold-61" transform="translate(494.099884 0)"/>
    <use xlink:href="#Poppins-SemiBold-6c" transform="translate(561.899872 0)"/>
    <use xlink:href="#Poppins-SemiBold-20" transform="translate(589.69986 0)"/>
    <use xlink:href="#Poppins-SemiBold-73" transform="translate(613.499847 0)"/>
    <use xlink:href="#Poppins-SemiBold-70" transform="translate(667.999832 0)"/>
    <use xlink:href="#Poppins-SemiBold-65" transform="translate(735.79982 0)"/>
    <use xlink:href="#Poppins-SemiBold-6e" transform="translate(797.499817 0)"/>
    <use xlink:href="#Poppins-SemiBold-64" transform="translate(863.599808 0)"/>
   </g>
  </g>
  <g id="_ors_chrome:139130906843344">
   <!-- Quartile-based segmentation: Bronze / Silver / Gold / Platinum -->
   <g style="fill: #525252" transform="translate(57.665 98.874375) scale(0.12 -0.12)">
    <defs>
     <path id="Poppins-Regular-51" d="M 4070 -845
L 3181 45
Q 2854 -45 2515 -45
Q 1894 -45 1382 246
Q 870 538 572 1059
Q 275 1581 275 2234
Q 275 2886 572 3408
Q 870 3930 1382 4221
Q 1894 4512 2515 4512
Q 3142 4512 3654 4221
Q 4166 3930 4460 3411
Q 4755 2893 4755 2234
Q 4755 1594 4473 1082
Q 4192 570 3699 275
L 4826 -845
L 4070 -845
z
M 870 2234
Q 870 1702 1084 1299
Q 1299 896 1673 678
Q 2048 461 2515 461
Q 2982 461 3356 678
Q 3731 896 3945 1299
Q 4160 1702 4160 2234
Q 4160 2771 3945 3171
Q 3731 3571 3360 3788
Q 2989 4006 2515 4006
Q 2042 4006 1670 3788
Q 1299 3571 1084 3171
Q 870 2771 870 2234
z
" transform="scale(0.015625)"/>
     <path id="Poppins-Regular-2d" d="M 2925 2592
L 2925 2099
L 371 2099
L 371 2592
L 2925 2592
z
" transform="scale(0.015625)"/>
     <path id="Poppins-Regular-62" d="M 1075 2854
Q 1254 3168 1600 3366
Q 1946 3565 2387 3565
Q 2861 3565 3238 3341
Q 3616 3117 3833 2710
Q 4051 2304 4051 1766
Q 4051 1235 3833 819
Q 3616 403 3235 172
Q 2854 -58 2387 -58
Q 1933 -58 1590 140
Q 1248 339 1075 646
L 1075 0
L 493 0
L 493 4736
L 1075 4736
L 1075 2854
z
M 3456 1766
Q 3456 2163 3296 2457
Q 3136 2752 2864 2905
Q 2592 3059 2266 3059
Q 1946 3059 1674 2902
Q 1402 2746 1238 2448
Q 1075 2150 1075 1760
Q 1075 1363 1238 1065
Q 1402 768 1674 611
Q 1946 454 2266 454
Q 2592 454 2864 611
Q 3136 768 3296 1065
Q 3456 1363 3456 1766
z
" transform="scale(0.015625)"/>
     <path id="Poppins-Regular-3a" d="M 678 -38
Q 512 -38 397 77
Q 282 192 282 358
Q 282 525 397 640
Q 512 755 678 755
Q 838 755 950 640
Q 1062 525 1062 358
Q 1062 192 950 77
Q 838 -38 678 -38
z
M 678 2714
Q 512 2714 397 2829
Q 282 2944 282 3110
Q 282 3277 397 3392
Q 512 3507 678 3507
Q 838 3507 950 3392
Q 1062 3277 1062 3110
Q 1062 2944 950 2829
Q 838 2714 678 2714
z
" transform="scale(0.015625)"/>
     <path id="Poppins-Regular-2f" d="M 2669 6029
L 915 -1088
L 339 -1088
L 2086 6029
L 2669 6029
z
" transform="scale(0.015625)"/>
    </defs>
    <use xlink:href="#Poppins-Regular-51"/>
    <use xlink:href="#Poppins-Regular-75" transform="translate(78.799988 0)"/>
    <use xlink:href="#Poppins-Regular-61" transform="translate(142.799973 0)"/>
    <use xlink:href="#Poppins-Regular-72" transform="translate(210.399963 0)"/>
    <use xlink:href="#Poppins-Regular-74" transform="translate(247.699951 0)"/>
    <use xlink:href="#Poppins-Regular-69" transform="translate(284.099945 0)"/>
    <use xlink:href="#Poppins-Regular-6c" transform="translate(308.699936 0)"/>
    <use xlink:href="#Poppins-Regular-65" transform="translate(333.299927 0)"/>
    <use xlink:href="#Poppins-Regular-2d" transform="translate(395.299911 0)"/>
    <use xlink:href="#Poppins-Regular-62" transform="translate(450.399902 0)"/>
    <use xlink:href="#Poppins-Regular-61" transform="translate(517.999893 0)"/>
    <use xlink:href="#Poppins-Regular-73" transform="translate(585.599884 0)"/>
    <use xlink:href="#Poppins-Regular-65" transform="translate(637.799881 0)"/>
    <use xlink:href="#Poppins-Regular-64" transform="translate(699.799866 0)"/>
    <use xlink:href="#Poppins-Regular-20" transform="translate(767.399857 0)"/>
    <use xlink:href="#Poppins-Regular-73" transform="translate(794.099854 0)"/>
    <use xlink:href="#Poppins-Regular-65" transform="translate(846.29985 0)"/>
    <use xlink:href="#Poppins-Regular-67" transform="translate(908.299835 0)"/>
    <use xlink:href="#Poppins-Regular-6d" transform="translate(975.899826 0)"/>
    <use xlink:href="#Poppins-Regular-65" transform="translate(1078.899811 0)"/>
    <use xlink:href="#Poppins-Regular-6e" transform="translate(1140.899796 0)"/>
    <use xlink:href="#Poppins-Regular-74" transform="translate(1204.89978 0)"/>
    <use xlink:href="#Poppins-Regular-61" transform="translate(1241.299774 0)"/>
    <use xlink:href="#Poppins-Regular-74" transform="translate(1308.899765 0)"/>
    <use xlink:href="#Poppins-Regular-69" transform="translate(1345.299759 0)"/>
    <use xlink:href="#Poppins-Regular-6f" transform="translate(1369.89975 0)"/>
    <use xlink:href="#Poppins-Regular-6e" transform="translate(1433.899734 0)"/>
    <use xlink:href="#Poppins-Regular-3a" transform="translate(1497.899719 0)"/>
    <use xlink:href="#Poppins-Regular-20" transform="translate(1519.199707 0)"/>
    <use xlink:href="#Poppins-Regular-42" transform="translate(1545.899704 0)"/>
    <use xlink:href="#Poppins-Regular-72" transform="translate(1607.199692 0)"/>
    <use xlink:href="#Poppins-Regular-6f" transform="translate(1644.49968 0)"/>
    <use xlink:href="#Poppins-Regular-6e" transform="translate(1708.499664 0)"/>
    <use xlink:href="#Poppins-Regular-7a" transform="translate(1772.499649 0)"/>
    <use xlink:href="#Poppins-Regular-65" transform="translate(1817.999634 0)"/>
    <use xlink:href="#Poppins-Regular-20" transform="translate(1879.999619 0)"/>
    <use xlink:href="#Poppins-Regular-2f" transform="translate(1906.699615 0)"/>
    <use xlink:href="#Poppins-Regular-20" transform="translate(1954.299606 0)"/>
    <use xlink:href="#Poppins-Regular-53" transform="translate(1980.999603 0)"/>
    <use xlink:href="#Poppins-Regular-69" transform="translate(2039.6996 0)"/>
    <use xlink:href="#Poppins-Regular-6c" transform="translate(2064.299591 0)"/>
    <use xlink:href="#Poppins-Regular-76" transform="translate(2088.899582 0)"/>
    <use xlink:href="#Poppins-Regular-65" transform="translate(2144.999573 0)"/>
    <use xlink:href="#Poppins-Regular-72" transform="translate(2206.999557 0)"/>
    <use xlink:href="#Poppins-Regular-20" transform="translate(2244.299545 0)"/>
    <use xlink:href="#Poppins-Regular-2f" transform="translate(2270.999542 0)"/>
    <use xlink:href="#Poppins-Regular-20" transform="translate(2318.599533 0)"/>
    <use xlink:href="#Poppins-Regular-47" transform="translate(2345.29953 0)"/>
    <use xlink:href="#Poppins-Regular-6f" transform="translate(2423.099518 0)"/>
    <use xlink:href="#Poppins-Regular-6c" transform="translate(2487.099503 0)"/>
    <use xlink:href="#Poppins-Regular-64" transform="translate(2511.699493 0)"/>
    <use xlink:href="#Poppins-Regular-20" transform="translate(2579.299484 0)"/>
    <use xlink:href="#Poppins-Regular-2f" transform="translate(2605.999481 0)"/>
    <use xlink:href="#Poppins-Regular-20" transform="translate(2653.599472 0)"/>
    <use xlink:href="#Poppins-Regular-50" transform="translate(2680.299469 0)"/>
    <use xlink:href="#Poppins-Regular-6c" transform="translate(2738.199463 0)"/>
    <use xlink:href="#Poppins-Regular-61" transform="translate(2762.799454 0)"/>
    <use xlink:href="#Poppins-Regular-74" transform="translate(2830.399445 0)"/>
    <use xlink:href="#Poppins-Regular-69" transform="translate(2866.799438 0)"/>
    <use xlink:href="#Poppins-Regular-6e" transform="translate(2891.399429 0)"/>
    <use xlink:href="#Poppins-Regular-75" transform="translate(2955.399414 0)"/>
    <use xlink:href="#Poppins-Regular-6d" transform="translate(3019.399399 0)"/>
   </g>
  </g>
  <g id="_ors_chrome:139130906843344">
   <!-- Source: synthetic 12-month customer panel -->
   <g style="fill: #737373" transform="translate(57.665 318.078281) scale(0.09 -0.09)">
    <defs>
     <path id="Poppins-LightItalic-53" d="M 1619 -45
Q 1216 -45 912 89
Q 608 224 441 467
Q 275 710 275 1024
Q 275 1107 282 1152
L 723 1152
Q 710 947 796 758
Q 883 570 1097 445
Q 1312 320 1651 320
Q 2125 320 2406 557
Q 2688 794 2688 1197
Q 2688 1440 2557 1603
Q 2426 1766 2234 1872
Q 2042 1978 1709 2112
Q 1318 2266 1088 2397
Q 858 2528 707 2758
Q 557 2989 582 3347
Q 595 3693 790 3958
Q 986 4224 1322 4374
Q 1658 4525 2086 4525
Q 2509 4525 2813 4381
Q 3117 4237 3267 3987
Q 3418 3738 3398 3437
L 2931 3437
Q 2944 3610 2851 3776
Q 2758 3942 2556 4048
Q 2355 4154 2061 4154
Q 1606 4154 1318 3933
Q 1030 3712 1030 3334
Q 1030 3110 1158 2956
Q 1286 2803 1472 2700
Q 1658 2598 1984 2464
Q 2362 2310 2595 2176
Q 2829 2042 2992 1818
Q 3155 1594 3155 1254
Q 3155 1171 3149 1126
Q 3123 800 2931 531
Q 2739 262 2403 108
Q 2067 -45 1619 -45
z
" transform="scale(0.015625)"/>
     <path id="Poppins-LightItalic-6f" d="M 1728 -51
Q 1293 -51 960 125
Q 627 301 444 624
Q 262 947 262 1382
Q 262 1971 531 2467
Q 800 2963 1280 3254
Q 1760 3546 2349 3546
Q 2784 3546 3117 3370
Q 3450 3194 3635 2870
Q 3821 2547 3821 2112
Q 3821 1517 3545 1024
Q 3270 531 2793 240
Q 2317 -51 1728 -51
z
M 1779 326
Q 2234 326 2595 569
Q 2957 813 3158 1216
Q 3360 1619 3360 2086
Q 3360 2611 3056 2886
Q 2752 3162 2285 3162
Q 1830 3162 1475 2918
Q 1120 2675 921 2272
Q 723 1869 723 1402
Q 723 883 1024 604
Q 1325 326 1779 326
z
" transform="scale(0.015625)"/>
     <path id="Poppins-LightItalic-75" d="M 3834 3494
L 3219 0
L 2771 0
L 2880 614
Q 2662 288 2316 115
Q 1971 -58 1574 -58
Q 1037 -58 710 233
Q 384 525 384 1082
Q 384 1286 416 1453
L 774 3494
L 1216 3494
L 864 1504
Q 838 1357 838 1197
Q 838 774 1072 553
Q 1306 333 1722 333
Q 2208 333 2560 630
Q 2912 928 3034 1504
L 3386 3494
L 3834 3494
z
" transform="scale(0.015625)"/>
     <path id="Poppins-LightItalic-72" d="M 1133 2797
Q 1344 3162 1683 3360
Q 2022 3558 2470 3558
L 2387 3091
L 2259 3091
Q 1798 3091 1465 2854
Q 1133 2618 1005 2074
L 640 0
L 192 0
L 806 3494
L 1254 3494
L 1133 2797
z
" transform="scale(0.015625)"/>
     <path id="Poppins-LightItalic-63" d="M 294 1747
Q 390 2291 681 2697
Q 973 3104 1395 3325
Q 1818 3546 2310 3546
Q 2957 3546 3318 3226
Q 3680 2906 3706 2355
L 3226 2355
Q 3206 2733 2947 2947
Q 2688 3162 2246 3162
Q 1702 3162 1289 2794
Q 877 2426 755 1747
Q 723 1587 723 1382
Q 723 870 1001 598
Q 1280 326 1741 326
Q 2189 326 2521 540
Q 2854 755 3014 1139
L 3494 1139
Q 3277 602 2797 275
Q 2317 -51 1677 -51
Q 1030 -51 643 320
Q 256 691 256 1338
Q 256 1536 294 1747
z
" transform="scale(0.015625)"/>
     <path id="Poppins-LightItalic-65" d="M 2330 3546
Q 2771 3546 3084 3376
Q 3398 3206 3561 2912
Q 3725 2618 3725 2240
Q 3725 2067 3699 1933
Q 3661 1741 3622 1587
L 723 1587
Q 704 1466 704 1357
Q 704 864 1001 595
Q 1299 326 1760 326
Q 2202 326 2534 537
Q 2867 749 3021 1107
L 3501 1107
Q 3283 595 2806 272
Q 2330 -51 1696 -51
Q 1043 -51 649 323
Q 256 698 256 1344
Q 256 1536 294 1747
Q 390 2291 681 2700
Q 973 3110 1401 3328
Q 1830 3546 2330 3546
z
M 3238 1920
Q 3270 2099 3270 2221
Q 3270 2675 2982 2918
Q 2694 3162 2246 3162
Q 1920 3162 1619 3021
Q 1318 2880 1094 2598
Q 870 2317 787 1920
L 3238 1920
z
" transform="scale(0.015625)"/>
     <path id="Poppins-LightItalic-3a" d="M 262 -32
Q 141 -32 64 45
Q -13 122 -13 243
Q -13 397 105 512
Q 224 627 378 627
Q 499 627 576 553
Q 653 480 653 358
Q 653 205 534 86
Q 416 -32 262 -32
z
M 262 2784
Q 141 2784 64 2861
Q -13 2938 -13 3059
Q -13 3213 105 3328
Q 224 3443 378 3443
Q 499 3443 576 3369
Q 653 3296 653 3174
Q 653 3021 534 2902
Q 416 2784 262 2784
z
" transform="scale(0.015625)"/>
     <path id="Poppins-LightItalic-20" transform="scale(0.015625)"/>
     <path id="Poppins-LightItalic-73" d="M 1357 -51
Q 826 -51 493 195
Q 160 442 160 870
Q 160 947 166 986
L 602 986
Q 576 678 781 492
Q 986 307 1382 307
Q 1786 307 2029 476
Q 2272 646 2272 928
Q 2272 1094 2169 1209
Q 2067 1325 1916 1398
Q 1766 1472 1498 1568
Q 1165 1690 963 1795
Q 762 1901 618 2089
Q 474 2278 474 2566
Q 474 2854 640 3078
Q 806 3302 1097 3424
Q 1389 3546 1760 3546
Q 2278 3546 2608 3290
Q 2938 3034 2938 2611
Q 2938 2522 2931 2477
L 2509 2477
Q 2515 2502 2515 2560
Q 2515 2842 2294 3014
Q 2074 3187 1728 3187
Q 1382 3187 1155 3024
Q 928 2861 928 2586
Q 928 2400 1037 2275
Q 1146 2150 1306 2073
Q 1466 1997 1734 1894
Q 2054 1773 2249 1670
Q 2445 1568 2579 1389
Q 2714 1210 2714 941
Q 2714 486 2336 217
Q 1958 -51 1357 -51
z
" transform="scale(0.015625)"/>
     <path id="Poppins-LightItalic-79" d="M 890 3494
L 1549 531
L 3219 3494
L 3686 3494
L 710 -1645
L 237 -1645
L 1210 26
L 390 3494
L 890 3494
z
" transform="scale(0.015625)"/>
     <path id="Poppins-LightItalic-6e" d="M 2464 3558
Q 3002 3558 3325 3267
Q 3648 2976 3648 2419
Q 3648 2214 3616 2048
L 3251 0
L 2810 0
L 3162 1997
Q 3187 2144 3187 2310
Q 3187 2733 2956 2950
Q 2726 3168 2310 3168
Q 1805 3168 1446 2848
Q 1088 2528 979 1907
L 979 1926
L 640 0
L 192 0
L 806 3494
L 1254 3494
L 1146 2893
Q 1370 3213 1715 3385
Q 2061 3558 2464 3558
z
" transform="scale(0.015625)"/>
     <path id="Poppins-LightItalic-74" d="M 934 947
Q 915 832 915 749
Q 915 544 1027 464
Q 1139 384 1395 384
L 1805 384
L 1734 0
L 1254 0
Q 858 0 659 153
Q 461 307 461 659
Q 461 800 486 947
L 870 3117
L 384 3117
L 454 3494
L 941 3494
L 1094 4371
L 1542 4371
L 1389 3494
L 2355 3494
L 2285 3117
L 1318 3117
L 934 947
z
" transform="scale(0.015625)"/>
     <path id="Poppins-LightItalic-68" d="M 2483 3558
Q 3008 3558 3328 3270
Q 3648 2982 3648 2419
Q 3648 2214 3616 2048
L 3251 0
L 2810 0
L 3162 1997
Q 3187 2144 3187 2310
Q 3187 2733 2956 2950
Q 2726 3168 2310 3168
Q 1805 3168 1446 2848
Q 1088 2528 979 1907
L 979 1914
L 640 0
L 192 0
L 1030 4736
L 1478 4736
L 1152 2899
Q 1376 3219 1728 3388
Q 2080 3558 2483 3558
z
" transform="scale(0.015625)"/>
     <path id="Poppins-LightItalic-69" d="M 1152 4154
Q 1030 4154 953 4227
Q 877 4301 877 4422
Q 877 4589 992 4701
Q 1107 4813 1267 4813
Q 1389 4813 1462 4742
Q 1536 4672 1536 4557
Q 1536 4390 1421 4272
Q 1306 4154 1152 4154
z
M 1254 3494
L 640 0
L 192 0
L 806 3494
L 1254 3494
z
" transform="scale(0.015625)"/>
     <path id="Poppins-LightItalic-31" d="M 602 4115
L 678 4525
L 1766 4525
L 960 0
L 512 0
L 1235 4115
L 602 4115
z
" transform="scale(0.015625)"/>
     <path id="Poppins-LightItalic-32" d="M 64 352
Q 1402 1229 2170 1929
Q 2938 2630 3053 3290
Q 3078 3456 3078 3539
Q 3078 3859 2889 4051
Q 2701 4243 2278 4243
Q 1792 4243 1472 3939
Q 1152 3635 1037 3136
L 602 3136
Q 762 3846 1232 4236
Q 1702 4627 2349 4627
Q 2893 4627 3209 4361
Q 3526 4096 3526 3603
Q 3526 3443 3501 3309
Q 3366 2547 2598 1827
Q 1830 1107 768 410
L 3130 410
L 3066 32
L 6 32
L 64 352
z
" transform="scale(0.015625)"/>
     <path id="Poppins-LightItalic-2d" d="M 2816 2560
L 2752 2182
L 262 2182
L 326 2560
L 2816 2560
z
" transform="scale(0.015625)"/>
     <path id="Poppins-LightItalic-6d" d="M 4986 3558
Q 5510 3558 5827 3270
Q 6144 2982 6144 2426
Q 6144 2253 6106 2048
L 5741 0
L 5299 0
L 5658 1997
Q 5690 2189 5690 2317
Q 5690 2733 5466 2950
Q 5242 3168 4832 3168
Q 4378 3168 4035 2880
Q 3693 2592 3558 2048
L 3187 0
L 2746 0
L 3104 1997
Q 3136 2189 3136 2317
Q 3136 2733 2912 2950
Q 2688 3168 2285 3168
Q 1798 3168 1446 2851
Q 1094 2534 979 1939
L 640 0
L 192 0
L 806 3494
L 1254 3494
L 1146 2886
Q 1363 3213 1705 3385
Q 2048 3558 2432 3558
Q 2886 3558 3187 3340
Q 3488 3123 3565 2701
Q 3776 3117 4160 3337
Q 4544 3558 4986 3558
z
" transform="scale(0.015625)"/>
     <path id="Poppins-LightItalic-70" d="M 1120 2726
Q 1338 3078 1744 3312
Q 2150 3546 2643 3546
Q 3277 3546 3657 3171
Q 4038 2797 4038 2150
Q 4038 1965 4000 1754
Q 3904 1216 3616 806
Q 3328 397 2909 173
Q 2490 -51 2010 -51
Q 1517 -51 1197 182
Q 877 416 768 768
L 346 -1651
L -102 -1651
L 806 3494
L 1254 3494
L 1120 2726
z
M 3546 1754
Q 3578 1946 3578 2080
Q 3578 2586 3280 2870
Q 2982 3155 2496 3155
Q 2138 3155 1811 2982
Q 1485 2810 1254 2490
Q 1024 2170 947 1747
Q 915 1568 915 1427
Q 915 928 1216 633
Q 1517 339 1997 339
Q 2368 339 2691 508
Q 3014 678 3241 1001
Q 3469 1325 3546 1754
z
" transform="scale(0.015625)"/>
     <path id="Poppins-LightItalic-61" d="M 294 1754
Q 390 2291 678 2697
Q 966 3104 1385 3325
Q 1805 3546 2285 3546
Q 2784 3546 3104 3315
Q 3424 3085 3520 2726
L 3654 3494
L 4102 3494
L 3488 0
L 3040 0
L 3174 774
Q 2957 416 2550 182
Q 2144 -51 1645 -51
Q 1229 -51 915 121
Q 602 294 429 611
Q 256 928 256 1357
Q 256 1542 294 1754
z
M 3347 1747
Q 3379 1926 3379 2067
Q 3379 2566 3078 2860
Q 2778 3155 2298 3155
Q 1926 3155 1603 2988
Q 1280 2822 1056 2505
Q 832 2189 755 1754
Q 723 1562 723 1427
Q 723 922 1020 630
Q 1318 339 1798 339
Q 2157 339 2486 512
Q 2816 685 3043 1005
Q 3270 1325 3347 1747
z
" transform="scale(0.015625)"/>
     <path id="Poppins-LightItalic-6c" d="M 1478 4736
L 640 0
L 192 0
L 1030 4736
L 1478 4736
z
" transform="scale(0.015625)"/>
    </defs>
    <use xlink:href="#Poppins-LightItalic-53"/>
    <use xlink:href="#Poppins-LightItalic-6f" transform="translate(56.599991 0)"/>
    <use xlink:href="#Poppins-LightItalic-75" transform="translate(120.799988 0)"/>
    <use xlink:href="#Poppins-LightItalic-72" transform="translate(184.099976 0)"/>
    <use xlink:href="#Poppins-LightItalic-63" transform="translate(220.299973 0)"/>
    <use xlink:href="#Poppins-LightItalic-65" transform="translate(281.59996 0)"/>
    <use xlink:href="#Poppins-LightItalic-3a" transform="translate(343.799957 0)"/>
    <use xlink:href="#Poppins-LightItalic-20" transform="translate(362.299942 0)"/>
    <use xlink:href="#Poppins-LightItalic-73" transform="translate(391.799927 0)"/>
    <use xlink:href="#Poppins-LightItalic-79" transform="translate(442.799911 0)"/>
    <use xlink:href="#Poppins-LightItalic-6e" transform="translate(497.299896 0)"/>
    <use xlink:href="#Poppins-LightItalic-74" transform="translate(560.599884 0)"/>
    <use xlink:href="#Poppins-LightItalic-68" transform="translate(596.199875 0)"/>
    <use xlink:href="#Poppins-LightItalic-65" transform="translate(659.499863 0)"/>
    <use xlink:href="#Poppins-LightItalic-74" transform="translate(721.69986 0)"/>
    <use xlink:href="#Poppins-LightItalic-69" transform="translate(757.29985 0)"/>
    <use xlink:href="#Poppins-LightItalic-63" transform="translate(780.199844 0)"/>
    <use xlink:href="#Poppins-LightItalic-20" transform="translate(841.499832 0)"/>
    <use xlink:href="#Poppins-LightItalic-31" transform="translate(870.999817 0)"/>
    <use xlink:href="#Poppins-LightItalic-32" transform="translate(900.199814 0)"/>
    <use xlink:href="#Poppins-LightItalic-2d" transform="translate(957.399811 0)"/>
    <use xlink:href="#Poppins-LightItalic-6d" transform="translate(1009.299805 0)"/>
    <use xlink:href="#Poppins-LightItalic-6f" transform="translate(1111.499786 0)"/>
    <use xlink:href="#Poppins-LightItalic-6e" transform="translate(1175.699783 0)"/>
    <use xlink:href="#Poppins-LightItalic-74" transform="translate(1238.999771 0)"/>
    <use xlink:href="#Poppins-LightItalic-68" transform="translate(1274.599762 0)"/>
    <use xlink:href="#Poppins-LightItalic-20" transform="translate(1337.89975 0)"/>
    <use xlink:href="#Poppins-LightItalic-63" transform="translate(1367.399734 0)"/>
    <use xlink:href="#Poppins-LightItalic-75" transform="translate(1428.699722 0)"/>
    <use xlink:href="#Poppins-LightItalic-73" transform="translate(1491.99971 0)"/>
    <use xlink:href="#Poppins-LightItalic-74" transform="translate(1542.999695 0)"/>
    <use xlink:href="#Poppins-LightItalic-6f" transform="translate(1578.599686 0)"/>
    <use xlink:href="#Poppins-LightItalic-6d" transform="translate(1642.799683 0)"/>
    <use xlink:href="#Poppins-LightItalic-65" transform="translate(1744.999664 0)"/>
    <use xlink:href="#Poppins-LightItalic-72" transform="translate(1807.199661 0)"/>
    <use xlink:href="#Poppins-LightItalic-20" transform="translate(1843.399658 0)"/>
    <use xlink:href="#Poppins-LightItalic-70" transform="translate(1872.899643 0)"/>
    <use xlink:href="#Poppins-LightItalic-61" transform="translate(1940.399628 0)"/>
    <use xlink:href="#Poppins-LightItalic-6e" transform="translate(2007.899612 0)"/>
    <use xlink:href="#Poppins-LightItalic-65" transform="translate(2071.1996 0)"/>
    <use xlink:href="#Poppins-LightItalic-6c" transform="translate(2133.399597 0)"/>
   </g>
  </g>
 </g>
 <defs>
  <clipPath id="p9b580997b3">
   <rect x="57.665" y="109.026" width="383.096" height="175.134"/>
  </clipPath>
 </defs>
</svg>
